<?xml version="1.0" encoding="UTF-8" standalone="no"?>
<svg
   xmlns:dc="http://purl.org/dc/elements/1.1/"
   xmlns:cc="http://creativecommons.org/ns#"
   xmlns:rdf="http://www.w3.org/1999/02/22-rdf-syntax-ns#"
   xmlns:svg="http://www.w3.org/2000/svg"
   xmlns="http://www.w3.org/2000/svg"
   xmlns:sodipodi="http://sodipodi.sourceforge.net/DTD/sodipodi-0.dtd"
   xmlns:inkscape="http://www.inkscape.org/namespaces/inkscape"
   version="1.0"
   width="276pt"
   height="438pt"
   viewBox="0 0 276 438"
   preserveAspectRatio="xMidYMid meet"
   id="svg4082"
   sodipodi:docname="large.svg"
   inkscape:version="0.92.3 (d244b95, 2018-08-02)">
  <defs
     id="defs4086" />
  <sodipodi:namedview
     pagecolor="#ffffff"
     bordercolor="#666666"
     borderopacity="1"
     objecttolerance="10"
     gridtolerance="10"
     guidetolerance="10"
     inkscape:pageopacity="0"
     inkscape:pageshadow="2"
     inkscape:window-width="1373"
     inkscape:window-height="690"
     id="namedview4084"
     showgrid="false"
     inkscape:zoom="0.762"
     inkscape:cx="333.33333"
     inkscape:cy="333.33333"
     inkscape:window-x="67"
     inkscape:window-y="27"
     inkscape:window-maximized="1"
     inkscape:current-layer="g4080" />
  <metadata
     id="metadata4042">
Created by potrace 1.15, written by Peter Selinger 2001-2017
<rdf:RDF>
  <cc:Work
     rdf:about="">
    <dc:format>image/svg+xml</dc:format>
    <dc:type
       rdf:resource="http://purl.org/dc/dcmitype/StillImage" />
    <dc:title></dc:title>
  </cc:Work>
</rdf:RDF>
</metadata>
  <g
     transform="matrix(0.1,0,0,-0.1,0,438)"
     id="g4080"
     style="fill:#000000;stroke:none">
    <path
       d="m 1001.2599,4359.7244 c -145.00002,-13 -216.00002,-25 -350.00002,-56 -271,-63 -443,-195 -557.999998,-424 -86.9999985,-175 -89.9999985,-205 -79.999999,-855 4,-294 12,-915 17,-1380 l 10,-844.99998 23.999999,-96 c 66.999998,-260 240.999998,-470 473.999998,-572 127,-56.000002 397,-107.000002 676.00002,-128.0000025 307,-22.9999995 701,24.0000005 978,115.0000025 212,70 345,174 450,354 14,23 29,39 32,35 4,-3 7,3 7,15 0,11 9,40 19,65 10,24 29,84 41,133 23,89 23,91 16,658.99998 -3,314 -8,662 -11,775 -3,113 -10,464 -15,781 -11,625 -14,662 -69,805 -78,201 -211,353 -391,448 -141,74 -492,157 -746,176 -176,13 -351,11 -524,-5 z m 503,-233 c 59,-32 92,-69 126,-142 37,-78 36,-193 -1,-265 -52,-100 -124,-145 -231,-145 -113,0 -192,55 -246,170 -35,75 -37,193 -4,261 71,143 221,195 356,121 z m -915.00002,-895 c 2,-73 0,-87 -13,-87 -12,0 -15,13 -15,65 0,68 -5,76 -25,48 -7,-9 -17,-13 -24,-8 -9,5 -3,17 20,41 18,19 38,33 44,31 5,-2 11,-42 13,-90 z m 862.00002,53 c 21,-21 26,-55 11,-78 -4,-7 -37,-16 -72,-20 -35,-4 -63,-11 -62,-17 2,-5 33,-12 70,-15 40,-3 68,-10 71,-17 3,-10 -18,-13 -82,-13 h -86 v 34 c 0,43 10,49 80,56 51,5 55,7 55,30 0,23 -4,25 -52,28 -44,3 -52,0 -58,-18 -9,-28 -25,-25 -25,5 0,31 24,44 83,45 34,0 52,-5 67,-20 z m 793,-6 c 9,-3 17,-11 17,-17 1,-7 3,-37 5,-67 2,-30 -1,-60 -7,-67 -7,-8 -35,-13 -79,-13 -65,0 -69,1 -75,25 -8,34 3,44 21,18 11,-16 24,-20 62,-19 42,1 48,4 51,24 3,20 -1,22 -37,22 -30,0 -41,4 -41,15 0,10 10,15 34,15 39,0 53,14 36,35 -17,20 -84,19 -105,-1 -11,-12 -19,-14 -27,-6 -7,7 -3,17 12,32 19,19 29,21 68,15 26,-3 55,-8 65,-11 z m -1602.00002,-756 c 0,-2 3,-25 6,-53 2,-27 9,-51 14,-53 12,-5 12,-32 -1,-32 -5,0 -10,-7 -10,-15 0,-8 -7,-15 -15,-15 -8,0 -15,7 -15,15 0,12 -14,15 -65,15 -54,0 -65,3 -65,17 0,21 109,122 133,123 9,0 17,-1 18,-2 z m 833.00002,-13 c 4,-12 -6,-15 -64,-15 -56,0 -70,-3 -70,-15 0,-12 13,-15 58,-15 67,0 82,-11 82,-60 0,-50 -14,-60 -85,-60 -60,0 -85,11 -85,37 0,7 7,13 15,13 8,0 15,-4 15,-10 0,-5 25,-10 55,-10 54,0 55,1 55,29 0,17 -6,31 -16,35 -25,10 -82,7 -89,-4 -3,-5 -13,-10 -21,-10 -10,0 -14,12 -14,43 0,24 3,47 7,50 3,4 39,7 79,7 55,0 73,-4 78,-15 z m 780,-1 c 9,-3 16,-15 16,-25 0,-20 -15,-26 -25,-9 -3,6 -28,10 -56,10 -42,0 -49,-3 -49,-20 0,-18 7,-20 60,-20 54,0 62,-2 71,-24 16,-34 4,-72 -23,-80 -41,-11 -93,-6 -116,10 -19,13 -22,24 -22,78 0,35 5,67 12,74 12,12 104,17 132,6 z m -1574.00002,-771 c 0,-23 -107,-163 -126,-163 -18,0 -15,6 43,83 24,31 43,59 43,62 0,3 -31,5 -70,5 -64,0 -81,6 -63,23 3,4 44,7 90,7 71,0 83,-2 83,-17 z m 790.00002,7 c 15,-8 18,-22 18,-82 0,-45 -4,-76 -11,-80 -20,-13 -134,-9 -145,5 -13,15 -13,138 1,155 11,14 110,16 137,2 z m 804,-6 c 11,-10 16,-34 16,-74 0,-73 -14,-90 -78,-90 -53,0 -101,25 -83,43 8,8 14,8 23,-1 7,-7 34,-12 60,-12 41,0 48,3 48,20 0,17 -7,20 -51,20 -66,0 -89,13 -89,50 0,44 23,60 85,60 35,0 59,-5 69,-16 z m -34,-779.99998 c 0,-12 6,-15 24,-10 25,6 36,-7 36,-45 0,-10 5,-19 10,-19 6,0 10,-11 10,-25 0,-14 -5,-25 -11,-25 -7,0 -9,-9 -6,-22 8,-28 -8,-47 -33,-41 -12,3 -22,-1 -26,-11 -8,-21 -40,-21 -48,0 -4,10 -12,14 -22,10 -23,-9 -43,11 -37,34 3,12 -1,22 -11,26 -21,8 -21,40 1,52 10,6 14,16 9,27 -8,23 10,44 33,38 11,-3 21,2 24,11 8,21 47,21 47,0 z m -1530.00002,-41 c 0,-22 -107,-163 -124,-163 -15,0 -56,58 -56,79 0,16 27,13 34,-4 11,-28 32,-15 71,45 38,59 75,80 75,43 z m 784.00002,1 c 11,-10 16,-34 16,-70 0,-73 -21,-94 -94,-94 -72,0 -86,14 -86,90 0,40 5,64 16,74 10,11 34,16 74,16 40,0 64,-5 74,-16 z"
       id="path4048"
       inkscape:connector-curvature="0" />
    <path
       d="m 1207.2599,3903.7244 c 20,-36 34,-75 34,-95 0,-27 4,-34 20,-34 17,0 20,7 20,40 0,24 11,62 25,90 29,58 30,60 10,60 -9,0 -25,-16 -36,-35 -24,-39 -31,-39 -49,5 -9,21 -19,30 -36,30 -23,0 -23,0 12,-61 z"
       id="path4050"
       inkscape:connector-curvature="0" />
    <path
       d="m 1441.2599,3864.7244 c 0,-80 3,-100 14,-100 20,0 21,8 18,110 -3,70 -7,90 -18,90 -11,0 -14,-20 -14,-100 z"
       id="path4052"
       inkscape:connector-curvature="0" />
    <path
       d="m 1329.2599,3903.7244 c -19,-11 -25,-39 -8,-39 6,0 19,6 30,12 15,10 22,10 32,0 15,-15 10,-20 -24,-24 -89,-12 -71,-88 20,-86 l 48,1 -4,61 c -4,64 -19,86 -56,86 -12,0 -29,-5 -38,-11 z m 60,-86 c -4,-22 -48,-31 -48,-10 0,19 10,27 32,27 13,0 18,-6 16,-17 z"
       id="path4054"
       inkscape:connector-curvature="0" />
    <path
       d="m 1507.2599,3888.7244 c -22,-22 -21,-87 2,-107 26,-24 74,-22 90,3 10,17 10,20 -6,20 -10,0 -23,-5 -30,-12 -8,-8 -15,-8 -27,2 -26,21 -17,30 30,30 36,0 45,3 45,18 0,52 -68,82 -104,46 z m 64,-28 c 0,-8 -9,-12 -22,-11 -30,3 -30,3 -23,15 9,15 45,12 45,-4 z"
       id="path4056"
       inkscape:connector-curvature="0" />
    <path
       d="m 566.25988,2449.7244 -40,-34 48,-1 h 47 v 35 c 0,19 -3,35 -7,35 -5,0 -26,-16 -48,-35 z"
       id="path4058"
       inkscape:connector-curvature="0" />
    <path
       d="m 2143.2599,2392.7244 c 3,-20 9,-23 53,-23 44,0 50,3 53,23 3,21 0,22 -53,22 -53,0 -56,-1 -53,-22 z"
       id="path4060"
       inkscape:connector-curvature="0" />
    <path
       d="m 1351.2599,1704.7244 c 0,-11 3,-20 8,-21 4,0 18,-3 32,-5 40,-7 70,4 70,26 0,18 -7,20 -55,20 -48,0 -55,-2 -55,-20 z"
       id="path4062"
       inkscape:connector-curvature="0" />
    <path
       d="m 1358.2599,1647.7244 c -4,-3 -7,-15 -7,-25 0,-15 8,-18 54,-18 57,0 70,7 60,34 -4,12 -19,16 -53,16 -26,0 -51,-3 -54,-7 z"
       id="path4064"
       inkscape:connector-curvature="0" />
    <path
       d="m 2151.2599,1699.7244 c 0,-24 3,-25 55,-25 52,0 55,1 55,25 0,24 -3,25 -55,25 -52,0 -55,-1 -55,-25 z"
       id="path4066"
       inkscape:connector-curvature="0" />
    <path
       d="m 2191.2599,879.72442 c -10,-12 -10,-21 -2,-40 20,-43 66,-26 60,21 -4,34 -37,45 -58,19 z"
       id="path4068"
       inkscape:connector-curvature="0" />
    <path
       d="m 1363.2599,847.72442 3,-58 h 55 55 l 3,58 3,57 h -61 -61 z"
       id="path4070"
       inkscape:connector-curvature="0" />
  </g>
</svg>
