<svg id="Layer_1" data-name="Layer 1" xmlns="http://www.w3.org/2000/svg" viewBox="0 0 1569.47 3462.71"><defs><style>.cls-1{fill:#fff;}.cls-2,.cls-3{fill:none;}.cls-3{isolation:isolate;}</style></defs><title>yrd220new</title><path class="cls-1" d="M1181.06,3412.2h26.05v-.55h-26.06Q1181.06,3411.93,1181.06,3412.2Z" transform="translate(-459.45 -29.2)"/><path class="cls-1" d="M1313.94,3410.12l-.35,1.95c3-.43,6.08-1.07,9.14-1.23a79.69,79.69,0,0,1,8.29.36v-1.86Z" transform="translate(-459.45 -29.2)"/><path class="cls-1" d="M1282.94,3411.66l0,.53h11l0-.53Z" transform="translate(-459.45 -29.2)"/><path d="M1859,1025.2c-.2-133.89-1.15-267.78-1.73-401.67a341.46,341.46,0,0,0-11.38-84.79c-28.61-110.1-132.44-195.23-215.33-219.3-50-14.53-101.09-23.75-152.52-31-65.22-9.25-130.92-12.64-196.72-13.86-81.64-1.51-163.11,1.43-244.26,11.18-49.65,6-98.9,14.11-147.52,26-60.08,14.64-112.8,42.2-157.31,85.81-64.37,63.07-98,139.11-98.59,229.15-1.07,168.1-1.46,336.2-2.14,504.3h.36q0,194.92,0,389.84c0,36.19-.51,72.38-.14,108.56.27,27,1.3,54.11,8.78,80.21,27.39,95.61,85.67,164.41,178.25,202.84,34.5,14.32,70.89,22,107.27,29.49,94.36,19.39,189.93,28.09,286.11,29.56,45,.68,90.13-.46,135.14-2.3,45.68-1.86,91.06-7.68,136.34-14.05,42.32-6,84.52-12.54,126.07-22.83,40.79-10.1,80-24.07,115.3-47.35,69-45.54,111.47-109.46,129-189.92,5.48-25.16,5.16-51,5.15-76.65Q1859.08,1321.77,1859,1025.2Zm-13.75,586.27c-.12,51.74-10.24,101.41-34.77,147.35-43.22,81-109.81,133.52-198,157.4-36.06,9.76-73.25,15.64-110.15,22a1317.83,1317.83,0,0,1-161.78,17.08c-24.3,1.13-48.67.84-73,1-24,.14-48-.31-72,.08-40.56.67-80.86-2.66-121.06-7.35-33.63-3.92-67.32-7.63-100.76-12.82-42.23-6.55-84.53-13.58-124.51-29.46-102.86-40.86-169.16-114.1-195.37-222.44-6.31-26.09-7.75-52.63-7.75-79.34q0-238.37,0-476.74h.53q0-242.31-.13-484.62c-.11-49.13,9-96.09,28.62-141,35.74-82,97.43-135.7,181-165.3C893.42,324,932,315.81,971,309.67c101.27-15.93,203.21-23.58,305.72-21.46,39.75.82,79.49,3.88,119.16,7,33.75,2.64,67.48,6.05,101,10.45,56.55,7.4,112.2,19.05,164.65,42.4,97.15,43.24,154.58,118.19,176,221.68,6,29.13,7.86,58.59,7.85,88.27q-.22,349.9-.27,699.8C1845.12,1442.36,1845.49,1526.92,1845.29,1611.47Z" transform="translate(-459.45 -29.2)"/><path d="M1364.33,415c-29.72-80.47-133-106.95-200.64-51.45-57.82,47.46-59.38,133.48-2.89,182.48,31.24,27.1,67.81,36.42,108.49,29.73a122.27,122.27,0,0,0,102.3-120.26C1371.91,442.26,1369.28,428.44,1364.33,415Zm-173.69,72.48c1,7.88-1.41,10-9.4,9.89s-10.28-2-9.3-10.06c1.79-14.6-2.8-27.21-10.5-39.13-6.39-9.89-12.67-19.84-19.08-29.89,12.72-5.45,21-2.67,27,8.17,3.42,6.23,7,12.36,11.44,20.11,3.46-4.72,5.87-7.7,7.92-10.9,1.95-3,3.39-6.4,5.29-9.47,6.46-10.43,12.23-12.48,25.59-8.85-.83,2.08-1.36,4.26-2.49,6.07q-7.82,12.56-15.92,24.94C1193.39,460.33,1188.83,473,1190.64,487.53Zm70.22,1.6c-.56,8.07-4.41,10.78-11.68,7.73-5-2.11-9.38-1.7-14.19.09a30.1,30.1,0,0,1-20.3.14c-7.19-2.35-11.09-7.78-11.4-15.51-.32-7.91,2.79-13.46,10.38-16,6.17-2,12.75-2.9,19.19-4.06,4.24-.76,9-.92,10-6.16.34-1.74-1-4.46-2.41-5.77-3.12-2.86-10.47-2.81-13.89-.32-1.3.95-2.08,2.71-3.45,3.44-2.75,1.47-5.67,3.14-8.66,3.51a9.07,9.07,0,0,1-3-.21c-1.71-.37-3.45-1-5.16-1.41.41-1.49.62-3.14,1-4.68a9.27,9.27,0,0,1,1.7-4.06,25.35,25.35,0,0,1,9.45-6.66,43,43,0,0,1,28.92-1.51c8.92,2.54,13.15,7.63,13.64,17,.29,5.56.05,11.15.05,16.73h-.05C1260.93,477.32,1261.26,483.25,1260.85,489.13Zm24.15.7c-.11,6.94-2.24,8.81-8.84,8.62-6.8-.2-8.61-2.05-8.61-9,0-21.3,0-42.61.05-63.91,0-7.78,2-9.88,8.9-9.77,6.25.1,8.32,1.77,8.46,8.14.24,11.14.07,22.29.07,33.44h0C1285,468.19,1285.17,479,1285,489.83Zm56.86-18.12c-8.54.12-17.09-.14-25.63,0-3.09,0-6.18.66-9.37,1,2.75,12.88,11,17.09,20.9,11.18,5.84-3.47,11.42-6.42,19.07-4.06-5.88,13.73-16.24,20.26-29.52,19.16-14.06-1.17-24.15-9.62-27.29-23-2.83-12.09-.55-23.06,8.74-31.6,8.59-7.89,19-10.18,30.27-6.81,12.46,3.72,18.58,12.94,20.69,25.12C1350.89,469.45,1348.85,471.62,1341.86,471.72Z" transform="translate(-459.45 -29.2)"/><path d="M1223.15,1421.2c7.86.32,15.75.06,23.63.06v-.2c9.85,0,19.69.09,29.54,0,5.13-.07,10.1-1.52,12.78-6.13,5.35-9.2,8.05-19.3,1.91-28.87-3.85-6-3-10.16-.08-16,7.85-15.5-.56-31.1-17.71-32a487.93,487.93,0,0,0-52.13,0c-14.44.76-23.5,12.56-18.91,26,3.44,10.06,2.43,17.84-.93,27.52C1195.58,1407.85,1205.74,1420.48,1223.15,1421.2Zm-7.66-64c.93-4.29,3.36-7.51,7.83-7.57q24.09-.32,48.18.06c5,.08,7.3,3.7,8,8.45.93,6.47-.87,11.44-5.83,13.21a42.47,42.47,0,0,1-11.53,2c-5.22.33-10.48.08-15.73.08v-.55c-6.56,0-13.15.42-19.66-.1C1217.33,1372.05,1213.51,1366.38,1215.5,1357.23Zm9.4,26.73c15-.63,30.13-.57,45.16.1,7.26.32,10.68,5.62,10.42,13-.28,8-4,11.92-12.07,12.52-3.59.26-7.2.13-10.81.15s-7.21,0-10.81,0v-.07c-6.88,0-13.77.28-20.63-.07-8-.42-11.17-3.87-11.6-11.63C1214.11,1389.64,1217.3,1384.27,1224.9,1384Z" transform="translate(-459.45 -29.2)"/><path d="M1635.26,1418.72c7.44-1.71,12.38-7,12.6-14.62.47-16.41.59-32.87-.06-49.27-.36-9.16-6.68-15.26-15.67-16.38-19.32-2.41-38.69-2.93-58,.22-8.7,1.42-14.61,6.14-15.57,15.27a74.11,74.11,0,0,0-.21,17.6c1.46,10.67,6.31,15.26,16.95,15.6,16.07.52,32.17.25,48.26.24,3.19,0,6.38-.34,10-.54.32,2.15.67,3.71.77,5.29.86,13.77-2,17-15.93,17.29-8.87.21-17.76,0-26.63.11-8,.11-15.73.12-20.52-8.39-2.12-3.77-6.41-2.92-9.73-1.06s-2.66,4.92-1.65,7.87c1.83,5.33,5.3,9.25,10.84,10.52A142.61,142.61,0,0,0,1635.26,1418.72Zm-3.41-45.7c-1.63,1.87-5.16,2.72-7.9,2.88-6.86.4-13.75.13-20.63.13q0,.13,0,.26c-7.2,0-14.42.32-21.6-.09-7.68-.44-10.32-3.63-10.48-11.29-.22-10.58,3.66-15.62,14.1-16,12.74-.47,25.52.06,38.28.3,4.43.08,8.95,1.09,10.16,6C1635.26,1361.28,1636.37,1367.82,1631.85,1373Z" transform="translate(-459.45 -29.2)"/><path d="M1590.76,1008.68c8.22-.15,16.45,0,24.67,0,8.06-.07,15.79-.09,20.08,8.95,1.7,3.57,5.66,2.43,8.85,1.14,3.66-1.48,3.38-4.33,2.61-7.41-1.89-7.61-6.91-11.64-14.46-12.91-18.32-3.08-36.76-2.66-55.1-.87-12.31,1.2-18.86,8.33-19.51,21-.7,13.77-.15,27.62,0,41.43a25.06,25.06,0,0,0,1.34,6.76c1.95,6.48,6.16,11.22,12.8,12.41,21.22,3.83,42.53,4.32,63.7-.39,7.13-1.58,11.24-6.51,12.18-13.84a81.67,81.67,0,0,0,.81-8.84c.36-19-4.81-25-24-25.59-17-.53-34,0-51.91.1C1569.42,1012.93,1572.51,1009,1590.76,1008.68Zm-6.42,33c13.39-.48,26.82-.42,40.2.11,7.77.31,10.14,3.86,10.37,12.55.24,9.54-2.69,14-10.35,15a90.45,90.45,0,0,1-10.79.3c-3.27,0-6.55,0-9.82,0v-.13c-6.55,0-13.12.38-19.64-.09-9.2-.66-13.19-5.2-13.08-13.83S1575.49,1042,1584.34,1041.71Z" transform="translate(-459.45 -29.2)"/><path d="M1281.34,1024.57a32.73,32.73,0,0,0-12.47-2.17c-16.68-.1-33.37.18-50.74.32a16.39,16.39,0,0,1-.89-3.58c-.64-8.28.76-9.86,9-10.38,2.29-.14,4.6-.07,6.9-.06,15.77.09,31.54.27,47.31.25,8.09,0,10.25-1.44,10.26-6s-2.09-5.93-10.22-6c-19.05-.05-38.11-.06-57.16.09a75.7,75.7,0,0,0-11.71,1.31,8.62,8.62,0,0,0-7.67,7.87,127.54,127.54,0,0,0,.27,36.6c4.53-1.71,8-3.13,11.55-4.33,4.3-1.46,8.62-3.66,13-3.91a290.17,290.17,0,0,1,33.47-.24c16.6,1,19.71,5.24,18,21.86-.85,8.23-3.21,11.22-11.65,11.68-13.09.72-26.22.67-39.33.75-6.94,0-13-1.38-15.13-9.55-1.09-4.19-5-3.58-8.26-3-3.65.59-4.69,3.24-4.55,6.51.31,7.26,3.83,12.73,10.45,15.37a42.38,42.38,0,0,0,14.29,3c13.79.36,27.59.13,41.38,0a91.88,91.88,0,0,0,9.77-1.12c7.28-.88,11.92-5.13,14.58-11.69,5-12.32,3.85-24.58-1.72-36.26C1288.54,1028.75,1284.73,1026,1281.34,1024.57Z" transform="translate(-459.45 -29.2)"/><path d="M1263.81,694.23c-3.93.28-7.9.17-11.82.59-10.78,1.15-21.62,2-32.27,3.89-12,2.16-16.63,8-17.71,20.27-.2,2.29-.24,4.6-.22,6.9.09,10,1.66,11.52,11.46,11.51l70-.13c2,0,4.39.68,5.8-.22,1.92-1.22,4.2-3.63,4.22-5.56s-2.29-4.38-4.22-5.4-4.49-.43-6.79-.43q-16.77,0-33.54,0h-31.89c-2.1-11.46-.29-14.42,8.92-15.58,6.84-.87,13.75-1.22,20.61-2,10.45-1.14,20.91-2.22,31.31-3.69,8.17-1.16,13.12-6.4,14-14.39a83.88,83.88,0,0,0-.33-19.59c-1.16-8.87-6.94-13.89-15.73-15.23a183,183,0,0,0-56-.09c-15.92,2.47-18.67,14.86-17.38,26.16.46,4.06,3.18,5.4,7,5.2,5.34-.28,5.83-3.93,6.38-8.19,1.26-9.76,4.22-12.62,14-12.83,12.48-.27,25-.22,37.47.28,7.9.32,10.44,3.25,11.46,10.84C1280.19,688.81,1276.47,693.32,1263.81,694.23Z" transform="translate(-459.45 -29.2)"/><path d="M1646.49,687.46c7.8-18.17-1.68-33-21.58-34.26-7.53-.47-15.11-.08-22.66-.08v.12c-8.54,0-17.12-.54-25.61.13-12.45,1-18.94,8-19.26,19.5-.11,3.87.11,7.42,5.11,7.92,4.55.45,7.93-1,8.23-6.08.35-6.17,4.11-9,9.59-9.1,15.09-.3,30.21-.56,45.29,0,7.33.27,9.22,3.8,9,12.44-.22,7.58-2.46,10-9.89,10.57-2.29.17-4.6.06-6.9.07-6.9,0-13.81-.2-20.69.15-5.22.26-8.12,4.91-5.39,8.64,1.26,1.71,4.33,2.83,6.63,2.91,8.86.32,17.74.13,26.61.09,4.67,0,8.31,1.47,10.12,6.19,4,10.37-1.22,18.52-12.21,18.77-11.82.27-23.65.38-35.48.41-12.45,0-13-.38-16.84-12.57-1.25-4-4.07-4.78-7.59-4.64s-5.13,2.22-5.74,5.58c-1.92,10.61,3.81,19.84,14.83,21.84a172.33,172.33,0,0,0,58.85.38c17.53-2.89,24.91-19.59,16.37-35.33C1644.62,696.27,1644.27,692.62,1646.49,687.46Z" transform="translate(-459.45 -29.2)"/><path d="M1271,1666.2c-7.53-.45-15.12-.08-22.68-.08v0c-8.22,0-16.46-.36-24.65.08-15.2.8-22.59,7.61-23.38,22.49a374.29,374.29,0,0,0,0,39.43c.73,13.77,7.14,20.9,20.86,21.67a444.22,444.22,0,0,0,52.22-.07c14.18-.88,20.5-8.42,21-22.56.44-12.48.45-25,0-37.47C1293.91,1674.3,1286.66,1667.13,1271,1666.2ZM1281.5,1724c-.84,10.76-5.26,14.24-15.87,14.9-.66,0-1.31,0-2,.05h-16.76v-.22c-6.9,0-13.82.39-20.69-.1-8.53-.61-12.08-3.7-12.56-12.22a359.06,359.06,0,0,1-.13-36.4c.37-8.06,5.36-12.32,13.71-12.48,12.81-.25,25.64-.27,38.44.27,11.18.47,15,3.82,15.83,14.75A204.19,204.19,0,0,1,1281.5,1724Z" transform="translate(-459.45 -29.2)"/><path d="M1643.58,1684.57c-7.8-1-7.91-1.14-8.86-9.66-.36-3.26-1-6-4.76-6.22s-5.77,1.78-6.43,5.77c-1.59,9.55-1.76,9.51-10.92,9.49-3.94,0-7.87,0-11.81,0-4.27,0-6.84-1.93-7.05-6.4-.06-1.31.08-2.63-.05-3.93-.36-3.63-2.83-5.13-6.07-5.12s-6.33,1.38-6.18,5c.31,7.25-1.78,11.37-9.94,10.77-3.13-.23-4.93,2.43-4.08,5.32a7.16,7.16,0,0,0,4.33,4.17c9.35,2.42,9.35,2.27,9.36,11.87,0,2.95.34,5.89.41,8.84.08,3.84-1.71,6.23-5.66,6.68-1.63.18-3.67-.37-4.82.43-1.61,1.13-3.25,3.09-3.52,4.91-.17,1.13,2.25,3.87,3.33,3.78,9.47-.76,10.86,4.54,10.6,12.29-.07,2,3.06,4,4.15,5.37,5.16-.28,7.76-1.31,8.25-5.63,1.33-11.66,1.44-11.64,12.5-11.6,1.64,0,3.28,0,4.92,0,10.75-.08,10.84,0,11.58,10.59.35,5,3,7.17,7.6,6.29,3.83-.74,4-3.5,4.2-6.66.71-9.08.91-9.38,8.41-10.24,3.19-.37,6.11-.5,6.2-4.51s-2.75-4.3-6-4.72c-7-.92-8.33-2.55-8.66-9.3-.13-2.62,0-5.25.11-7.87.23-8.58.23-8.71,9.32-10.17,2.95-.47,5.08-1.34,5.27-4.61C1649.58,1685.31,1646.82,1685,1643.58,1684.57Zm-20.45,28.31c-.57,5.46-4.54,7.57-9.53,8.11-2.27.25-4.56.32-5.63.39-5.86.09-10.86.28-13-4.85-2.57-6.11-3.62-12.6-.55-18.94.64-1.31,2.28-2.89,3.58-3,6.45-.55,12.93-.67,19.4-.86a2.64,2.64,0,0,1,1.74.8C1624.19,1699.81,1623.81,1706.4,1623.13,1712.88Z" transform="translate(-459.45 -29.2)"/><path d="M931.77,1052.9c-8-2.14-8.32-2.6-8.39-10.6-.09-9.84,0-19.68,0-29.53,0-6,.08-12.39-6.07-15.57s-11.3.73-16,4.46c-18,14.25-36,28.47-53.94,42.84-7.9,6.34-8.18,8.47-3.53,19,2.65.13,5.57.39,8.48.4q22.64.08,45.27,0c10.53,0,10.7-.07,12.15,10.26.62,4.43,3,6.54,7.07,6.56s6.87-2.24,6.57-6.74c-.41-6.14,1.11-10.33,8.36-10.33,3.62,0,5.1-2.49,5.07-5.93S934.6,1053.65,931.77,1052.9Zm-21.58-.89c-17.28,1.48-33.89.62-50.48.68l-.8-2.41,51.28-40.58Z" transform="translate(-459.45 -29.2)"/><path d="M917.66,1702.91c-7.62.39-15.22,1.5-23.79-.13l16-24.36c-7.34-8.13-9.77-8-14.84.37-3.83,6.32-7.56,12.71-12.1,20.36-4.57-7.67-8.21-13.88-11.95-20-4.92-8.09-7.55-8.24-15.08-.45l16.17,24.28H861.12c-3.95,0-7.89,0-11.84-.06s-7.66.22-7.89,5.18c-.24,5.16,3.58,5.46,7.44,5.43,4.6,0,9.21-.13,13.81,0,2.71.06,5.4.45,9.6.83L856,1738c8.07,8.05,10.32,7.89,15.37-.44,3.69-6.08,7.32-12.18,11.8-19.64,4.65,7.47,8.46,13.55,12.22,19.65,5,8.06,8.09,8.18,14.75-.22L893.37,1714c9.77,0,17,.14,24.15-.08,2.36-.07,5.76-.34,6.75-1.81a8,8,0,0,0,0-7.3C923.34,1703.37,919.93,1702.79,917.66,1702.91Z" transform="translate(-459.45 -29.2)"/><path d="M928.12,1337.83q-33.54,0-67.08.09c-4.27,0-8.55-.06-12.82,0-4,.07-6,2.24-5.8,6.27.15,3.55,2,5.45,5.54,5.53,2.3.05,4.6,0,6.9,0h62.07l1.14,2.11c-2.83,3.5-5.59,7.05-8.5,10.48-13.62,16-27.3,32-40.89,48.1-1.95,2.3-3.45,5-5.33,7.73,9.93,4,12.92,3.64,18.45-2.79,16.72-19.45,33.22-39.08,49.93-58.54,4.84-5.64,6.1-11.39,1.91-18.33A42.74,42.74,0,0,0,928.12,1337.83Z" transform="translate(-459.45 -29.2)"/><path d="M1128.94,1847.5c-16.35-.67-32.79-.68-49.12.2-7.74.42-12.85,6.11-14.66,14-1.69,7.32,1,14.89,7.74,18.66a36.46,36.46,0,0,0,13.88,4.12c6.83.68,13.78.17,20.68.17v0c7.88,0,15.78.22,23.65-.07,5.86-.22,7.28-2.25,7.29-8.12,0-5.54.12-11.09.46-16.62C1139.38,1851.07,1137.74,1847.86,1128.94,1847.5Zm-13.11,27.32c-.82,1.62-3.68,3-5.64,3.08-7.2.17-14.43-.07-21.61-.56-4.24-.29-8.22-2.74-8.51-6.93-.35-5,.88-10.17,2.08-15.11.24-1,3.35-1.83,5.15-1.86,11.78-.16,23.57-.08,38-.08C1121.6,1861.85,1119,1868.5,1115.83,1874.82Z" transform="translate(-459.45 -29.2)"/><path d="M863.23,687c2.2-1.43,4.3-3,6.37-4.62,5.13-4,10.21-8,16.92-13.19.23,5.48.49,9,.5,12.43q.08,24.15,0,48.3c0,4.33,1.82,6.93,6.29,7.07,4.2.14,6.91-1.9,7.51-6.15a51.13,51.13,0,0,0,.28-6.88q.1-30.55.15-61.1c0-6.4-2.34-9.28-8.67-9.15-3.43.07-7.42,1-10.11,3-9,6.6-17.52,13.84-26.22,20.85-2.84,2.29-3,5-.78,7.73C857.56,687.88,860.14,689,863.23,687Z" transform="translate(-459.45 -29.2)"/><path d="M1363.7,1823.78c-5.4.4-9.06,2.72-10.6,8.45-1.27,4.7-3.52,9.16-5.49,13.65a35.75,35.75,0,0,0-2.86,16.18c.69,19.37-1.26,18.63,20.31,18.5h7.87c11.54,0,13.9-2.2,14.11-13.57.24-13.1-4.69-25.07-9-37C1375.79,1823.92,1369.54,1823.35,1363.7,1823.78Zm-4.14,14.85c.27-4,1.87-6.88,6.37-7.08,4.2-.18,6.52,2.72,6.34,7.87-.15,4.57-2.09,6.31-6.79,6.11C1361,1845.35,1359.25,1843.34,1359.57,1838.63Zm11.93,34.3c-2.9.31-5.85.05-8.77.17-3.69.15-8,.28-8.83-4s-1.45-9.63.52-12.91c1.53-2.56,7.17-2.66,11-3.85l.35,1c1.62,0,3.25-.08,4.87,0,6,.35,8.35,3,8.61,9.42S1377.2,1872.32,1371.49,1872.93Z" transform="translate(-459.45 -29.2)"/><path d="M1235.09,471.13c-2.56.4-5.23.37-7.69,1.07-4.57,1.29-7.36,5.42-6.61,9.49.81,4.4,4.26,5.29,8,5.63,10.22.92,15.16-5.05,13.54-17.54C1239.51,470.31,1237.31,470.79,1235.09,471.13Z" transform="translate(-459.45 -29.2)"/><path d="M1317.61,449.21c-5.67.35-9.49,3.6-10.93,11.33,8.79.94,16.46,1.26,25-.21C1328.55,453.44,1324.78,448.76,1317.61,449.21Z" transform="translate(-459.45 -29.2)"/><path class="cls-2" d="M1313.94,3410.12l-.35,1.95c3-.43,6.08-1.07,9.14-1.23a79.69,79.69,0,0,1,8.29.36v-1.86Z" transform="translate(-459.45 -29.2)"/><path class="cls-2" d="M1282.94,3411.66l0,.53h11l0-.53Z" transform="translate(-459.45 -29.2)"/><path class="cls-2" d="M1521,2261.86c-68.07-53.63-144.59-87-231.39-94-69.85-5.68-137.91,3.75-203.09,30.05-100.28,40.47-174.77,110.5-228.95,203-28.35,48.37-45,100.81-48.58,156.88-5.31,84.11,13.54,163.35,56.39,235.37,84.7,142.38,214,208.83,377.37,215.93,22.39-2,45.07-3.31,67.53-6.29q137.32-18.25,237.91-113.82c73-69.47,119.81-152.65,130.15-254.21,6.73-66.1-.7-130.65-23.64-193.13C1627.88,2368.51,1581.74,2309.72,1521,2261.86Zm-95.13,327.56c-.63,104.46-78,182.82-180.11,182.72-94-.09-177.36-78.33-177.06-181.93.25-87.56,75.63-176.27,179.25-175.64C1347.7,2415.19,1427.69,2500.38,1425.87,2589.42Z" transform="translate(-459.45 -29.2)"/><path class="cls-2" d="M1954.93,417.75C1914.45,279.37,1803.78,173,1662.14,135.61c-111.23-29.37-224.71-42.23-339.31-47-48.34-2-96.73-2.88-145-.08-46.28,2.69-92.59,5.71-138.68,10.55-40.51,4.26-80.78,10.87-121.06,17.13-37.05,5.76-73.58,13.93-109.34,25.56-152.21,49.52-274.9,184-288,361.27-4.31,58.42-8.15,116.83-8.23,175.41q-.35,236.38-.33,472.77.06,733.83.2,1467.66c0,109.89,0,219.76,10.11,329.33,3.79,40.93,7.65,81.86,15.94,122.19,9.67,47.07,24.94,92.14,51.42,132.56,48.07,73.39,110.76,130.61,190.11,169,52.93,25.59,109.38,39.15,166.91,49,50,8.52,100.42,12.91,150.86,17.47,5.88.53,11.83.51,17.74.54,4.61,0,7.42-2.5,8.12-7a77.54,77.54,0,0,0,.84-9.8c.16-5.59-.14-11.2.19-16.77.47-7.91,2.54-9.87,10.21-10.2,3.28-.14,6.58.08,9.86.24,12.81.64,25.62,1.84,38.43,1.89,56.24.23,112.5,1.86,168.71-1.92,12.92-.87,15.2,1.53,15.18,14.18,0,7.24-.15,14.47-.06,21.71.1,7.59,1.88,9.19,9.52,8.93,1.31,0,2.61-.29,3.92-.43,28.45-2.93,57-5.07,85.34-9,43.62-6,87.44-11.41,130.54-20.16,89.67-18.21,168.33-58.57,234.93-122,70.37-67,114.82-147.42,127-244.41,5.28-42.06,9.69-84.28,13-126.54q8.23-105.79,8.2-212,.17-497.45.05-994.89h.26q0-414,0-828.09c0-122.38.69-244.77-7.77-367A461.06,461.06,0,0,0,1954.93,417.75ZM1780.47,2621.94c-8.32,105.26-44.41,199.77-110.18,282.33-78.77,98.87-180.9,160.9-304,188.63-38.93,8.77-78.47,14-118.34,13.6C1002.73,3103.94,834.7,2969,753,2796c-31.05-65.79-45.56-135.58-45.44-235.31,1.41-106.49,47.76-222.2,137.81-320.4C926,2152.4,1025.6,2099,1142.91,2078c47.84-8.55,96-12.18,144.39-8.82C1414,2078,1524.16,2126.14,1617,2212.66c59.28,55.22,105.15,120.08,134.27,196.13C1777.62,2477.55,1786.26,2548.71,1780.47,2621.94Z" transform="translate(-459.45 -29.2)"/><path class="cls-2" d="M1181.06,3412.2h26.05v-.55h-26.06Q1181.06,3411.93,1181.06,3412.2Z" transform="translate(-459.45 -29.2)"/><path d="M2027.19,606c-2.28-44-3.08-88.13-6.89-132-14.7-169.27-121.49-311.52-279.58-374.27-39.89-15.84-81.37-25.93-123.2-34.78a1465.25,1465.25,0,0,0-201.06-28c-34.77-2.44-69.6-4-104.4-6-4.55-.27-9.07-1.11-13.6-1.69H1197.79a97.4,97.4,0,0,1-9.66,1.54c-37.4,2.28-74.94,3.25-112.19,7-49.67,5-99.22,11.52-148.65,18.54-38.37,5.44-76.57,12.26-114.06,22.39C688.34,112.4,591.59,183.57,526,295.65c-29.45,50.32-46.85,104.76-53,162.8-5.09,48.08-8.26,96.28-9.76,144.6-.45,14.46-1.24,28.91-2.06,43.35C461,650,460,653.46,459.45,657V2793c.59,3.86,1.56,7.7,1.72,11.58,1.49,34.82,2.24,69.68,4.37,104.46,2.59,42.31,4.71,84.74,9.83,126.77,11.71,96.26,50.31,181,113.45,254.67,71.78,83.72,161.73,137,269,161.8,54.82,12.69,110.08,22.73,166.1,27.77,46.14,4.15,92.42,6.76,138.64,10.12,3.87.28,7.71,1.12,11.56,1.69h144.11c3.21-.53,6.42-1.41,9.64-1.53,57.53-2.11,114.82-7.25,171.88-14.68,53.11-6.92,106.17-14.34,157.78-29.4q185.7-54.17,290.67-216.65c34-52.93,54.57-111.36,64.85-173.33a1020.75,1020.75,0,0,0,14.17-158c0-4.84,1.12-9.67,1.71-14.5V621.45C2028.33,616.31,2027.46,611.17,2027.19,606Zm-8.67,949.82q0,87.85,0,175.7h-.28q0,10.85,0,21.71,0,394.83,0,789.67c-.07,112.53-.12,225.06-1.25,337.57-.62,61.22-5.49,122.23-17.23,182.48-26.78,137.42-100.15,242.52-219.15,316.18-56.37,34.9-117.07,57.77-182.27,69.45-88.17,15.8-176.88,26.37-266.41,30.17a1875.66,1875.66,0,0,1-206.16-2.1c-42-2.84-84-5.81-125.82-10.53-69.07-7.79-137.27-20.56-202.86-44.29-108.25-39.17-190.21-110.08-249.25-208.37a444.37,444.37,0,0,1-60.55-175.93c-5.08-41.08-7.58-82.51-10.19-123.85-6.81-107.81-3.81-215.77-3.86-323.66q-.37-831.12-.24-1662.25c0-91.14-.14-182.28.6-273.42.5-61.86,4.18-123.6,9.87-185.22,16.37-177.18,138.4-304.58,268.35-357.3C795.58,94.06,841,82.65,887.44,74.49c54.75-9.63,109.72-17.73,165-23.11,81.6-7.94,163.39-12.22,245.39-9C1339,44,1380.06,45.72,1421,49c95.23,7.67,189.74,20.91,281.17,49.38C1848.7,144,1943.49,242.87,1992,387.28c10.19,30.36,14.82,62,17.39,93.87,8.83,109.31,9.19,218.88,9.24,328.44Q2018.8,1182.71,2018.52,1555.83Z" transform="translate(-459.45 -29.2)"/><path d="M1966.41,414.61c-47.55-144.42-142.18-242.21-288.78-286.32-93-28-188.86-40.66-285.5-47.44-37.07-2.6-74.24-4-111.39-5.06a1509.77,1509.77,0,0,0-181.41,5.83c-48.44,4.39-96.75,10.48-145,17-40.7,5.54-81.22,12.53-120.92,23.51-82.65,22.85-155,63-213.57,126.54-56.08,60.86-92.36,131.46-105.49,213.48-6.78,42.3-9.29,85-10.86,127.73q-2.82,76.92-2.82,153.93-.28,827.17-.14,1654.35,0,46.88-.47,93.77c-1.31,151.69-1.22,303.37,11,454.7,3.09,38.3,7.74,76.59,14,114.5,12,73.2,41.59,138.58,89.82,195.66C680.13,3334,760.36,3387,858.26,3413.17c78.18,20.88,157.87,31.69,238.39,37.06,34.79,2.32,69.64,4.6,104.48,4.94,46.69.44,93.48.42,140.08-2.07,48.23-2.58,96.43-7.24,144.39-13.07,40.09-4.88,80.2-11,119.62-19.66,95.48-21,178.22-65.87,246.94-136.17,64.66-66.14,104.59-144.19,117.24-236.07,7.09-51.51,12.62-103.2,15.31-155.08,3-58.47,5.84-117,5.93-175.55q.82-509.33.27-1018.66h.39q0-458,0-916c0-90.82-1.63-181.6-8.11-272.23C1980.88,478.06,1976.63,445.66,1966.41,414.61ZM1207.11,3412.2h-26.05q0-.27,0-.55h26.06Zm75.84,0,0-.53h11l0,.53Zm39.77-1.36c-3.06.17-6.1.8-9.14,1.23l.35-1.95,17.07-.79v1.86A79.69,79.69,0,0,0,1322.73,3410.83Zm657-2528.15q0,414,0,828.09h-.26q0,497.45-.05,994.89,0,106.13-8.2,212c-3.29,42.26-7.7,84.48-13,126.54-12.17,97-56.63,177.37-127,244.41-66.61,63.45-145.26,103.81-234.93,122-43.11,8.75-86.92,14.19-130.54,20.16-28.32,3.88-56.89,6-85.34,9-1.31.13-2.61.38-3.92.43-7.64.25-9.42-1.34-9.52-8.93-.09-7.24.05-14.47.06-21.71,0-12.65-2.26-15.05-15.18-14.18-56.2,3.78-112.47,2.15-168.71,1.92-12.81-.05-25.62-1.26-38.43-1.89-3.28-.16-6.58-.38-9.86-.24-7.68.33-9.74,2.29-10.21,10.2-.33,5.57,0,11.18-.19,16.77a77.54,77.54,0,0,1-.84,9.8c-.7,4.51-3.51,7-8.12,7-5.92,0-11.86,0-17.74-.54-50.43-4.56-100.89-8.94-150.86-17.47-57.53-9.82-114-23.37-166.91-49-79.35-38.37-142-95.58-190.11-169-26.48-40.43-41.75-85.5-51.42-132.56-8.29-40.33-12.15-81.27-15.94-122.19-10.15-109.57-10.12-219.44-10.11-329.33q0-733.83-.2-1467.66,0-236.38.33-472.77c.09-58.58,3.93-117,8.23-175.41,13.07-177.29,135.76-311.75,288-361.27,35.75-11.63,72.28-19.8,109.34-25.56,40.27-6.27,80.55-12.87,121.06-17.13,46.09-4.84,92.4-7.87,138.68-10.55,48.31-2.81,96.7-2,145,.08,114.6,4.81,228.07,17.68,339.31,47,141.63,37.39,252.3,143.75,292.79,282.14a461.06,461.06,0,0,1,17,98C1980.4,637.9,1979.72,760.29,1979.71,882.68Z" transform="translate(-459.45 -29.2)"/><path d="M1617,2212.66c-92.88-86.53-203-134.65-329.73-143.45-48.39-3.36-96.55.28-144.39,8.82C1025.6,2099,926,2152.4,845.42,2240.32c-90.05,98.19-136.41,213.91-137.81,320.4C707.49,2660.45,722,2730.24,753,2796c81.66,173,249.68,307.91,494.89,310.47,39.88.42,79.41-4.84,118.34-13.6,123.11-27.72,225.24-89.76,304-188.63,65.77-82.55,101.86-177.07,110.18-282.33,5.79-73.23-2.85-144.39-29.17-213.15C1722.19,2332.74,1676.31,2267.89,1617,2212.66Zm152.81,409.62c-5.65,105.17-43.8,197.58-111.7,277.67-46.57,54.93-100.14,101.59-164.63,134.78-49.27,25.36-101.55,41.33-156,50.48-36.74,6.17-73.79,8.67-124,9.54-83.21.51-171.45-26.35-251.79-78.45-95.64-62-167-144.77-209.12-251.49-27.12-68.75-38.1-140.31-32-213.78,12.12-145.34,76.72-263.4,189.63-355.09,68.75-55.83,146.75-92.27,234.34-106.71,92.14-15.19,183.48-13.29,272.94,16.64,67.39,22.55,126.64,59.42,180.68,104.87,74,62.23,125.64,139.28,151.32,232.95C1765.54,2502.12,1773.1,2561.68,1769.85,2622.29Z" transform="translate(-459.45 -29.2)"/><path d="M1716.77,2490.55c-16.44-78.7-50.47-148.48-105.48-207.54a560.23,560.23,0,0,0-113.19-93.24c-87.34-54.67-182.35-79.19-285.15-69.29-95.71,9.22-184.08,40.33-263.32,95.29-71.21,49.39-122.1,115.13-153.28,196-23,59.58-33.37,121.54-34.73,192.53.82,10.77,1.68,28.86,3.67,46.81,8.24,74.29,34.95,141.5,80.08,201,58.43,77,133.52,132.84,222.23,170.31,78,32.93,159.16,42,242.69,28.68,61-9.69,118.41-30.19,172.78-59.15,121.66-64.81,201.32-162.7,232.73-298,8.35-36,14-72.38,12.4-109.46A580.2,580.2,0,0,0,1716.77,2490.55Zm-254.3,500.07c-57.13,28.7-117.61,45.09-181.36,49.86-121.49,9.1-231.64-21.8-328.48-95.77-94.5-72.18-152.29-167.48-171.64-285.23-4-24.28-5.9-48.91-8.77-73.37-.71-121.57,43.41-224,128.74-309.41,60.9-61,131.8-105.06,215.3-128.32,197.7-55.07,415.68,25.27,526.83,194.65q59.54,90.73,70.36,198.84C1731.38,2720.38,1643.73,2899.58,1462.46,2990.63Z" transform="translate(-459.45 -29.2)"/><path d="M1632.65,2368.2c-33.85-56.31-79.67-100.92-134.17-137-63.07-41.76-131.75-68.32-207.39-75a438.78,438.78,0,0,0-171.56,18.31c-126.4,39.65-218,121.18-280.83,236.38-21.61,39.66-33.8,82.66-39.06,127.5-4.91,41.81-2.4,83.35,5.31,124.69,14.06,75.36,45.31,142.53,95.36,200.71,110.09,128,288.16,183.81,454.42,143.34,101.07-24.6,182.31-79.69,247.42-159.57,60.2-73.87,90.09-158.78,91.06-254.26-1.93-21.93-3.15-43.94-5.93-65.76C1680,2470.68,1662.21,2417.38,1632.65,2368.2Zm45.69,266.48c-10.34,101.57-57.13,184.74-130.15,254.21q-100.36,95.48-237.91,113.82c-22.45,3-45.14,4.25-67.53,6.29-163.35-7.09-292.67-73.55-377.37-215.93-42.84-72-61.7-151.26-56.39-235.37,3.54-56.07,20.23-108.5,48.58-156.88,54.18-92.46,128.66-162.49,228.95-203,65.18-26.3,133.24-35.73,203.09-30.05,86.8,7.06,163.32,40.41,231.39,94,60.74,47.85,106.88,106.64,133.7,179.68C1677.64,2504,1685.07,2568.58,1678.34,2634.68Z" transform="translate(-459.45 -29.2)"/><path d="M1247.94,2414.58c-103.62-.64-179,88.08-179.25,175.64-.29,103.59,83.07,181.84,177.06,181.93,102.13.1,179.48-78.27,180.11-182.72C1427.69,2500.38,1347.7,2415.19,1247.94,2414.58Zm-.29,352c-96.22.4-174.22-77.49-174-174.77.24-92.25,74-170.53,172.81-171.66,94.85-1.08,173.57,77.09,174.12,171.58C1421.18,2687.73,1343.59,2766.17,1247.65,2766.56Z" transform="translate(-459.45 -29.2)"/><path d="M1289.68,2593.47c-2.36-1.16-4.68-2.39-7-3.66-12.37-6.86-18.47-17.25-17.94-31.51.23-6.23,0-12.48,0-18.72h.14c0-8.21.34-16.45-.1-24.64-.41-7.79-3.18-10.48-10.84-11.47a86.06,86.06,0,0,0-10.83-.38c-14.08,0-14.21.11-14.15,14.39.07,17.42,0,34.84.31,52.26.16,7.94-2.86,13.11-10.29,16a112.26,112.26,0,0,0-13.3,6.4c-42.6,23.65-54,86.66-18.83,123.25,14,14.63,30.53,24.82,50.37,29.24,8.06,1.8,16.44,3,24.23-.61,11-5.1,22.06-10.28,32.44-16.5,12.41-7.43,21.31-18.43,27.11-31.76,7.15-16.44,8.86-33.69,6.05-51.19C1323.39,2621.36,1311.1,2604,1289.68,2593.47Zm-69.29,23.86c-18.09,11.9-26.92,28.29-24.86,50,1.49,15.75,9.56,27.56,22.44,36.45,11.57,8,13.92,16,8.9,30.18-28.4-4.83-55.76-35.42-55.61-73.63.15-38.65,32-67.72,54.83-70.68C1232.67,2600.81,1230.9,2610.42,1220.39,2617.33Zm8.75,83.7c-17.32-5.38-27.57-20.25-27.95-38.3-.39-18.72,9.83-34.47,27.82-41.23C1229.3,2648,1229.13,2673.92,1229.14,2701Zm11.1,39.73c-3.64-1.05-5.65-3.4-6.09-6.91a87.94,87.94,0,0,1-.49-10.8q-.08-100.06-.11-200.12a47.92,47.92,0,0,1,0-4.92,12.3,12.3,0,0,1,1-4.75c4.35-7.59,11.73-3.69,17.84-4.32,4.63-.48,7.39,2.46,8.05,6.92a60.26,60.26,0,0,1,.35,8.85q0,50.28,0,100.56h0q0,47.81,0,95.63c0,1.64,0,3.29,0,4.93C1260.79,2738.93,1253.06,2744.47,1240.24,2740.76Zm27.68-7.39c-6-13-4-20.71,7.26-28.59,21.32-14.87,29.53-38.68,21-61.12-4-10.5-11.06-18.38-20.3-24.69-11.11-7.58-13.46-16.68-8.32-29.76,29.8,4.83,56.24,38.87,55.92,72C1323.18,2695.67,1297.14,2729.48,1267.92,2733.36Zm-1.35-31.33v-80.21c13.92,3.8,24.95,19,26,35.52C1293.88,2677.9,1284.54,2694.31,1266.58,2702Z" transform="translate(-459.45 -29.2)"/><path class="cls-3" transform="translate(-459.45 -29.2)"/></svg>