<svg id="Layer_1" data-name="Layer 1" xmlns="http://www.w3.org/2000/svg" viewBox="0 0 453.79 964.65"><defs><style>.cls-1{fill:none;stroke:#000;stroke-miterlimit:10;stroke-width:2.83px;}.cls-2{fill:#fdfefe;}</style></defs><title>yalenew</title><path class="cls-1" d="M715,587.79c-.6-2.3-1.6-4.4-4.5-4.4-5.4-.1-10.8-.3-16.2-.3q-111.6,0-223.3-.1a10.46,10.46,0,0,1-.6-4.6c0-9.5,0-18.9-.1-28.4,0-1.4.6-2.9-.7-4.1-.1-33.1-.1-66.2-.4-99.3-.5-52.9,1.5-105.8,2.1-158.7.5-42.7.8-85.5,1.7-128.2.2-9.2.6-18.5-.7-27.6-.3-2.5-2.6-4.1-2.5-6.9.1-5-2.4-7.2-7.5-7.3-16.4-.3-32.8.1-49.2.3-22.8.2-45.7-.1-68.5-.1-21.8,0-43.5,0-65.3.1-5.9,0-7.8,2.8-6.1,8.6,1.5.3,1.2-3,3.3-1.6s4.3.9,6.6.9c19.4.3,38.7.7,58.1.9,3.5,0,7.1,2.8,10.8-.4,1-.8,3.5.4,5.3.4,19.1.1,38.2.1,57.3.8,4.2.1,6.8.7,6.9,5.4,0,.1.4.3.9.5-.4-4.7,1.7-6,5.9-4.6,1.1.4,2.4,0,3.5.1,9.9.3,19.8-.6,29.6.7,1.8.2,3.9.8,5.7-.8.8-.8,1.3.1,1.8.7.7.9.5,2.4,1.9,2.8v11.8h-.09a24.19,24.19,0,0,1,1,3,4.58,4.58,0,0,1-1.1,4.56,34,34,0,0,1,1.28,7.77,4.39,4.39,0,0,1-1.37,3.57c2.4,2.82,1.19,8.43-3.63,8.43l-.53,0a4.82,4.82,0,0,1-8.88.18c-6.31,3.26-14.35,2.2-21.6.86v1c0,6.45-10,6.43-10,0V150.87c-2-.08-2.71-.89-2.8-3-.1-2.8-.5-5.6-.8-9.3a21.35,21.35,0,0,0-1.5,9.8c.1,3.8-2.2,4.6-4.9,4.3-6.6-.7-13.1-.3-19.7-.4-15.7-.2-31.3-.2-47-.3-.2-1.2-.3-2.5-.5-3.7,1.8-1.5.1-2.4-.7-3.5-.4,1.2-1.3,2.5.3,3.5-.2,1.2-.4,2.4-.6,3.7l-1,0a5.8,5.8,0,0,1,0,1.11,23.35,23.35,0,0,1,.52,14.89,5.45,5.45,0,0,1-.53,1.21,5.48,5.48,0,0,1-.49,1.83,4.67,4.67,0,0,1-4.53,4.62,5,5,0,0,1-2.27.51A5.41,5.41,0,0,1,338,176a4,4,0,0,1-4,.49,19.58,19.58,0,0,0-3.56-1l-.12.13c-3.62,3.65-9.46,3.26-14.14,2.81l-1.11-.08a4.1,4.1,0,0,1-5.76.59c-.45-.32-.86-.65-1.29-1-2.37-.08-4.74-.14-7.11-.25-4.87-.22-11.09,0-15.48-2.5a14.8,14.8,0,0,1-6.25-7.61,4.6,4.6,0,0,1-2.7-4.31c-.06-5-.57-10-.66-15.06a3.9,3.9,0,0,1-2.51-2.21v5.5c-2.8-3.5.9-6.7-.4-10.4s-.3-8.4-.3-13.2c-4.3,2.8-4.6,6.4-4.6,10.1q.15,44.1.3,88.3c0,1.7-.4,3.4.5,5,.1,24.5.1,49,.2,73.5a2.87,2.87,0,0,0,0,2.7v9.2a1.65,1.65,0,0,0,0,1.9c0,12.2.1,24.5.1,36.7a25.11,25.11,0,0,0-.4,2.7l.3,73.8c0,1-.2,2.1.5,3q.15,78.6.3,157.2a1.66,1.66,0,0,0,0,2.1c0,127.6-.4,255.2.2,382.8a6.07,6.07,0,0,0-.5,1.8c.1,12.6.2,25.3.3,37.9,0,.8-.1,1.6.6,2.2.1,3.9.2,7.7.3,11.6a2,2,0,0,0,.4,2.7c.1.5.2.9.3,1.4a7.08,7.08,0,0,0,1.7,5.9,52.79,52.79,0,0,0,46.7,37.4,565.09,565.09,0,0,0,98.2-1.7c24.8-2.6,43.8-19.3,48.7-43.6a.67.67,0,0,0,.2-1.1,6.75,6.75,0,0,0,.2-1.4,1.51,1.51,0,0,0,.3-2.4c.2-2.6.4-5.3.6-7.9a17.12,17.12,0,0,0,.2-8.7c0-1.8.1-3.6.1-5.4a12.34,12.34,0,0,0,.2-6.6v-2.9a3.19,3.19,0,0,0,0-2.7c.1-4.7.2-9.4.2-14.1.8-1.2.5-2.5.5-3.8v-39c0-1.3.3-2.6-.5-3.8-.1-11.3-.2-22.6-.2-33.9.1-11,.3-22,.2-32.9,0-4.2.5-8.4-.3-12.5v-10a7.45,7.45,0,0,0,0-5.1q.15-47.85.3-95.7a27,27,0,0,0,0-9.4c.1-17.2.1-34.3.2-51.5,1.3-6.7.2-13.4.6-20.1.1-1.2-.7-1.6-1.8-1.1h-1.3a2.42,2.42,0,0,0-2.7.1h-2.9a18.9,18.9,0,0,0-8.2,0H337.37a165,165,0,0,0-26.3.2h-7.9a24.78,24.78,0,0,0-10.5,0c-.9-.7-.4-1.3.2-1.8,8.5-.1,17-.3,25.5-.5,8.1-.2,16.2.4,24.3-.4h4.1a1.2,1.2,0,0,0,1.4,0h8.9c7.2.1,14.4.6,21.5.1,2.6-.2,5.7.3,8-1.7.6,3.3,3.1.8,4.5,1.6a20.47,20.47,0,0,0,7.8,0h18.4a9.91,9.91,0,0,0,5.4,0h6.5a5,5,0,0,0,3.8,0c2.7,0,5.4,0,8.2-.1,1,0,2.3.2,1.9-1.5a4.48,4.48,0,0,0,6.1,0c.1,2.4,2,1.5,3.2,1.5,7.6.1,15.2.1,22.7.1h3.1a1.2,1.2,0,0,0,1.4,0c56.2.1,111.6.1,167.1.1a38.36,38.36,0,0,0,15.1.1c2.8.1,5.6.1,8.4.2,4.5,2.2,9.3,1.9,14.1,1.2,7,.1,13.9.3,20.9.4h4.7c.4.4.7.3,1.1,0,.5-.1,1-.3,1.4-.4,2.4-1.1,2.5-3.6,2.9-5.6a160.31,160.31,0,0,0,3.2-20.6A141.15,141.15,0,0,0,715,587.79Z" transform="translate(-266.65 -116.36)"/><path class="cls-1" d="M694.67,582.79q-111.6-.15-223.3-.1c-1.9.1-1.9-1.4-1.9-2.7,0-11.2,0-22.5.1-33.7,0-.2.3-.4.4-.6-.1-33.1-.1-66.2-.4-99.3-.5-52.9,1.5-105.8,2.1-158.7.4-42.7.8-85.5,1.7-128.2.2-9.2.6-18.4-.7-27.6-.4.5-.8.9-1.5.6v11.8c0,.52,0,1,.05,1.55.17.5.33,1,.47,1.52a4.72,4.72,0,0,1-.3,3.45q.09,2.8.15,5.6a32.61,32.61,0,0,1,.32,3.28,5.05,5.05,0,0,1-.24,1.81q0,2.21,0,4.41a5.8,5.8,0,0,1,0,1.63,206.44,206.44,0,0,1-1.56,25.24c-.1,1.1-.3,2.4-1.6,2.3-1.5-.1-1.3-1.7-1-2.5,1.1-3.3-1.7-5-2.7-7.4-1.4-6.5-5.8-8.3-11.8-7.5-6.48.49-13,.3-19.52.2a5.63,5.63,0,0,1-5.23,0c-1.08,0-2.17,0-3.25,0-2.5.1-2.1-1.8-2.1-3.3-.2-6.8.5-13.6-.3-20.4-.4.1-.8.1-.8.2-1.3,5.9-1.3,6-7.4,5.8-19.6-.5-39.3-.8-59-.7-6.1,0-6.8-1-5.8-7.4-.2-1.2-.3-2.5-.5-3.7l-.2.2-.2-.2c-.2,1.3-.4,2.5-.6,3.7a4.25,4.25,0,0,1,.4,3.1c-.06,1,0,2.19-.54,2.88a22.88,22.88,0,0,1-.33,8.37,6.35,6.35,0,0,1,.18,1.65c0,9.2.1,9.3-9.1,9.2l-10.23-.14c-3.56,2-8.29,1.72-12.22,1.35l-1.11-.08a4.09,4.09,0,0,1-5.76.59c-.45-.32-.87-.65-1.29-1-2.37-.08-4.73-.14-7.1-.25-4.22-.19-9.47-.08-13.64-1.65l-1.64,0c-4.1-.1-6.9,1.3-7.8,5.5a7.84,7.84,0,0,1-1.4,5.9c-2.1,3.1-1.6,6.8-1.9,10.6-4.4-1.4-2.8-5.5-3.8-8.6-1.4,2.1-.9,3.8-.9,5.4-.1,11.1,0,22.1,0,33.2,0,1.2.3,2.4-.5,3.5.1,24.5.1,49,.2,73.5a2,2,0,0,1,0,2.7V317a1.23,1.23,0,0,1,0,1.9c0,12.2.1,24.5.1,36.7.9.9.7,2,.7,3,.1,24.6.2,49.3.3,73.9,0,.9.3,1.9-.5,2.6q.15,78.6.3,157.2c.9.7,1,1.4,0,2.1,0,127.6-.4,255.2.2,382.8.9,1.4.5,3.1.5,4.6.2,11.1.3,22.1.4,33.2,0,1.4.5,2.9-.5,4.2.1,3.9.2,7.7.3,11.6a1.84,1.84,0,0,1,.4,2.7c.1.5.2.9.3,1.4a10.18,10.18,0,0,1,1.7,5.9,52.79,52.79,0,0,0,46.7,37.4,555.38,555.38,0,0,0,98.2-1.7c24.7-2.6,43.8-19.3,48.7-43.6a.72.72,0,0,1,.2-1.1,6.75,6.75,0,0,1,.2-1.4,1.57,1.57,0,0,1,.3-2.4c.2-2.6.4-5.3.6-7.9a14.37,14.37,0,0,1,.2-8.7c0-1.8.1-3.6.1-5.4a10,10,0,0,1,.2-6.6v-2.9a2,2,0,0,1,0-2.7c0-4.7.1-9.4.2-14.1-.8-1.6-.4-3.3-.4-5v-37.4c0-1.4-.4-2.9.4-4.2,0-11.3-.1-22.6-.2-33.9-.9-2.7-.5-5.5-.5-8.2-.1-11.2,0-22.5,0-33.8,0-1.2-.3-2.4.4-3.5v-10a6.46,6.46,0,0,1,0-5.1l.3-95.7c-2.1-3.1-2.1-6.3.5-9.5.1-17.2.1-34.3.2-51.5-1.5-5.6-.3-11.3-.7-17-.1-1.4.3-2.9-.5-4.2h-1.3c-.9,1.9-1.8,1.9-2.7.1H462c-2.7,2.1-5.5,2-8.2,0H338.47c-.5,1-1.5.8-2.4.8h-20.9c-1,0-2.1.3-2.9-.7h-7.9a17.89,17.89,0,0,1-10.5,0c-.9-.7-.4-1.3.2-1.8-3.5-2.8-2.2,1.4-3.1,2.4-2-1.2-1.9-3.1-2.3-4.6-5.1-19.2-5.2-38.7-2.2-58.3a40.61,40.61,0,0,1,2.4-10.3c.4-1-.5-3.3,1.6-2.9,1.8.3,1.6,2.1,1.3,3.6,1.4,2,3-.3,4.5.1a.92.92,0,0,1-.1-1.2c-1-.3-2.8.5-2.9-1.1,0-2,1.9-1.9,3.3-1.9,12.7-.2,25.5-.3,38.3-.3q181.8.15,363.5-.1c4-1.4,8.5.4,12.5-1.4C705.47,583,700.07,582.79,694.67,582.79Zm-339.8,492c-7.6,1.1-15.2,0-22.8-.4-3.1-.2-6.2-.4-9.4-.5-2.1,0-2.2-.9-1.2-2.4-.6-2-.4-3.2,2.3-3,10,1,20.1,1.2,30.2,1.3,1.5,0,3.2-.2,3.3,1.9C357.37,1073.29,357.27,1075,354.87,1074.79Zm24.4-1.4c-1.5-.1-3.4,0-3.4-1.9s1.8-2.8,3.6-2.8c1.6,0,3.2.2,3.1,2.5S380.57,1073.19,379.27,1073.39Zm1.1-11.2c-1.9.2-2.8-.4-2.9-2.5-.1-2.4,1-3.1,3.2-3.1,1.3.2,3,.1,3.1,2.4S382.47,1062.09,380.37,1062.19Zm13.6,9.2c-.2,1.8-2.3,1.7-3.8,1.7-1.2,0-2.5-.2-2.5-1.7.1-2.2,1.9-1.6,3.3-1.7C392.07,1070.09,394.37,1069.09,394,1071.39Zm22.3,1.5c-4.4.2-8.9.5-13.3.8-1.9.4-2.2-.6-2.2-2.2,0-1.4.4-2.3,1.9-2.4l13.4-.9c2-.1,2.1,1,1.8,2.5C418.57,1072.39,417.77,1072.79,416.27,1072.89Zm-2.2-19.2a746.6,746.6,0,0,1-88.5.3c-4.7-.3-9.5-.6-13.7-3.4,39.4,3.4,78.8,2.6,118.6-1C425.17,1052.89,419.57,1053.39,414.07,1053.69Zm-65.7-247.9a23.55,23.55,0,1,1,47.1.1,23.73,23.73,0,0,1-24,23.6C358.77,829.39,348.37,818.69,348.37,805.79Zm-36.6-55.9c8.1-.2,16.3-.3,24.4-.5a.66.66,0,0,1,1.1.1,2.09,2.09,0,0,1,.6.4c6.7.9,13.5.5,20.2.6.4,2.2-2.3,1.8-2,3.4,1.3-.1,2.5-.1,3.8-.2.2-1.3.9-1.5,2-.9,3.6-1.8,7.5-1.5,11.3-.8,3.5-2.4,7.4-1.9,11.3-1.9a100.6,100.6,0,0,0,14.5-.7c9.4-.1,18.9-.3,28.3-.5,1.4,0,2.7,0,2.7,1.9,0,2.3.8,4.8-1.9,6.3-19.2,0-38.4,0-57.6.1-8.6,0-17.3.2-26,.3a3.63,3.63,0,0,1-3.5.1c-8.6.3-17.2-.5-25.7.8-2.6.9-3.1-.9-3.5-2.7-.4-1.4-1-2.7-.7-4.1a1.35,1.35,0,0,1,0-.9C310.87,750.09,311.17,749.79,311.77,749.89Zm42.9-585c10.5,0,21.1-.3,31.6.2,9.7.4,19.5.4,29.2.5,5.4,0,6.2,1,4.8,6.6,0,2.1-1.6,1.8-2.8,1.8-21.8-.2-43.7-.5-65.5-.8-1.1,0-2.2-.1-2.4-1.5C348.17,165.89,349,164.89,354.67,164.89Zm93.4,397.6h-154v-.8h154Zm-128.4-238.6c0,.9.2,2.4-1.3,2.3s-1.2-1.5-1.2-2.5c-.1-1.5,0-3.1,0-4.7,0-1.9.4-3.9-2.5-3.8a1,1,0,0,1-1.2-1.2c0-.8.7-.9,1.4-1.1,3.5-.8,4.8.2,4.8,3.9V320Q319.67,322.09,319.67,323.89Zm-2.8,38.6c1.7-1.6,3.4-2.4,3.8,1.2.3,2.2.7,4.4,2.5,6.1a49.83,49.83,0,0,1-3.3,5.1.82.82,0,0,1-1.5-.3c-.1-3.8-2.9-2.7-5-2.8-1.3-.1-2.7,0-3.2-1.6s1.1-1.8,1.8-2.6C313.57,365.89,315.17,364.09,316.87,362.49Zm-.3,50c-1.9-.1-5.4,1.4-5.4-1.5,0-2.2,3.6-.7,5.2-1.2,7.4.1,7.5.3,4,6.7-1.1,2.1-2.2,4.2-3.4,6.2-.5.8-1.3,1.5-2.3.7s-.1-1.4.2-2.1c1-2,2.1-4,3.2-5.9S319.17,412.69,316.57,412.49Zm-.1,45.4a7.06,7.06,0,0,1,7.3,7.4c0,4.1-2.8,7.1-6.6,7.1-4.7,0-8.5-3.3-8.4-7.4C308.77,461.09,312.17,458,316.47,457.89Zm53.8-47.5c1.9.2,4.9-1,5.8,1.6a16.27,16.27,0,0,1,.1,10c-.7,2-7.3,2.5-10.8,1.2-3-1.1-2.3-3.3-1.8-5.5a4.51,4.51,0,0,0,.3-1.1C363.57,410.39,363.57,410.39,370.27,410.39Zm-.6-95.3h-.4c-1.4-.4-4.2,1.1-4.1-1.2.1-1.9,2.8-1,4.4-1,2.1-.1,4.6-.8,6.1,1.6,1.8,2.9,0,5.6-3.8,6.7-1.6.5-4.9-.4-4.7,1.9.1,2,3.1.5,4.8.9.4.1.8-.1,1.2,0,1.1.2,2.7-.4,2.8,1.3s-1.3,2.2-2.8,2.1H370c-6,0-6.4-.5-6.1-5.7.1-1.5.5-2.3,2.1-2.7a26.29,26.29,0,0,1,3.9-.6c1.4-.1,3.7.7,3.6-1.7C373.37,314.49,371.07,315.29,369.67,315.09Zm2.4,54.3a26.14,26.14,0,0,0-2.8,0c-3.9.7-5-1-4.9-4.8.2-5.4,4.1-2.5,6.3-3.5,1.7.7,4.9-1,5.1,1.5,0,2.5-3.2.8-4.9,1.3-.4.1-.8-.1-1.2,0-1,.2-2.6-.5-2.6,1,0,1.7,1.7,1.1,2.8,1.2s1.9,0,2.8.1a3.71,3.71,0,0,1,3.7,3.4c.3,2.1.1,4.1-2.4,5.2a16.61,16.61,0,0,1-7.3,1c-1.4-.1-2.5-.6-2.5-2,0-1.6,1.4-1.3,2.4-1.3,2-.1,3.9.2,5.8-.8.6-.3,1.1-.5,1.1-1.3S372.67,369.39,372.07,369.39Zm4.6,95.8c-.1,5.9-.8,6.7-6.5,6.7s-6.2-.7-6.2-7.7c.1-5.4.8-6,6.7-6C376.17,458.19,376.67,458.89,376.67,465.19ZM424.27,321c-1.6.4-3.2,1.5-4.7-.2-.4-.5-1.2-.8-.7-1.6a1.78,1.78,0,0,1,1.3-.6,36.19,36.19,0,0,0,4.7-.2c.8-.1,2.3-.3,2.1-1.7-.1-.9-1.2-1.4-2.2-1.3-1.6.1-3.1.1-4.7.2-1,0-2-.4-2.1-1.4-.2-1.4,1.1-1.2,1.9-1.3a26.14,26.14,0,0,1,2.8,0c7,.1,7,.1,7,7,.1,6.3-2.7,8.6-9,7.5-1.2-.3-2.9-.6-2.7-2.2s2.5-1.9,3-1.6c1.3.7,2.5-.1,3.7.3.8.3,2.3-.4,2.3-1.4C427,321,425.47,320.69,424.27,321Zm-4.7,41.1c3-1.3,6.4-.7,9.7-.4.5,0,.8.6.6,1.2a1.54,1.54,0,0,1-1.6.9c-2,.1-3.9,0-5.9.1-.9,0-2,0-1.9,1.3,0,1,1,.9,1.8.9,1.3,0,2.6.1,3.9,0,3.1-.2,4.6,1.2,4.6,4.4s-1.7,4.4-4.7,4.4h-1.2c-6.8,0-7.1-.2-7.1-7.3C418.07,365.79,416.67,362.89,419.57,362.09Zm6,56.4c-1.1-.1-2.3,0-3.5,0-3,.1-4.3-1.3-4.3-4.3s1.3-4.4,4.2-4.4h2c6.1,0,6.7.6,6.7,7-.4,1.8,1,4.7-1.4,5.7-3.2,1.4-6.7,1-10.1.6a.8.8,0,0,1-.8-1.1,1.44,1.44,0,0,1,1.1-.9c2-.1,3.9-.1,5.9-.2,1.1-.1,2.7.3,2.7-1.4C428.07,418,426.47,418.59,425.57,418.49Zm-6.6,44.2c-.6-.4-1.7-.8-1.1-1.6.8-1.1,2.3-1.5,3.2-3.8,1.8,6.5,6.2-1.1,8.5,3,.7,1.2,1.5,1.4-.1,2.4-2,1.3-1.7,2.9-.2,4.4.6.7,2.5,1.6,1,1.9s-1.9,4.1-4.2,1.7c-1.3-1.4-2.7-1.7-3.7-.4-2.4,3.1-3.1-.7-4.1-1.2-1.8-1,.5-1.5,1-2.3C420.17,465.39,420.57,463.79,419,462.69Zm39.2-277.6h-86.6v-1c-28.5,0-57,.1-85.3-.1a19.27,19.27,0,0,1-2.4-.1c-.7-.1-1.3-.5-1.3-1.2a1.24,1.24,0,0,1,1.3-1.2c1.5,0,3.1-.1,4.7-.1,54.6.9,109.1.8,163.7.9,1.9,0,3.9-.1,5.9-.1,1,0,1.8.5,1.7,1.7C459.77,184.89,459,185,458.17,185.09Z" transform="translate(-266.65 -116.36)"/><path class="cls-1" d="M276.31,157.63a3,3,0,0,0-.64,2.36,3.32,3.32,0,0,0,.84,2.42C276.47,160.81,276.4,159.22,276.31,157.63Z" transform="translate(-266.65 -116.36)"/><path class="cls-1" d="M279.27,173.59l4.17.24a16.17,16.17,0,0,1-4.21-6.17,4.6,4.6,0,0,1-2.7-4.31c0-.26,0-.52,0-.78a3.07,3.07,0,0,1-1-2.58,2.75,2.75,0,0,1,.83-2.5c-.17-3.1-.38-6.19-.43-9.3a3.82,3.82,0,0,1-2.31-2.1v5.5c-2.8-3.5.9-6.7-.4-10.4s-.3-8.4-.3-13.2c-4.3,2.8-4.6,6.4-4.6,10.1q.15,44.25.3,88.3c.1,1.6-.3,3.4.5,5,.8-1.1.5-2.3.5-3.5v-33.2c0-1.6-.5-3.3.9-5.4,1,3.2-.6,7.3,3.8,8.6.3-3.8-.2-7.5,1.9-10.6a7.43,7.43,0,0,0,1.4-5.9c-1.8,1.1-3,1.1-3.6-1.4a10.28,10.28,0,0,1,.6-5.8C275.47,171.39,277.77,173.49,279.27,173.59Z" transform="translate(-266.65 -116.36)"/><path class="cls-1" d="M347.19,168a5.45,5.45,0,0,1-.53,1.21,5.49,5.49,0,0,1-.49,1.83,4.67,4.67,0,0,1-4.53,4.62,5,5,0,0,1-2.27.51A5.41,5.41,0,0,1,338,176a4,4,0,0,1-4,.49,19.58,19.58,0,0,0-3.56-1l-.12.13a9,9,0,0,1-1.93,1.46l10,.14c9.2,0,9.1,0,9.1-9.2a7.86,7.86,0,0,0-.08-1.24C347.39,167.24,347.31,167.63,347.19,168Z" transform="translate(-266.65 -116.36)"/><path class="cls-1" d="M472.27,132c-.4.5-.8.9-1.5.6-1.4-.4-1.2-1.9-1.9-2.8-.5-.6-1-1.5-1.8-.7-1.7,1.6-3.8,1-5.7.8-9.9-1.2-19.7-.3-29.6-.7-1.2,0-2.5.3-3.5-.1-4.2-1.4-6.3-.1-5.9,4.6-.5-.3-.9-.4-.9-.5-.1-4.7-2.7-5.2-6.9-5.4-19.1-.6-38.2-.6-57.3-.8-1.8,0-4.4-1.2-5.3-.4-3.7,3.1-7.2.4-10.8.4-19.4-.2-38.7-.6-58.1-.9-2.2,0-4.6.4-6.6-.9s-1.8,1.9-3.3,1.6c-1.8-5.8.2-8.6,6.1-8.6,21.8,0,43.5-.1,65.3-.1,22.8,0,45.7.3,68.5.1,16.4-.2,32.8-.6,49.2-.3,5.1.1,7.6,2.3,7.5,7.3C469.77,128,472.07,129.59,472.27,132Z" transform="translate(-266.65 -116.36)"/><path class="cls-1" d="M470.59,151.92c.23.81.43,1.63.6,2.46,0-1-.07-2-.1-3.06A4.72,4.72,0,0,1,470.59,151.92Z" transform="translate(-266.65 -116.36)"/><path class="cls-1" d="M425.87,173.69V165c-1.53-.15-2.58-.73-2.5-2.85a2.32,2.32,0,0,1,2.5-2.56v-8.56c-2-.1-2.61-.92-2.7-3-.1-2.8-.5-5.6-.8-9.3a21.35,21.35,0,0,0-1.5,9.8c.2,3.8-2.2,4.6-4.9,4.3-6.6-.8-13.1-.3-19.7-.4-15.7-.2-31.3-.2-47-.3-.9,6.5-.2,7.4,5.8,7.4,19.7-.1,39.3.1,59,.7,6.1.1,6.1,0,7.4-5.8,0-.1.4-.1.8-.2.8,6.8.1,13.6.3,20.4,0,1.5-.4,3.3,2.1,3.3,1.27,0,2.55,0,3.82,0A4.53,4.53,0,0,1,425.87,173.69Z" transform="translate(-266.65 -116.36)"/><path class="cls-1" d="M466.87,171.69l-.53,0a4.82,4.82,0,0,1-8.88.18c-6.31,3.26-14.35,2.2-21.6.86v1a4.54,4.54,0,0,1-2.75,4.37,187.19,187.19,0,0,0,19.55-.27c.2-.4.4-1.3.6-1.3,4.5-.3,9-.9,13.5-.6,2.3.2,1.9,3.1,1.8,5-.2,2.5-.9,4.7-4.1,4.5,1,2.4,3.8,4.1,2.7,7.4-.2.8-.5,2.4,1,2.5,1.3.1,1.5-1.3,1.6-2.3a204.06,204.06,0,0,0,1.56-24.28A4.54,4.54,0,0,1,466.87,171.69Z" transform="translate(-266.65 -116.36)"/><path class="cls-1" d="M480.37,658.29c.4-3.1,2.8-1.7,4.3-1.7,29.5-.1,59,0,88.5-.1,34.5,0,69-.2,103.6-.1,5.4,0,10-2.6,15.3-2.9,6.4-.3,12.9.4,19.3-1,2.1-.4,1.7,1.1,1.1,2.2a4.74,4.74,0,0,0,0,5c-.5.1-1,.3-1.4.4a.65.65,0,0,0-1.1,0h-3.6c-.4-.5-.7-.5-1.1,0-7-.1-13.9-.3-20.9-.4a23.45,23.45,0,0,0-14.1-1.2c-2.8-.1-5.6-.1-8.4-.2a36.58,36.58,0,0,0-15.1-.1Q563.37,658.34,480.37,658.29Z" transform="translate(-266.65 -116.36)"/><path class="cls-1" d="M269.57,355.59c.9.8.7,1.9.7,3,.1,24.6.2,49.3.3,73.9,0,.9.2,1.9-.5,2.6-.8-.9-.5-2-.5-3l-.3-73.8A12.41,12.41,0,0,1,269.57,355.59Z" transform="translate(-266.65 -116.36)"/><path class="cls-1" d="M469.27,979.59c-.9-1.6-.4-3.4-.4-5v-37.4c0-1.4-.4-2.9.4-4.2.8,1.2.5,2.6.5,3.8v39C469.77,977.09,470.17,978.39,469.27,979.59Z" transform="translate(-266.65 -116.36)"/><path class="cls-1" d="M270.47,977.19c.9,1.5.5,3.1.5,4.6.2,11.1.3,22.1.4,33.2,0,1.4.5,2.9-.5,4.2-.7-.6-.6-1.4-.6-2.2-.1-12.6-.2-25.3-.3-37.9A18,18,0,0,1,270.47,977.19Z" transform="translate(-266.65 -116.36)"/><path class="cls-1" d="M471,583c-2,0-1.9-1.5-1.9-2.7,0-11.2.1-22.5.1-33.7,0-.2.3-.4.4-.6,1.4,1.1.7,2.7.7,4.1.1,9.5.1,18.9.1,28.4C470.47,579.89,470.27,581.49,471,583Z" transform="translate(-266.65 -116.36)"/><path class="cls-1" d="M347.87,152.19l-1.19,0a5.72,5.72,0,0,1,0,.93,25,25,0,0,1,1.24,4.79,7.44,7.44,0,0,0,.36-2.64C348.37,154.19,348.57,153.19,347.87,152.19Z" transform="translate(-266.65 -116.36)"/><path class="cls-1" d="M338.07,660.79c-.6,1-1.6.8-2.4.8h-20.9c-1,0-2.1.3-2.9-.7A190.91,190.91,0,0,1,338.07,660.79Z" transform="translate(-266.65 -116.36)"/><path class="cls-1" d="M469.07,899c-.9-2.7-.5-5.4-.5-8.2-.1-11.3,0-22.6,0-33.8,0-1.2-.3-2.4.4-3.5.9,4.1.3,8.3.3,12.5C469.37,877.09,469.17,888.09,469.07,899Z" transform="translate(-266.65 -116.36)"/><path class="cls-1" d="M469.57,682c-1.4-5.6-.3-11.3-.7-17-.1-1.4.3-2.9-.5-4.2,1.1-.5,1.9-.1,1.8,1.1C469.77,668.59,470.87,675.29,469.57,682Z" transform="translate(-266.65 -116.36)"/><path class="cls-1" d="M399.57,658.29c-.2-1.5.8-1.8,1.9-1.8h14.6c1.1,0,2.1.2,1.9,1.8Z" transform="translate(-266.65 -116.36)"/><path class="cls-1" d="M449.87,656.69c7.9-.1,15.7-.1,23.6-.2,1.2,0,2.5-.1,2.3,1.8-7.6,0-15.2,0-22.7-.1C451.87,658.19,450,659.09,449.87,656.69Z" transform="translate(-266.65 -116.36)"/><path class="cls-1" d="M646.67,658.29a36.59,36.59,0,0,1,15.1.1A35,35,0,0,1,646.67,658.29Z" transform="translate(-266.65 -116.36)"/><path class="cls-1" d="M670.17,658.69c4.8-.8,9.5-.8,14.1,1.2C679.37,660.59,674.67,660.79,670.17,658.69Z" transform="translate(-266.65 -116.36)"/><path class="cls-1" d="M303.87,661a18.75,18.75,0,0,1-10.5,0A26.51,26.51,0,0,1,303.87,661Z" transform="translate(-266.65 -116.36)"/><path class="cls-1" d="M469.37,742.89a7.8,7.8,0,0,1,0-9.4A24.77,24.77,0,0,1,469.37,742.89Z" transform="translate(-266.65 -116.36)"/><path class="cls-1" d="M348.87,658.29c1.7-2.6,7.2-2.6,8.9,0Z" transform="translate(-266.65 -116.36)"/><path class="cls-1" d="M468.47,1020a14.37,14.37,0,0,1,.2-8.7A16.08,16.08,0,0,1,468.47,1020Z" transform="translate(-266.65 -116.36)"/><path class="cls-1" d="M433.67,658.29c-.2-1.9,1.1-1.8,2.3-1.8,2.6,0,5.2.1,7.8.2.3,1.7-1,1.5-1.9,1.5C439.07,658.29,436.37,658.29,433.67,658.29Z" transform="translate(-266.65 -116.36)"/><path class="cls-1" d="M461.57,660.79c-2.7,2.1-5.5,2-8.2,0A18.9,18.9,0,0,1,461.57,660.79Z" transform="translate(-266.65 -116.36)"/><path class="cls-1" d="M423.37,658.29a3.68,3.68,0,0,1,6.5,0Z" transform="translate(-266.65 -116.36)"/><path class="cls-1" d="M348.77,148.49l-.2.2-.2-.2c-1.5-1-.7-2.3-.3-3.5C348.87,146.09,350.57,147,348.77,148.49Z" transform="translate(-266.65 -116.36)"/><path class="cls-1" d="M271.77,1034.79a9.68,9.68,0,0,1,1.7,5.9A7.22,7.22,0,0,1,271.77,1034.79Z" transform="translate(-266.65 -116.36)"/><path class="cls-1" d="M387.27,656.69c1.6.4,4-1.6,4.5,1.6C390.37,657.49,387.87,660,387.27,656.69Z" transform="translate(-266.65 -116.36)"/><path class="cls-1" d="M343.37,658.29c-.2-1.8,1.1-1.7,2.3-1.7s2.1.3,1.9,1.7Z" transform="translate(-266.65 -116.36)"/><path class="cls-1" d="M468.87,1005.89a10,10,0,0,1,.2-6.6A12.34,12.34,0,0,1,468.87,1005.89Z" transform="translate(-266.65 -116.36)"/><path class="cls-1" d="M469.07,843.59a6.46,6.46,0,0,1,0-5.1A8.85,8.85,0,0,1,469.07,843.59Z" transform="translate(-266.65 -116.36)"/><path class="cls-1" d="M467.67,1030.29a1.57,1.57,0,0,1,.3-2.4A1.57,1.57,0,0,1,467.67,1030.29Z" transform="translate(-266.65 -116.36)"/><path class="cls-1" d="M271.17,1030.79a1.84,1.84,0,0,1,.4,2.7A2,2,0,0,1,271.17,1030.79Z" transform="translate(-266.65 -116.36)"/><path class="cls-1" d="M467.07,660.79c-.9,1.9-1.7,1.9-2.7.1A2.42,2.42,0,0,1,467.07,660.79Z" transform="translate(-266.65 -116.36)"/><path class="cls-1" d="M477.17,658.29c-.2-.7-.2-1.4.7-1.5,1.1-.1,1.3.6,1.1,1.5Z" transform="translate(-266.65 -116.36)"/><path class="cls-1" d="M270.37,592.29q1.35,1.05,0,2.1A1.66,1.66,0,0,1,270.37,592.29Z" transform="translate(-266.65 -116.36)"/><path class="cls-1" d="M469.07,996.39a2,2,0,0,1,0-2.7A3.19,3.19,0,0,1,469.07,996.39Z" transform="translate(-266.65 -116.36)"/><path class="cls-1" d="M269.37,305.09a2,2,0,0,1,0,2.7A2.62,2.62,0,0,1,269.37,305.09Z" transform="translate(-266.65 -116.36)"/><path class="cls-1" d="M269.47,316.89a1.23,1.23,0,0,1,0,1.9A1.65,1.65,0,0,1,269.47,316.89Z" transform="translate(-266.65 -116.36)"/><path class="cls-1" d="M467.27,1032.79a.67.67,0,0,1,.2-1.1A.72.72,0,0,1,467.27,1032.79Z" transform="translate(-266.65 -116.36)"/><path class="cls-1" d="M705.07,660.29c.4-.5.8-.5,1.1,0Z" transform="translate(-266.65 -116.36)"/><path class="cls-1" d="M709.77,660.29a.65.65,0,0,1,1.1,0A.71.71,0,0,1,709.77,660.29Z" transform="translate(-266.65 -116.36)"/><path class="cls-1" d="M395.47,805.89a23.67,23.67,0,0,1-24,23.6c-12.7-.1-23.1-10.8-23.1-23.7a23.55,23.55,0,1,1,47.1.1Zm-29.3-4.1c-1-1.7,2.6-3,.3-4.2s-3.9.3-4.9,2.6a23.33,23.33,0,0,1-1.9,2.9c-1-1.6-1.8-3-2.6-4.3a2.91,2.91,0,0,0-4.1-1.2c-1.9,1,.1,2.2.6,3.2,1.8,3.6,4.7,6.7,4,11.2-.2,1.4.5,2.2,2.1,2.2,1.4,0,2.1-.7,2.3-2.2.2-1.8-.4-3.7.6-5.4.7-1.4,1.1-1.8,1.5-1.4,1.7,1.9,3,.7,4.4-.3,1-.7,1.9-.8,2.6.9-1.5.4-3,.8-4.5,1.1-2.2.5-3,1.9-2.8,4.1a3.27,3.27,0,0,0,3.6,3.3c1.5,0,3.2-.6,4.6-.3,3,.7,3.5-.8,3.4-3.2v-4c-.1-4-1.9-5.7-6-5.5C368.17,801.39,367.07,801.69,366.17,801.79Zm13.5,8.3c3.3,4.6,6.8,5.6,10.1,3.1.9-.7,1.9-1.5,1.3-2.6a1.93,1.93,0,0,0-2.8-.3c-1.6,1-3,1.6-4.2-.6,1.1-1.4,2.5-.5,3.7-.7,1.4-.3,3.5.8,4.1-1.3.5-1.9-.6-3.6-2-4.9a5.89,5.89,0,0,0-8.9,1.3,19.22,19.22,0,0,0-1.4,2.9c0-2.1.1-4.3,0-6.4,0-1.4.4-3.2-1.8-3.2s-2,1.7-2,3.1c0,3.3-.1,6.6,0,9.9,0,1.6-.5,3.9,2.1,3.8S379.17,811.79,379.67,810.09Z" transform="translate(-266.65 -116.36)"/><path class="cls-1" d="M698,584.79c.8,2.1,3.3.3,4.7,2.4-4.3.2-8.3.5-12.2.5H428.67q-64.5,0-128.9.1c-1.3,0-2.6.2-3.9.3-1-.3-2.8.6-2.9-1.1-.1-2,1.9-1.8,3.3-1.9,12.8-.3,25.6-.3,38.3-.3Q516.22,584.94,698,584.79Z" transform="translate(-266.65 -116.36)"/><path class="cls-1" d="M362,752.89c3.7-1.9,7.5-1.5,11.3-.8.8,1.8,2.5,2.2,4.2,2.3h28.3c-2.4-1.9-7,.5-6.7-4.9,9.4-.2,18.9-.3,28.3-.5,1.4,0,2.7,0,2.7,1.9-5.8,4.4-12.7,1.4-19.1,3,5.6,1.6,11.7,1.1,17.2,3.2-19.2,0-38.4,0-57.6.1-8.7,0-17.4.2-26,.3a3.63,3.63,0,0,0-3.5.1c-8.6.3-17.2-.5-25.7.8,4-3.8,9.1-3.5,14.1-3.9a56,56,0,0,0-9.1-.4c-3.4.2-6.6.1-9.1-2.5a1.48,1.48,0,0,1-.1-.7,5.72,5.72,0,0,1,.7-.8c8.1-.2,16.3-.3,24.4-.5a.66.66,0,0,0,1.1.1.68.68,0,0,1,.6.4c-.9,5.7,3,4.4,6.2,4.3l8.9-.3h1.5a1.53,1.53,0,0,0,1.6,0c1.3-.1,2.5-.1,3.8-.2C361,754.29,361.67,754.09,362,752.89Zm32.3,2.1c0,.1.1.2.1.3h13.9V755Z" transform="translate(-266.65 -116.36)"/><path class="cls-1" d="M349.57,171.69c-1.3-5.8-.6-6.8,5.1-6.8,10.5,0,21.1-.3,31.6.2,9.7.5,19.5.4,29.2.5,5.4.1,6.1,1.1,4.8,6.6-2.5.1-5,.3-7.5.2Q381.12,172.09,349.57,171.69Z" transform="translate(-266.65 -116.36)"/><path class="cls-1" d="M371.57,184.09h-85.4a19.27,19.27,0,0,1-2.4-.1c-.7-.1-1.3-.5-1.3-1.2a1.24,1.24,0,0,1,1.3-1.2,37.27,37.27,0,0,1,4.7-.1c54.6.9,109.1.8,163.7.9,2,0,4-.1,5.9-.1,1,0,1.8.5,1.7,1.7-.1,1-.9,1.2-1.7,1.2h-86.6A4.1,4.1,0,0,0,371.57,184.09Z" transform="translate(-266.65 -116.36)"/><path class="cls-1" d="M430.47,1049.59c-5.3,3.3-10.9,3.8-16.5,4.1a746.6,746.6,0,0,1-88.5.3c-4.7-.3-9.5-.6-13.7-3.4C351.37,1054,390.77,1053.19,430.47,1049.59Z" transform="translate(-266.65 -116.36)"/><path class="cls-1" d="M448.07,562.49h-154v-.8h154Z" transform="translate(-266.65 -116.36)"/><path class="cls-1" d="M349.57,171.69c21.1.3,42.1.5,63.2.7,2.5,0,5-.1,7.5-.2,0,2.1-1.6,1.8-2.8,1.8-21.8-.2-43.7-.5-65.5-.8C350.87,173.19,349.77,173.09,349.57,171.69Z" transform="translate(-266.65 -116.36)"/><path class="cls-1" d="M317.17,472.39c-4.6,0-8.5-3.3-8.4-7.3s3.4-7.1,7.7-7.1a7,7,0,0,1,7.3,7.4C323.67,469.39,321,472.39,317.17,472.39Zm3-7.4c-.3-1.9-1.4-3.5-3.5-3.5s-3.3,1.5-3.3,3.6,1.1,3.3,3.1,3.3C318.67,468.59,319.77,467.09,320.17,465Z" transform="translate(-266.65 -116.36)"/><path class="cls-1" d="M321.47,1071.59c-.5-2-.4-3.3,2.3-3,10.1.9,20.1,1.1,30.2,1.3,1.4,0,3.1-.2,3.3,1.9.1,1.6-.1,3.3-2.4,3.1-.5-1.8-2-1.7-3.5-1.8Z" transform="translate(-266.65 -116.36)"/><path class="cls-1" d="M430.67,416.79c-.4,1.8,1.1,4.7-1.5,5.8-3.2,1.4-6.7,1-10.1.6-.5-.1-1-.6-.8-1.1s.7-.9,1.1-.9c2-.1,3.9-.1,5.9-.2,1.1-.1,2.8.3,2.7-1.4,0-1.5-1.6-.9-2.5-1a20.44,20.44,0,0,0-3.5,0c-3,.1-4.2-1.4-4.3-4.3s1.3-4.4,4.2-4.4h2C430,409.79,430.67,410.39,430.67,416.79Zm-6.5-.7c1.4-.5,3.8,1.1,4-1.8s-2.3-2.3-3.9-2.2-3.9-.9-4,1.7C420,416.79,422.57,415.79,424.17,416.09Z" transform="translate(-266.65 -116.36)"/><path class="cls-1" d="M370.27,410.39c1.9.2,4.9-.9,5.8,1.7a16.25,16.25,0,0,1,.1,10c-.6,2-7.2,2.5-10.8,1.2-3-1.1-2.4-3.3-1.8-5.5a4.51,4.51,0,0,0,.3-1.1C363.57,410.39,363.57,410.39,370.27,410.39Zm-.2,5.3a26.13,26.13,0,0,0,2.8,0,1.43,1.43,0,0,0,1.4-1.9c-.7-2.2-2.6-1.3-4-1.3s-3.4-.9-4,1.3c-.3,1.1.4,1.8,1.5,1.9Zm.3,5.8c1.4-.5,4,1,3.9-1.8-.1-2.2-2.5-1.5-3.9-1.5s-4-.9-3.9,1.8C366.67,422.39,369.07,421,370.37,421.49Z" transform="translate(-266.65 -116.36)"/><path class="cls-1" d="M399.07,749.49c-.2,5.4,4.3,3,6.7,4.9h-28.3c-1.7,0-3.4-.4-4.2-2.3,3.4-2.5,7.4-1.9,11.3-1.9A100.6,100.6,0,0,0,399.07,749.49Z" transform="translate(-266.65 -116.36)"/><path class="cls-1" d="M370.67,361.09c1.7.7,5-1,5,1.4s-3.2.8-4.9,1.3a4.82,4.82,0,0,1-1.2,0c-1,.1-2.6-.5-2.6,1,0,1.7,1.7,1.1,2.8,1.2.9.1,1.8,0,2.8.1,2.1.2,3.5,1.3,3.7,3.4s.1,4.2-2.4,5.2a16.61,16.61,0,0,1-7.3,1c-1.3-.1-2.5-.5-2.5-2s1.4-1.2,2.4-1.3c1.9-.1,3.9.2,5.8-.8.6-.3,1.2-.5,1.1-1.3s-.7-1-1.4-1a13.1,13.1,0,0,0-2.8,0c-3.9.6-5-1.1-4.9-4.8C364.47,359.19,368.47,362.09,370.67,361.09Z" transform="translate(-266.65 -116.36)"/><path class="cls-1" d="M417.77,367.59c.3-1.8-1-4.7,1.6-5.7,3.1-1.2,6.5-.7,9.7-.4.5,0,.8.6.6,1.2-.2.8-.9.9-1.6.9-2,0-3.9,0-5.9.1-.9,0-2,0-1.9,1.3.1,1.1,1.1.9,1.8.9,1.3,0,2.6.1,3.9,0,3.1-.2,4.6,1.2,4.6,4.4s-1.7,4.5-4.7,4.4h-1.2C418,374.89,417.77,374.69,417.77,367.59Zm6.4,4.9c1.5-.4,4.1.9,4-2.1s-2.7-1.8-4.2-1.8-3.8-1.1-3.8,1.7C420.07,373.39,422.57,372.19,424.17,372.49Z" transform="translate(-266.65 -116.36)"/><path class="cls-1" d="M429.67,319.89c0,6.3-2.7,8.6-9,7.5-1.3-.2-2.9-.6-2.7-2.2s2.6-1.9,3-1.6c1.3.7,2.5-.1,3.7.3.9.3,2.4-.3,2.3-1.4,0-1.5-1.5-1.7-2.7-1.5-1.6.4-3.2,1.5-4.7-.2-.4-.5-1.2-.8-.7-1.6a2,2,0,0,1,1.3-.6,36.18,36.18,0,0,0,4.7-.2c.8-.2,2.4-.4,2.1-1.7-.1-.9-1.2-1.3-2.2-1.3-1.6.1-3.1.1-4.7.2-1,0-2-.4-2.1-1.4-.2-1.4,1.1-1.2,1.9-1.3a26.13,26.13,0,0,1,2.8,0C429.67,312.89,429.67,312.89,429.67,319.89Z" transform="translate(-266.65 -116.36)"/><path class="cls-1" d="M376.67,465.19c0,6-.8,6.7-6.5,6.6s-6.3-.6-6.2-7.7c0-5.4.8-6.1,6.7-6C376.17,458.19,376.67,458.79,376.67,465.19Zm-2.4-.5c.7-3.3-.6-4.3-4-4.4-3.6-.1-4,1.4-4.1,4.5-.1,3.4.8,4.6,4.4,4.6C374.37,469.39,374.77,467.59,374.27,464.69Z" transform="translate(-266.65 -116.36)"/><path class="cls-1" d="M421.07,457.29c1.8,6.5,6.1-1.1,8.5,2.9.8,1.3,1.5,1.5-.1,2.4-2.1,1.2-1.7,2.9-.2,4.4.7.7,2.5,1.6,1,1.9s-1.9,4.2-4.2,1.7c-1.3-1.3-2.6-1.7-3.7-.4-2.4,3.1-3.1-.7-4.1-1.2-1.8-1,.5-1.5,1-2.3.9-1.3,1.3-2.9-.3-4.1-.7-.5-1.7-.8-1.1-1.6C418.67,460,420.27,459.59,421.07,457.29Zm5.1,7.8c0-1.2,0-2.3-1.8-2.3-1.5,0-2.5.3-2.3,2.1.1,1.2,0,2.3,1.7,2.4S426.27,466.69,426.17,465.09Z" transform="translate(-266.65 -116.36)"/><path class="cls-1" d="M370,327.39c-6,0-6.5-.5-6.1-5.6.1-1.5.5-2.3,2.1-2.7a24.42,24.42,0,0,1,3.9-.6c1.4-.1,3.7.7,3.6-1.7-.1-2.2-2.4-1.4-3.8-1.6h-.4c-1.4-.4-4.2,1.1-4.1-1.2.1-1.9,2.8-1,4.4-1,2.1-.1,4.6-.7,6.1,1.6,1.8,2.9-.1,5.6-3.8,6.7-1.6.5-4.9-.3-4.7,1.9.2,1.9,3.2.5,4.8.9a4.82,4.82,0,0,0,1.2,0c1.1.1,2.8-.4,2.8,1.3.1,1.5-1.2,2.1-2.8,2.1C372.17,327.39,371.07,327.39,370,327.39Z" transform="translate(-266.65 -116.36)"/><path class="cls-1" d="M285.48,175.27a12.22,12.22,0,0,1-1.81-1.26l-4.4-.22c-1.5-.1-3.8-2.2-4.7.6-.5,1.8-1.1,3.7-.6,5.8.6,2.4,1.8,2.5,3.6,1.4.9-4.3,3.7-5.6,7.9-5.3l2.45,0A13.89,13.89,0,0,1,285.48,175.27Z" transform="translate(-266.65 -116.36)"/><path class="cls-1" d="M321.47,1071.59c10,.5,19.9,1,29.9,1.4,1.5.1,2.9-.1,3.5,1.8-7.6,1.1-15.2,0-22.8-.3-3.2-.1-6.3-.3-9.4-.5C320.57,1074,320.47,1073.09,321.47,1071.59Z" transform="translate(-266.65 -116.36)"/><path class="cls-1" d="M323.17,369.79c-1.2,1.9-2.1,3.5-3.2,5.1a.82.82,0,0,1-1.5-.3c-.1-3.8-2.9-2.7-5-2.8-1.3,0-2.7,0-3.2-1.6s1.1-1.8,1.8-2.6a59,59,0,0,1,4.9-5.1c1.7-1.6,3.4-2.4,3.8,1.2C321,365.89,321.37,368.09,323.17,369.79Zm-5.1-5c-1.4,1.4-2.8,2.3-3.3,4C318.17,369.59,318.77,368.09,318.07,364.79Z" transform="translate(-266.65 -116.36)"/><path class="cls-1" d="M316.37,409.79c7.4.1,7.5.3,4,6.6-1.1,2.1-2.2,4.2-3.4,6.2-.5.8-1.3,1.5-2.3.7s-.1-1.4.2-2.1c1-2,2.1-4,3.2-5.9s1.1-2.8-1.5-2.9c-1.9-.1-5.4,1.4-5.4-1.5C311.17,408.79,314.77,410.39,316.37,409.79Z" transform="translate(-266.65 -116.36)"/><path class="cls-1" d="M452.67,177.79c.2-.5.4-1.3.6-1.3,4.5-.3,9.1-.9,13.5-.6,2.3.2,1.9,3.1,1.8,5-.2,2.5-.9,4.7-4.1,4.5C463.07,178.79,458.67,177,452.67,177.79Z" transform="translate(-266.65 -116.36)"/><path class="cls-1" d="M356.17,754a1.53,1.53,0,0,1-1.6,0c-.5-.8-1-.7-1.5,0l-8.9.3c-3.2.1-7.1,1.4-6.2-4.3,6.7.9,13.5.5,20.2.6C358.57,752.89,355.87,752.39,356.17,754Z" transform="translate(-266.65 -116.36)"/><path class="cls-1" d="M428.07,757.09c-5.5-2.1-11.5-1.6-17.2-3.2,6.3-1.6,13.3,1.4,19.1-3C430,753.09,430.77,755.69,428.07,757.09Z" transform="translate(-266.65 -116.36)"/><path class="cls-1" d="M403,1073.59c-1.9.5-2.2-.6-2.2-2.2,0-1.4.4-2.3,1.9-2.4l13.4-.9c2-.1,2.2,1,1.8,2.5-4.2.3-8.3.6-12.4,1C404.27,1071.79,403,1072,403,1073.59Z" transform="translate(-266.65 -116.36)"/><path class="cls-1" d="M319.67,320v4c0,1,.2,2.5-1.3,2.3s-1.1-1.5-1.2-2.5v-4.7c0-1.8.4-3.9-2.5-3.8-.7,0-1.3-.4-1.2-1.2s.8-.9,1.4-1.1c3.5-.8,4.8.2,4.8,3.9C319.67,317.89,319.67,319,319.67,320Z" transform="translate(-266.65 -116.36)"/><path class="cls-1" d="M311.07,751.59c2.5,2.6,5.8,2.7,9.1,2.5a46.58,46.58,0,0,1,9.1.4c-5,.4-10.1.1-14.1,3.9-2.6.9-3.1-.9-3.5-2.7C311.47,754.29,310.77,753,311.07,751.59Z" transform="translate(-266.65 -116.36)"/><path class="cls-1" d="M403,1073.59c0-1.7,1.3-1.9,2.4-2,4.1-.4,8.3-.7,12.4-1,.8,1.7-.1,2.1-1.6,2.1C411.87,1073.09,407.37,1073.39,403,1073.59Z" transform="translate(-266.65 -116.36)"/><path class="cls-1" d="M380.67,1056.59c1.4.1,3,0,3.1,2.3.1,2.5-1.3,3.1-3.4,3.2-1.9.1-2.8-.4-2.9-2.5S378.47,1056.69,380.67,1056.59Z" transform="translate(-266.65 -116.36)"/><path class="cls-1" d="M379.27,1073.39c-1.5-.1-3.4,0-3.4-1.9s1.8-2.7,3.6-2.8c1.6,0,3.2.2,3.1,2.5S380.67,1073.19,379.27,1073.39Z" transform="translate(-266.65 -116.36)"/><path class="cls-1" d="M391,1069.69c1.1.4,3.3-.5,3.1,1.6-.2,1.8-2.3,1.7-3.8,1.7-1.2,0-2.6-.2-2.5-1.7C387.77,1069.09,389.67,1069.79,391,1069.69Z" transform="translate(-266.65 -116.36)"/><path class="cls-1" d="M341,757.59a3.63,3.63,0,0,1,3.5-.1A3.63,3.63,0,0,1,341,757.59Z" transform="translate(-266.65 -116.36)"/><path class="cls-1" d="M362,752.89c-.3,1.2-1,1.4-2,.9C360.17,752.49,360.87,752.39,362,752.89Z" transform="translate(-266.65 -116.36)"/><path class="cls-1" d="M311.77,750.09a5.72,5.72,0,0,1-.7.8C310.87,750.29,311.17,750,311.77,750.09Z" transform="translate(-266.65 -116.36)"/><path class="cls-1" d="M337.27,749.69a.66.66,0,0,1-1.1-.1A.66.66,0,0,1,337.27,749.69Z" transform="translate(-266.65 -116.36)"/><path class="cls-1" d="M425.87,159.6c-1.35.11-2.32.68-2.4,2.59-.08,2.07.93,2.68,2.4,2.84Z" transform="translate(-266.65 -116.36)"/><path class="cls-1" d="M366.17,801.79a25.33,25.33,0,0,1,3.2-.4c4.1-.2,5.9,1.5,6,5.5v4c.1,2.4-.4,3.9-3.4,3.2-1.4-.3-3.1.3-4.6.3-2.1,0-3.5-1-3.6-3.3s.6-3.6,2.8-4.1c1.5-.3,3-.7,4.5-1.1-.7-1.7-1.6-1.7-2.6-.9-1.4,1-2.7,2.2-4.4.3-.4-.4-.8.1-1.5,1.4-1,1.8-.4,3.6-.6,5.4a2.24,2.24,0,0,1-2.3,2.2c-1.5,0-2.3-.8-2.1-2.2.7-4.5-2.2-7.7-4-11.2-.5-1-2.4-2.2-.6-3.2a3,3,0,0,1,4.1,1.2c.8,1.4,1.6,2.7,2.6,4.3a23.33,23.33,0,0,0,1.9-2.9c1-2.3,2.7-3.8,4.9-2.6S365.17,800.09,366.17,801.79Zm2.7,9.7c1.1,0,1.8-.4,2-1.5.2-.9-.5-1.1-1.2-1-.9.1-1.9.2-2.1,1.4C367.57,811.19,368.17,811.49,368.87,811.49Z" transform="translate(-266.65 -116.36)"/><path class="cls-1" d="M379.67,810.09c-.6,1.7.6,4-1.9,4.1s-2.1-2.2-2.1-3.8c-.1-3.3,0-6.6,0-9.9,0-1.4-.3-3.2,2-3.1s1.8,1.9,1.8,3.2c.1,2.2,0,4.3,0,6.4a19.22,19.22,0,0,1,1.4-2.9,5.83,5.83,0,0,1,8.9-1.3c1.4,1.3,2.5,3,2,4.9-.5,2.1-2.7,1-4.1,1.3-1.2.3-2.6-.6-3.7.7,1.2,2.1,2.6,1.6,4.2.6.9-.6,2.3-.7,2.8.3s-.4,1.9-1.3,2.6C386.57,815.69,383,814.69,379.67,810.09Z" transform="translate(-266.65 -116.36)"/><path class="cls-1" d="M394.27,755h14v.3h-13.9A1,1,0,0,1,394.27,755Z" transform="translate(-266.65 -116.36)"/><path class="cls-1" d="M353.07,754c.5-.7,1-.8,1.5,0Z" transform="translate(-266.65 -116.36)"/><path class="cls-1" d="M320.17,465c-.4,2.1-1.5,3.6-3.7,3.5a3,3,0,0,1-3.1-3.3c0-2.1,1.2-3.6,3.3-3.6S319.87,463.09,320.17,465Zm-3.5-1.9c-1.2.2-1.9.8-1.8,2a1.82,1.82,0,0,0,2.1,1.8,1.74,1.74,0,0,0,1.8-2A2,2,0,0,0,316.67,463.09Z" transform="translate(-266.65 -116.36)"/><path class="cls-1" d="M424.17,416.09c-1.7-.3-4.2.7-4-2.3.2-2.6,2.5-1.7,4-1.7,1.7-.1,4.1-.8,3.9,2.2S425.57,415.59,424.17,416.09Z" transform="translate(-266.65 -116.36)"/><path class="cls-1" d="M370.07,415.69a19.22,19.22,0,0,1-2.4,0c-1.1-.1-1.8-.8-1.5-1.9.7-2.2,2.6-1.3,4-1.3s3.4-1,4,1.3a1.43,1.43,0,0,1-1.4,1.9Z" transform="translate(-266.65 -116.36)"/><path class="cls-1" d="M370.37,421.49c-1.4-.5-3.7.9-3.9-1.4-.1-2.7,2.5-1.7,3.9-1.8s3.8-.7,3.9,1.5C374.37,422.49,371.77,421,370.37,421.49Z" transform="translate(-266.65 -116.36)"/><path class="cls-1" d="M424.17,372.49c-1.6-.4-4.1.8-4-2.2.1-2.8,2.4-1.7,3.8-1.7s4.1-1.2,4.2,1.8S425.67,372.09,424.17,372.49Z" transform="translate(-266.65 -116.36)"/><path class="cls-1" d="M374.27,464.69c.5,2.9.1,4.7-3.7,4.7-3.6,0-4.4-1.2-4.4-4.6.1-3,.5-4.5,4.1-4.5C373.67,460.49,375.07,461.49,374.27,464.69Z" transform="translate(-266.65 -116.36)"/><path class="cls-1" d="M426.17,465.09c.1,1.7-.8,2.3-2.4,2.2s-1.6-1.2-1.7-2.4c-.1-1.8.8-2.1,2.3-2.1C426.17,462.79,426.27,463.79,426.17,465.09Z" transform="translate(-266.65 -116.36)"/><path class="cls-1" d="M318.07,364.79c.7,3.3.1,4.9-3.3,4C315.27,367.09,316.67,366.19,318.07,364.79Z" transform="translate(-266.65 -116.36)"/><path class="cls-1" d="M368.87,811.49c-.7,0-1.4-.3-1.3-1.1.1-1.2,1.2-1.3,2.1-1.4s1.4.1,1.2,1C370.77,811.09,370,811.49,368.87,811.49Z" transform="translate(-266.65 -116.36)"/><path class="cls-1" d="M316.67,463.09a2,2,0,0,1,2.1,1.8,1.74,1.74,0,0,1-1.8,2,1.93,1.93,0,0,1-2.1-1.8C314.67,463.89,315.47,463.29,316.67,463.09Z" transform="translate(-266.65 -116.36)"/><path class="cls-2" d="M425.87,140.92a8.53,8.53,0,0,0-.9,1.57,4.92,4.92,0,0,0-.6,2.9,8.21,8.21,0,0,0,1.5,4.54Z" transform="translate(-266.65 -116.36)"/><path class="cls-2" d="M435.87,172.69v1a5.32,5.32,0,0,1-.22,1.55,7.21,7.21,0,0,0,4-1.9C438.37,173.14,437.11,172.92,435.87,172.69Z" transform="translate(-266.65 -116.36)"/><path class="cls-2" d="M439.65,173.34a8.56,8.56,0,0,0,4.63.54C442.73,173.76,441.19,173.57,439.65,173.34Z" transform="translate(-266.65 -116.36)"/><path class="cls-2" d="M425.87,169.38v-26.2a6.07,6.07,0,0,0-1.9,5c.35,2.89.68,5.79,1,8.7A19.41,19.41,0,0,0,425.87,169.38Z" transform="translate(-266.65 -116.36)"/><path class="cls-2" d="M457.47,171.84a17.63,17.63,0,0,1-3.36,1.31,7,7,0,0,0,3.91-.32A4.88,4.88,0,0,1,457.47,171.84Z" transform="translate(-266.65 -116.36)"/><path d="M270.07,144.09c.2,11.1.4,22.2.7,33.3.1,3.2,5.1,3.2,5,0-.2-11.1-.4-22.2-.7-33.3-.1-3.2-5.1-3.2-5,0Z" transform="translate(-266.65 -116.36)"/><path d="M346.07,128.09c.1,6.8.2,13.6.2,20.4,0,3.2,5,3.2,5,0-.1-6.8-.2-13.6-.2-20.4-.1-3.2-5.1-3.2-5,0Z" transform="translate(-266.65 -116.36)"/><path d="M350.87,148.49c-.1-3.2-5.1-3.2-5,0,0,.46,0,.91.06,1.37a5.5,5.5,0,0,1,.74,3.27,23.35,23.35,0,0,1,.52,14.88,5.53,5.53,0,0,1-.47,1.11c.44,2.85,5,2.74,4.95-.33C351.37,162,351.07,155.29,350.87,148.49Z" transform="translate(-266.65 -116.36)"/></svg>