<svg id="Layer_1" data-name="Layer 1" xmlns="http://www.w3.org/2000/svg" viewBox="0 0 595.28 841.89"><title>Untitled-30</title><path d="M377.63,409.39c-2.78.11-7.4-1.15-6.6,3.89.3,1.88,3.9,3.24,6.8,5.45,3.14-2.11,7.14-3.5,7.23-5.11C385.33,408.75,380.86,409.26,377.63,409.39Z" style="fill:none"/><path d="M381.24,484.85v-7.26h-6.66C373,485.81,373.33,486.2,381.24,484.85Z" style="fill:none"/><path d="M378.51,125.19V112.38C373.4,116.36,373.63,122.7,378.51,125.19Z" style="fill:none"/><path d="M297.8,474.62c-1.88,3.86-1.57,8.78-2.21,14h15.23c-1.14-5.61-1.06-10.58-3.32-14C306.44,473,298.48,473.22,297.8,474.62Z" style="fill:none"/><path d="M196.9,793.86c17.39,2.53,34.83,5.13,52.35,6.42a713.44,713.44,0,0,0,152.69-5.16c20.45-2.89,29-13.69,28.84-33.38-.59-87.24-.26-174.49-.26-261.74q0-134.26,0-268.53c0-12.49-7.81-20.89-19.82-20.9q-108.83-.11-217.67,0c-9.27,0-16.63,5.56-18.89,14.47a52.28,52.28,0,0,0-1.39,12.72q-.1,261.41-.05,522.81c0,2-.07,4.07.05,6.1C173.68,782,181.93,791.69,196.9,793.86Zm106-302.5c-9.42,0-9.42,0-9.42-10.1,0-9,1-10.11,9.15-10.18,8.67-.07,9.88,1.26,9.87,10.91C312.45,491.21,312.28,491.38,302.87,491.36Zm75.52-3.07c-1.26-.65-3.72,1-6.42,1.88l-3.71-3.31c4.7-3.86,4-7.47.25-10.91l3.86-4.34c4,4.55,6.59,4.56,9.74,0l4.89,3.83c-1.1,2.19-3,4.34-3,6.55,0,1.7,2.16,3.46,3.55,5.47C385.15,489.32,382.28,490.31,378.39,488.3Zm8.75-64.7c-.51,1.23-2.06,2.77-3.21,2.85-4.79.32-9.61.13-15.35.13,5.38-4.5,13.46,1.9,17.45-7.1-4.7,0-8.25-.1-11.79,0-4.72.16-6.24-2.18-6.27-6.66,0-4.69,2.49-5.81,6.4-5.74.68,0,1.35,0,2,0C386.94,406.95,391.3,413.55,387.13,423.59ZM370.28,277.67c5,.76,12.48-.16,14.43,2.69,2.52,3.69,2.57,11.73,0,15.38-2,2.94-9.47,2.14-14.51,3l-.08-2.9c2.84,0,5.77.39,8.51-.14,1.87-.36,3.48-2,5.21-3.09-1.66-1.11-3.19-2.79-5-3.19-2.5-.55-5.22-.14-7.85-.14l-.14-2.06a69.56,69.56,0,0,0,9-.72c1.44-.29,2.64-1.8,4-2.76-1.23-1.08-2.36-2.91-3.71-3.09-3.32-.45-6.75-.15-10.14-.15ZM368.35,346c.58-1.6,3.22-3.22,5.07-3.43,4.36-.5,8.81-.16,14.63-.16-5.84,5.31-14.09-1.58-18.29,7.71,4.53,0,7.81.16,11.06,0,4.44-.27,6.85,1.5,6.9,6.07.05,4.94-2.56,6.85-7.27,6.35a5.61,5.61,0,0,0-.67,0C368.52,362.67,364.38,356.9,368.35,346Zm-64.13,7.07c-3-.51-6.19-.14-9.72-.14V342.83h16.73v2.07c-3.76,0-7.53-.18-11.26.1-1.2.09-2.3,1.39-3.45,2.14,1.19,1,2.24,2.49,3.59,2.81,2.14.52,4.78-.4,6.63.48,2,1,4.72,3.33,4.67,5-.07,2.31-2.09,6-3.93,6.5-4,1-8.5.31-12.79.31l-.07-2.41c3.12,0,6.33.43,9.34-.16,1.82-.35,3.33-2.27,5-3.49C307.37,355.12,305.92,353.38,304.22,353.09Zm-9.86-59a10.25,10.25,0,0,1,3.9-6.4c1.83-1.15,4.88-.18,7.23-.77,1.44-.37,2.59-1.93,3.86-3-1.38-1.19-2.64-3.17-4.17-3.4-3.35-.52-6.83-.16-10.26-.16v-2.07c4.1,0,8.32-.56,12.26.25,1.79.37,4.22,3.44,4.2,5.26s-2.39,4.29-4.34,5.29-4.56-.18-6.61.48c-1.52.49-2.6,2.37-3.88,3.64,1.32.85,2.57,2.29,4,2.44a91.85,91.85,0,0,0,10,.12l-.06,2.27c-3.91,0-7.89.4-11.71-.18C297,297.66,294.17,295.15,294.36,294.12Zm9.31,113c3.52.57,9.13-1.71,8.84,6-.53,13.88-.39,14-10.22,13.81-4-.08-9.14,1.35-9-5.73C293.5,407.07,293.42,407.07,303.67,407.07Zm-84.13,2V407.7h18.31l-10.92,19.48L224.83,426l9.1-16.92Zm5.16-130.59h7.24v19l-1.43.06V281.56l-6.1-1.7Zm8.14,63.3c2.65,5-1.75,11,4.52,13.26l-5,7.41-1.42-5.71H217.6C222.6,350.23,226.27,344.77,232.84,341.83Zm-9.42,136.33-1.59-4.33,1.24-.86,4.78,5.37,5.09-5.5,1,.44-1.5,5.58,6.32.7.6,2.15-7.23,2.19,1.76,5.41-1.41,1.05-4.33-6-5.31,5.55-1-.7,2.37-5.67-6.32-.82-.61-1.66Z" style="fill:none"/><path d="M381.21,23.65h-.75v83.68h.75Z" style="fill:none"/><path d="M295.81,421.43l6.63,4.81,7.3-4.43c-2.23-1.17-4.44-3.22-6.68-3.26C300.66,418.51,298.23,420.39,295.81,421.43Z" style="fill:none"/><path d="M382.19,359.57c1.25-.24,2-3,3-4.61-1.46-.83-2.85-2.21-4.38-2.38a87.6,87.6,0,0,0-9.91-.11v7.33C375.13,359.8,378.76,360.22,382.19,359.57Z" style="fill:none"/><path d="M309.74,412.34c-2.34-1-4.69-2.88-7-2.85s-4.67,1.91-7,3l7.13,4.54Z" style="fill:none"/><path d="M378.53,17.36H266.46V103H378.53Z" style="fill:none"/><path d="M448.35,138.38c3.93-4.22,4.58-111.25,0-118.64Z" style="fill:none"/><path d="M446.79,34.78c0-17.94,0-17.94-18-17.94H383.35V125.23c15.75,0,31.05,0,46.36,0,11.07,0,13.31,1.93,15,12.36.19,1.17.6,2.31.91,3.46l1.13-.18q0-3.63,0-7.26Q446.79,84.2,446.79,34.78Z" style="fill:none"/><path d="M443.48,139.49c-.77-9.11-3.5-11-12.62-11.66-1.57-.12-3.16,0-4.75,0H268.8q-46.45,0-92.9,0c-11.71,0-14.19,1.49-15.27,13-1.52,16.12-2.5,32.36-2.5,48.55q0,285.8.48,571.61a99.39,99.39,0,0,0,.68,11.49c2.21,18.77,15.66,33.85,34.06,36,25.5,3,51.1,6,76.73,6.77,30,.89,60,.11,90-1.37,18.62-.92,37.22-3.86,55.62-7.06,18.09-3.15,29.47-20,29.47-41.51q0-154.27,0-308.54h0q0-138.67-.07-277.34C445.1,166.1,444.6,152.75,443.48,139.49ZM162.94,769.91c0-47.64.33-95.29.35-142.93q.09-217.53,0-435.05c0-4.68,0-9.36-.07-14,.43,4,1.25,8,1.25,12q.09,287.13.09,574.27c0,4.48.52,9,.79,13.43C164.53,775,162.94,772.48,162.94,769.91Zm7.17-1.7c-.06-1.13,0-2.26,0-3.39q0-265.08.19-530.16a40.64,40.64,0,0,1,4.77-17.8c3.27-6.35,9.78-9.09,17.08-9.09q109.82,0,219.65,0a21.7,21.7,0,0,1,21.53,21.47q0,135.25,0,270.49h-.23q0,130.84-.1,261.69c0,6.4-.43,13.17-2.53,19.11-3.33,9.44-11.26,14.46-21,16a644.05,644.05,0,0,1-151.81,6.79c-20.66-1.55-41.26-4.1-61.82-6.71C180.51,794.7,171,783.67,170.11,768.22ZM325,812.65l-33.19-1.2q-16.55-.25-33.07-1.3-17.23-.74-34.45-1.67a195.33,195.33,0,0,1-34.62-5.41c-3.45-.83-6.56-3.11-9.65-5.42a36.59,36.59,0,0,1-4.6-3.27c1.56,1,3.08,2.13,4.6,3.27,10.82,6.51,23.5,6.63,35.66,8.26q21.5,2.87,43.07,4.23,16.53.71,33.07,1.3,20.24.31,40.52-.49a19.23,19.23,0,0,1,3.34.44C332.1,811.85,328.52,812.78,325,812.65Zm30.76-1.82c4.86-.9,9.7-2.06,14.6-2.66,11-1.34,22.1-2.41,33.15-3.59-8.54,1.38-17,2.95-25.61,4.09C370.54,809.65,363.13,810.13,355.75,810.83Zm52.78-6.21c-1.78.18-3.59.08-5.39.1,2.52-.62,5-1.32,7.57-1.85,15.69-3.28,24.41-13.77,29.29-28.24C439.29,789.47,425.16,802.95,408.53,804.62ZM441.25,766c0,3-.9,6-1.39,8.93q0-303.67,0-607.35c0-8.8-.72-17.61-.63-26.4.07-6.84-3.48-8.1-9.4-8.08-51.52.14-103,.08-154.55.08H175c-9.41,0-10.15.88-10.42,10.5-.32,11.5-.86,23-1.31,34.5,0-13.73-.17-27.47.28-41.18.17-5.16,4.78-5,8.77-5q54.92,0,109.85,0h148.5c9,0,9.73.64,9.89,9.58.31,17.39.7,34.78.7,52.17Q441.35,479.89,441.25,766Z" style="fill:none"/><path d="M273.37,124.89h98.5v-8.75h-98.5Z" style="fill:none"/><path d="M371.78,112.36H273.45v1.4h98.35Z" style="fill:none"/><path d="M264.52,25.07h-.65V96.62l.65-.24Z" style="fill:none"/><path d="M152.51,26.2q-.23,53.46-.07,106.91c0,2.19,1.44,4.37,2.2,6.56l1.67-.52V20.23l-1.8-.39C153.81,22,152.51,24.08,152.51,26.2Z" style="fill:none"/><path d="M176.67,125.23H262v-108H158.11v124.4C160.81,126.48,162.4,125.23,176.67,125.23ZM250.87,61c4.35,3.82,4.37,22.59,0,26.61Z" style="fill:none"/><path d="M378.21,110.08l1-2.49c-2.14-.5-4.28-1.43-6.42-1.43q-50.15-.14-100.3,0c-2,0-3.94.2-5.92.31l-.54,2.26c1.75.46,3.5,1.33,5.25,1.33Q324.73,110.14,378.21,110.08Z" style="fill:none"/><path d="M266.85,125.37c5-3.46,5-9.7,0-12.55Z" style="fill:none"/><path d="M453.69,26.69C453.68,17.77,450,14,441.21,14H161.88c-7.73,0-12.09,4.22-12.11,11.87q-.15,54.24-.15,108.47c0,1.87.37,4.65,1.59,5.44,4.49,2.93,4,7.13,4,11.41q0,153.22,0,306.44h.52q0,67.78,0,135.56,0,86.1.06,172.2c0,25.84,14.89,43.86,40.29,46.86,27.08,3.21,54.31,5.45,81.54,7,38.16,2.14,76.22-.48,114.09-5.35,10.22-1.31,20.53-2.78,30.41-5.58C437.51,804,448,787.13,448,768.64q0-290.51,0-581c0-12.66-.11-25.31.11-38,0-2.49,1.34-5,2.13-7.45,1.12-3.49,3.27-7,3.3-10.43C453.79,96.75,453.69,61.72,453.69,26.69Zm-73.22-3h.75v83.68h-.75Zm-114-6.29H378.53V103H266.46Zm.08,89.06c2-.11,3.94-.31,5.92-.31q50.15,0,100.3,0c2.14,0,4.28.93,6.42,1.43l-1,2.49q-53.48,0-107-.06c-1.75,0-3.5-.87-5.25-1.33Zm112,6v12.81C373.63,122.7,373.4,116.36,378.51,112.38Zm-6.64,3.75v8.75h-98.5v-8.75Zm-98.42-3.78h98.33l0,1.4H273.46Zm-6.6,13V112.82C271.87,115.67,271.9,121.91,266.85,125.37Zm-3-100.29h.65v71.3l-.65.24ZM156.3,139.15l-1.67.52c-.77-2.19-2.2-4.37-2.2-6.56q-.17-53.46.07-106.91c0-2.12,1.31-4.24,2-6.36l1.8.39Zm1.81-121.91H262v108H176.67c-14.28,0-15.86,1.26-18.56,16.42ZM445.18,456.76h0q0,154.27,0,308.54c0,21.52-11.38,38.36-29.47,41.51-18.4,3.21-37,6.14-55.62,7.06-30,1.48-60,2.26-90,1.37-25.63-.76-51.23-3.75-76.73-6.77-18.4-2.18-31.85-17.26-34.06-36A99.39,99.39,0,0,1,158.6,761q-.33-285.8-.48-571.61c0-16.19,1-32.43,2.5-48.55,1.08-11.49,3.56-13,15.27-13q46.45-.08,92.9,0H426.12c1.58,0,3.17-.09,4.75,0,9.12.68,11.86,2.55,12.62,11.66,1.12,13.26,1.61,26.62,1.63,39.93Q445.31,318.09,445.18,456.76Zm.48-315.71c-.31-1.15-.72-2.29-.91-3.46-1.74-10.43-4-12.33-15-12.36-15.31,0-30.61,0-46.36,0V16.84h45.44c18,0,18,0,18,17.94q0,49.42,0,98.83,0,3.63,0,7.26Zm2.68-2.68V19.73C452.93,27.12,452.28,134.15,448.35,138.38Z"/><path d="M250.87,61V87.62C255.24,83.6,255.22,64.83,250.87,61Z"/><path d="M440.57,141.57c-.16-8.94-.92-9.58-9.89-9.58H282.18q-54.92,0-109.85,0c-4,0-8.6-.12-8.77,5-.45,13.72-.24,27.45-.28,41.18.45-11.5,1-23,1.31-34.5.26-9.61,1-10.49,10.42-10.5H275.33c51.52,0,103,.06,154.55-.08,5.92,0,9.47,1.24,9.4,8.08-.09,8.8.63,17.6.63,26.4q0,303.67,0,607.35c.48-3,1.38-6,1.39-8.93q.1-286.15,0-572.29C441.27,176.36,440.88,159,440.57,141.57Z"/><path d="M164.49,189.91c0-4-.81-8-1.25-12,0,4.68.07,9.36.07,14q0,217.53,0,435.05c0,47.64-.34,95.29-.35,142.93,0,2.56,1.58,5.13,2.43,7.69-.28-4.48-.79-9-.79-13.43Q164.52,477,164.49,189.91Z"/><path d="M291.8,811.46q-16.54-.61-33.07-1.3Q275.24,811.22,291.8,811.46Z"/><path d="M180,797.67c3.1,2.31,6.2,4.59,9.65,5.42a195.33,195.33,0,0,0,34.62,5.41q17.22,1,34.45,1.67-21.57-1.38-43.07-4.23C203.51,804.3,190.83,804.17,180,797.67Z"/><path d="M180,797.67c-1.52-1.14-3-2.28-4.6-3.27A36.59,36.59,0,0,0,180,797.67Z"/><path d="M291.8,811.46l33.19,1.2c3.54.13,7.12-.81,10.68-1.25a19.23,19.23,0,0,0-3.34-.44Q312,811.76,291.8,811.46Z"/><path d="M410.72,802.88c-2.54.53-5,1.23-7.57,1.85,1.8,0,3.6.07,5.39-.1,16.63-1.67,30.76-15.16,31.47-30C435.12,789.11,426.41,799.6,410.72,802.88Z"/><path d="M370.35,808.17c-4.9.6-9.73,1.75-14.6,2.66,7.38-.7,14.79-1.18,22.13-2.16,8.57-1.14,17.08-2.71,25.61-4.09C392.44,805.76,381.38,806.83,370.35,808.17Z"/><path d="M195.82,796.64c20.56,2.61,41.16,5.16,61.82,6.71a644.05,644.05,0,0,0,151.81-6.79c9.76-1.58,17.69-6.61,21-16,2.09-5.94,2.51-12.71,2.53-19.11q.23-130.84.1-261.69h.23q0-135.25,0-270.49a21.7,21.7,0,0,0-21.53-21.47q-109.82,0-219.65,0c-7.3,0-13.81,2.74-17.08,9.09a40.64,40.64,0,0,0-4.77,17.8q-.36,265.08-.19,530.16c0,1.13-.06,2.26,0,3.39C171,783.67,180.51,794.7,195.82,796.64Zm-23.13-36.08q0-261.41.05-522.81A52.28,52.28,0,0,1,174.13,225c2.26-8.91,9.61-14.47,18.89-14.47q108.83-.07,217.67,0c12,0,19.82,8.41,19.82,20.9q0,134.26,0,268.53c0,87.25-.33,174.5.26,261.74.13,19.69-8.39,30.49-28.84,33.38a713.44,713.44,0,0,1-152.69,5.16c-17.51-1.29-35-3.89-52.35-6.42-15-2.18-23.21-11.86-24.16-27.2C172.61,764.63,172.69,762.59,172.69,760.56Z"/><path d="M302.28,426.93c9.83.19,9.69.07,10.22-13.81.3-7.75-5.31-5.47-8.84-6-10.25,0-10.17,0-10.41,14.12C293.14,428.28,298.3,426.85,302.28,426.93Zm.16-.69-6.63-4.81c2.42-1,4.84-2.91,7.25-2.88,2.24,0,4.45,2.09,6.68,3.26Zm.29-16.75c2.33,0,4.67,1.83,7,2.85L302.86,417l-7.13-4.54C298.06,411.4,300.38,409.51,302.73,409.49Z"/><path d="M379.77,362.51a5.61,5.61,0,0,1,.67,0c4.71.51,7.33-1.41,7.27-6.35-.05-4.57-2.47-6.34-6.9-6.07-3.25.2-6.52,0-11.06,0,4.2-9.29,12.45-2.4,18.29-7.71-5.82,0-10.27-.34-14.63.16-1.85.21-4.48,1.84-5.07,3.43C364.38,356.9,368.52,362.67,379.77,362.51Zm-8.84-10a87.6,87.6,0,0,1,9.91.11c1.53.18,2.93,1.55,4.38,2.38-1,1.61-1.78,4.37-3,4.61-3.43.64-7.06.22-11.27.22Z"/><path d="M376.39,407.07c-.68,0-1.35,0-2,0-3.91-.07-6.43,1.05-6.4,5.74,0,4.48,1.55,6.83,6.27,6.66,3.54-.12,7.09,0,11.79,0-4,9-12.06,2.6-17.45,7.1,5.74,0,10.56.19,15.35-.13,1.15-.08,2.7-1.62,3.21-2.85C391.3,413.55,386.94,406.95,376.39,407.07Zm1.42,11.65c-2.9-2.21-6.5-3.57-6.8-5.45-.79-5,3.82-3.78,6.6-3.89,3.23-.13,7.7-.63,7.43,4.23C385,415.22,381,416.61,377.82,418.72Z"/><path d="M387,475.41l-4.89-3.83c-3.14,4.59-5.69,4.58-9.74,0L368.51,476c3.76,3.44,4.44,7-.25,10.91l3.71,3.31c2.71-.86,5.17-2.53,6.42-1.88,3.9,2,6.76,1,9.12-.87-1.39-2-3.6-3.77-3.55-5.47C384,479.76,385.88,477.61,387,475.41Zm-5.75,9.43c-7.91,1.36-8.28,1-6.66-7.26h6.66Z"/><path d="M232.32,362.5l5-7.41c-6.27-2.3-1.87-8.23-4.52-13.26-6.57,2.94-10.24,8.4-15.24,15h13.3Z"/><path d="M294.6,359.85l.07,2.41c4.29,0,8.74.68,12.79-.31,1.84-.45,3.85-4.19,3.93-6.5.05-1.68-2.66-4.06-4.67-5-1.85-.89-4.49,0-6.63-.48-1.34-.33-2.4-1.83-3.59-2.81,1.15-.75,2.25-2.05,3.45-2.14,3.74-.28,7.51-.1,11.26-.1v-2.07H294.49v10.12c3.54,0,6.7-.37,9.72.14,1.7.29,3.15,2,4.72,3.11-1.65,1.22-3.17,3.14-5,3.49C300.94,360.28,297.73,359.85,294.6,359.85Z"/><path d="M224.21,483.55l-2.37,5.67,1,.7,5.31-5.55,4.33,6,1.41-1.05-1.76-5.41,7.23-2.19-.6-2.15-6.32-.7,1.5-5.58-1-.44-5.09,5.5L223.07,473l-1.24.86,1.59,4.33-6.14,2.91.61,1.66Z"/><path d="M302.59,471.08c-8.14.07-9.15,1.19-9.15,10.18,0,10.08,0,10.08,9.42,10.1s9.59-.15,9.59-9.37C312.47,472.34,311.26,471,302.59,471.08Zm-7,17.56c.65-5.24.33-10.17,2.21-14,.68-1.4,8.64-1.6,9.69,0,2.26,3.44,2.19,8.42,3.32,14Z"/><path d="M298.74,297.92c3.82.59,7.8.18,11.71.18l.06-2.27a91.85,91.85,0,0,1-10-.12c-1.4-.15-2.65-1.59-4-2.44,1.28-1.26,2.35-3.15,3.88-3.64,2.05-.66,4.81.44,6.61-.48s4.32-3.45,4.34-5.29-2.41-4.89-4.2-5.26c-3.94-.81-8.16-.25-12.26-.25v2.07c3.43,0,6.91-.36,10.26.16,1.53.24,2.79,2.22,4.17,3.4-1.28,1-2.42,2.58-3.86,3-2.35.6-5.4-.38-7.23.77a10.25,10.25,0,0,0-3.9,6.4C294.17,295.15,297,297.66,298.74,297.92Z"/><path d="M380.15,280.64c1.35.18,2.48,2,3.71,3.09-1.31,1-2.51,2.47-4,2.76a69.56,69.56,0,0,1-9,.72l.14,2.06c2.63,0,5.34-.41,7.85.14,1.82.4,3.35,2.08,5,3.19-1.73,1.08-3.34,2.73-5.21,3.09-2.74.53-5.66.14-8.51.14l.08,2.9c5-.86,12.48-.06,14.51-3,2.52-3.65,2.47-11.68,0-15.38-1.95-2.85-9.42-1.93-14.43-2.69l-.27,2.82C373.4,280.49,376.82,280.19,380.15,280.64Z"/><path d="M226.94,427.18l10.92-19.48H219.56v1.41h14.39L224.83,426Z"/><path d="M230.51,297.61l1.43-.06v-19H224.7l-.3,1.33,6.1,1.7Z"/></svg>