<svg id="Layer_1" data-name="Layer 1" xmlns="http://www.w3.org/2000/svg" viewBox="0 0 382.08 377.12"><defs><style>.cls-1{fill:#fff;}</style></defs><title>ydd424</title><path d="M375.52,608.54c-3.88.89-7.74,1.88-11.65,2.64a15,15,0,0,1-5.94.38c-12.17-2.8-24.42-5.4-36.39-8.91-13.8-4-22-15.91-22-30.34q0-55.76-.08-111.51c0-3.62-.39-7.24-.31-10.85a6.31,6.31,0,0,1,1.41-4c3.61-3.75,4.83-8.4,5.36-13.28a101.38,101.38,0,0,0,.48-10.87q0-77.56,0-155.12c0-3,.42-5.71,2.68-7.91a15.63,15.63,0,0,0,1.48-2c1.8-2.42,3.29-4.76,3.69-8.06.86-7,7.51-11.88,14.42-11.23,15.51,1.45,31,2.72,46.52,4.48,16,1.82,31.87,4,47.77,6.28,11.57,1.65,23.08,3.66,34.61,5.55,6.41,1.05,9.54,5.15,10,11.89,0,.58,0,1.16,0,1.73q0,125.64,0,251.27c0,18.9-.12,37.79-.52,56.69a25.82,25.82,0,0,1-9.49,19.66c-4.15,3.56-8.08,7.74-13.51,8.77-6.8,1.3-12.57,4.47-18.58,7.5a29.8,29.8,0,0,1-12.06,3.08c-10.29.35-20.6,0-30.9-.13-1.65,0-3.3-.15-4.95-.21-2.84-.1-3.34-.9-2.17-3.51l.48-1.09Zm-20.36-1.31c-.18-1.35-.21-1.75-.29-2.14a9.23,9.23,0,0,1,8.1-11.37c7.07-.94,14.48,4.66,15.36,11.67a41.81,41.81,0,0,1,0,4.66c10.46,0,20.59.11,30.72-.05,4.38-.07,8.67-.9,12.43-3.5,6.43-4.45,8.35-10.91,8.35-18.28q0-54.87.09-109.74c0-.88,0-1.75,0-2.65a19,19,0,0,0-2-.36c-5.84-.36-11.72-.43-17.51-1.14-4.47-.55-9.52.74-13.19-3.26-.18-.2-.62-.19-.95-.23l-19.45-2.46a2.23,2.23,0,0,0,1.18,1c20.91,9.26,34,24.78,36.62,47.78,1.84,16-3.48,29.75-16.07,40-13.46,10.93-28.92,12.13-44.85,6.75a57.39,57.39,0,0,1-38.21-62.64,40.86,40.86,0,0,1,13.12-25.12c6.58-6,14.39-9.25,23.76-10.44-4.42-.81-8.2-1.63-12-2.17-3.41-.48-6.93-1.83-10.17.78-.39.32-1.28.1-1.92,0-3-.43-6-.83-9-1.37-4.32-.78-8.61-1.66-12.92-2.5l-.13-.7,2.57-2.09-4.94-1.32a60.07,60.07,0,0,0-.71,6.58q.15,54.86.43,109.72a30.81,30.81,0,0,0,.79,7.1c2.41,9.85,8.86,16.13,18.35,18.95C333.25,601.82,344,604.31,355.16,607.22Zm104-215.06c-3.7,2.82-6.8,5.42-10.14,7.64a5.35,5.35,0,0,0-2.55,5.11c0,16.33.06,32.67-.3,49-.13,5.83-1.77,11.39-7.07,15.11-.82.58-1.24,2.23-1.25,3.38q-.1,59.34-.08,118.68A22.41,22.41,0,0,1,434,603.67c-.38.57-.7,1.16-1,1.75,5.57-2.74,10.76-5.91,16.13-8.72,3.58-1.87,5.73-4.82,7.55-8.18,2.35-4.34,2.78-9.1,2.77-13.91q-.08-50.91-.19-101.81,0-38.65,0-77.3Zm-85.25-46.8c-4.38,2.18-9.33,2.69-14.39,2.71s-10.1-.58-14.91-3v2.8c0,29.79,0,59.59-.07,89.38,0,2.7,1.09,4,3.33,4.68a38,38,0,0,0,23.55,0c2-.61,2.54-1.74,2.54-3.81q-.11-41.72-.05-83.44ZM314,342.63c0,.57-.08,1.06-.08,1.55q0,45.58-.05,91.16a3.47,3.47,0,0,0,2.65,3.65,36.39,36.39,0,0,0,24.44.18c1.72-.59,2.29-1.61,2.29-3.49q-.1-45.33-.05-90.67c0-.69-.09-1.38-.13-2C333.3,346.62,323.78,346.3,314,342.63Zm61.47,7.62c0,.43-.09.68-.09.92q0,46,0,91.93a3.36,3.36,0,0,0,2.47,3.52,37,37,0,0,0,24.2.5c2-.61,2.72-1.74,2.72-3.95q-.12-45-.06-90v-2.47C393.23,354.19,385,354,375.48,350.25Zm30.63,2.58v2.88q0,44.2,0,88.41c0,4,.54,4.87,4.35,6a41.82,41.82,0,0,0,19.57.59c1.89-.36,2.45-1.2,2.44-3.12-.08-15.6,0-31.2-.08-46.8,0-2.07.46-3.63,2.26-4.86a3.84,3.84,0,0,0,1.68-2.5c.14-6.66.08-13.33.08-20-3.69.59-4,.34-4-3.29q0-2.6,0-5.2V354.61C423.38,356.44,414.79,356.72,406.11,352.83Zm39.2,91.34v-2.53q0-79.28,0-158.56c0-4.38-2-6.67-6.29-7.44s-8.41-1.59-12.65-2.22c-14.17-2.1-28.33-4.25-42.53-6.15-11.59-1.55-23.22-2.89-34.85-4.12-11.88-1.25-23.79-2.31-35.7-3.34-3.76-.33-5.77,1.66-5.77,5.37q0,79.78,0,159.56a18,18,0,0,0,.2,1.91l.71-.07V424c0-12.39,0-24.78,0-37.16,0-2.75-.11-5.43,2-7.6a2.45,2.45,0,0,0,.53-1.59c0-6.51,0-13,0-19.7-2.57.21-3-1.18-3-3.23.06-8.09,0-16.19.09-24.28,0-1.53.9-3,1.38-4.56s1.38-3.32,1.5-5c.31-4.6-.17-9.29.52-13.82,1.77-11.72,3.95-23.37,6-35a9.93,9.93,0,0,1,14.09-7.18,16,16,0,0,0,4.16,1.37c6,.86,12.09,1.54,18.13,2.38a4.09,4.09,0,0,1,3.63,5.1A5.58,5.58,0,0,0,363,280a1.36,1.36,0,0,0,1-.47c2.2-4.32,6.78-5,10.57-6.76,3-1.39,6.56,1.34,6.38,4.71-.08,1.53-.87,3-1.35,4.55l6.74.81a3.4,3.4,0,0,0,.34-.64,1.63,1.63,0,0,0,.06-.73c-1-3.61,2-5.29,3.72-7.51a2.89,2.89,0,0,1,2.26-.58c5.31.64,10.61,1.46,15.93,2.08,3.91.46,7.93,1.35,11.77.88,7.76-.94,13.83,3.26,15,11,1.13,7.4,2.56,14.76,3.72,22.15,1,6.25,2.5,12.53,2.54,18.81.24,37.49.12,75,.12,112.48v3.07ZM357.2,470.65c-2.76.42-5.56.66-8.28,1.29-15.13,3.5-25.92,12-30.25,27.33-2.82,10-1.75,19.89,1.71,29.6,8.26,23.14,31.73,38.75,55.59,34.18,15.69-3,26.45-11.76,30.9-27.43,2.74-9.66,1.94-19.27-1.28-28.69C397.94,484.52,378.49,471.43,357.2,470.65ZM313.92,257.73l.38.94c3.67.34,7.34.64,11,1,18.17,2,36.38,3.65,54.51,6,19.66,2.56,39.23,5.77,58.84,8.67a2.47,2.47,0,0,0,1.8-.25c4.22-4.14,8.36-8.35,12.78-12.8-4.69-.82-9-1.65-13.27-2.3-14.89-2.25-29.77-4.58-44.69-6.62-11.66-1.6-23.37-2.93-35.08-4.16s-23.29-2.18-34.95-3.21a2.3,2.3,0,0,0-1.76.54c-2.1,2.7-4.1,5.49-6,8l2.31,1.61a17.18,17.18,0,0,0-2.34.69C316.27,256.44,315.11,257.11,313.92,257.73Zm145.27,12.86-.55-.35c-3.4,3.45-6.74,7-10.22,10.32a5.76,5.76,0,0,0-1.91,4.54q.07,56,0,112v3.2c4.3-3.29,8.12-6.12,11.82-9.1a3.35,3.35,0,0,0,.79-2.37c-.12-17.8-.4-35.61-.43-53.41,0-12.93.33-25.86.44-38.79C459.25,287.92,459.19,279.26,459.19,270.59Zm-60,31.65c.18,3.11-.08,5.93-4,6.37a1.43,1.43,0,0,0-.8.56c-2.79,3.49-6.46,3.33-10.3,2.52-.64-.14-1.3-.25-1.95-.33q-19.24-2.43-38.48-4.84c-3.38-.42-6.78-.8-10.37-1.22,0,3.08.16,5.81,0,8.51-.16,2.14.84,2.71,2.66,2.9,3.77.4,7.52.88,11.28,1.35l32.6,4.14q17.16,2.17,34.31,4.32c3.72.46,7.44.86,11.15,1.29.56-4.45.56-4.44-3.44-3.65a3.87,3.87,0,0,1-1.23,0c-4.65-.62-9.32-1.19-13.95-1.94a2.48,2.48,0,0,1-1.62-1.77c.14-3-.21-5.83.89-8.9.93-2.59,1.76-2.78,3.85-2.3a30.15,30.15,0,0,0,3.18.4l12.56,1.48a22.48,22.48,0,0,1,0-2.54c.28-2.16-.25-3.09-2.79-3.34C414.9,304.48,407.16,303.29,399.17,302.25Zm32,173.58c0,1.18,0,2.23,0,3.29q-.1,47.79-.2,95.59c0,5.28.24,10.59-.19,15.84a27.41,27.41,0,0,1-2.56,10.15c-3.88,7.49-10.83,10.35-18.9,10.4-9.89.07-19.78-.19-29.67-.37-1.4,0-2.2.29-2.13,2a7.83,7.83,0,0,0,1.38.33c12.59.71,25.19,1.65,37.77,0a22.3,22.3,0,0,0,15-8.21,23.66,23.66,0,0,0,5.11-15.39c0-7.76-.16-15.51-.17-23.27q0-44,0-87.92V475ZM324.48,326.87l12.31,1.54,33.33,4.23,33.58,4.21c6.13.77,12.26,1.54,18.39,2.26,2.16.25,3.23-.93,3.34-3,.1-1.8,0-3.61,0-5.45-2.22-.73-4.07-1-5.81.86a59.19,59.19,0,0,1-4.86,4.2c-1.22,1-2.42,1.22-3.89-.17l5.76-6.18-33.21-4.21c-11.19-1.41-22.38-2.86-33.58-4.18a5.17,5.17,0,0,0-3.32.87c-2,1.44-3.7,3.3-5.71,4.73-.68.48-1.92.15-2.91.19a8.18,8.18,0,0,1,.94-2.31c1.18-1.42,2.53-2.68,4.19-4.39-3.26-.38-5.94-.72-8.63-1a2.06,2.06,0,0,0-1.41.26C330.29,321.7,327.63,324.09,324.48,326.87Zm1.64-34.73c0,3-.08,5.68.07,8.29a2.13,2.13,0,0,0,1.45,1.41c5.13.75,10.27,1.37,15.41,2q14.93,1.9,29.87,3.78c5,.63,10.08,1.22,15.27,1.84V300Zm134.26,298a26.65,26.65,0,0,0,5.71-17c-.12-18.39-.42-36.78-.43-55.17q-.09-90.07,0-180.14v-2.77l-1.11-.14a17.28,17.28,0,0,0-.88,3.82q-.07,87.22-.06,174.44c0,4.52-.41,9-.42,13.55,0,11.31-.13,22.63.17,33.94C463.59,570.65,464.49,580.61,460.38,590.14Zm-151.17-131-.1.84c6.7,1.08,13.39,2.17,20.09,3.21.41.06.88-.28,1.33-.39,1.7-.43,3.47-1.38,5.1-1.19,8.25,1,16.44,2.4,24.68,3.49,8.07,1.06,16.17,1.88,24.26,2.88A90.45,90.45,0,0,1,397,469.89c2.53.68,4.54,2.79,7.52,2.88,4.4.13,8.78.75,13.18,1.17l.06-.49-13-2.09c.28-.62.38-1,.48-1,8.17,0,16.34,0,24.57,0v-3.15c-42.66-1.37-84.65-6.25-126-15.83-.73,2.43,0,3.77,2.66,4.31,5.72,1.16,11.39,2.55,17.06,3.92a8.75,8.75,0,0,1,2.11,1.2l-.48,1.15Zm8.23-136.83c0-11,.12-21.55-.06-32.11-.07-4.22,2.32-6.65,5.12-9.11-.34-.44-.75-.95-1.13-1.49-2.61-3.79-2.23-8.43.9-11.23,2.88-2.58,7.21-2.18,10.86.57a12.83,12.83,0,0,0,5.32,2.1c3.88.7,7.84,1,11.74,1.62.7.12,1.24,1.16,1.85,1.77a17.68,17.68,0,0,1-2.15,1.09c-.33.12-.79-.13-1.2-.18l-14.07-1.75v4.8c5.18.69,10.33,1.32,15.44,2.13.73.12,1.33,1.08,2,1.66-.85.38-1.74,1.17-2.54,1.09-4.42-.45-8.81-1.15-13.23-1.64a9.23,9.23,0,0,0-2.68.51l.13.72,31.76,4-2.16-5.13c-6.1-1.21-8-3.57-8.27-9.86a2.5,2.5,0,0,0-1.67-1.69c-3.82-.62-7.69-.9-11.5-1.56A95.28,95.28,0,0,1,330,266a8.45,8.45,0,0,0-11.09,6.39c-1.83,10-3.46,19.94-5.43,29.87-1.28,6.45-.93,12.9-1,19.41Zm122.48,15.37c.06-1.15.09-2,.14-2.77.5-7.81-.83-15.43-2.2-23.07-1.54-8.58-2.83-17.21-4.5-25.77a10,10,0,0,0-10.15-8.21c-.25,5.43,2.64,11.14-2.71,15.89,2.51.34,4.88.61,7.23,1,4.15.69,5.15,1.93,5.15,6.27q0,16.6,0,33.19v2.63ZM324.39,241.21c4.4.29,8.42.45,12.41.85,12,1.21,24.1,2.44,36.13,3.82,12.35,1.43,24.71,2.86,37,4.64,14.08,2,28.12,4.43,42.16,6.77A4.17,4.17,0,0,0,457,255c-6-1.06-11.81-2.2-17.64-3.08-11.89-1.78-23.78-3.5-35.69-5.08-12.9-1.71-25.8-3.4-38.74-4.78-11.88-1.27-23.81-2.05-35.7-3.2A4.48,4.48,0,0,0,324.39,241.21Zm-12.83,206a26.74,26.74,0,0,1,4,.83c1.22.45,2.94,1,3.35,2,1.32,3.09,3.84,3.31,6.54,3.58,1.55.16,3.08.63,4.63.69a4.12,4.12,0,0,0,2.84-.72c2-2.09,4.3-2.19,7-1.8q17.47,2.53,35,4.76c9.07,1.14,18.17,2,27.24,3.08a3.7,3.7,0,0,1,2.65,1.51c1.39,3.29,4.29,2.93,6.93,3.26,1.63.2,3.28.34,4.93.4a2.67,2.67,0,0,0,1.81-.46,8.42,8.42,0,0,1,8.77-2.38,3.42,3.42,0,0,0,1.22-.2l-.14-3L398.83,455l-.28,3a24.88,24.88,0,0,1-2.78,0c-4.17-.49-8.33-1-12.5-1.56q-21.31-2.68-42.63-5.35c-2.34-.29-4.51-.58-4-3.83l-5.32-.67c.4,2.81-.86,3.08-3,2.62a69.17,69.17,0,0,0-8.08-1c-2.23-.2-4.5-.17-4-3.38-.94-.2-1.66-.42-2.39-.5a21.35,21.35,0,0,0-2.26,0Zm12.24,36.35c.35,0,.43,0,.47,0,.24-.22.48-.45.7-.69,12.08-13.39,27.12-17.09,44.24-13.08,24.19,5.66,43.69,30.18,42,56.15-.91,13.73-6.65,24.79-17.91,32.86-.44.32-.85.68-1.28,1a9.7,9.7,0,0,0,3.33-1.59,44.12,44.12,0,0,0,16.9-48.58c-6.92-23.9-23-38.26-47.6-42.55a41.19,41.19,0,0,0-31.1,6.73A33.68,33.68,0,0,0,323.8,483.56Zm116,119.74.2.48a8.17,8.17,0,0,0,1.44-.17c10.11-3,17-9.42,19.59-19.68a62,62,0,0,0,1.48-15.18c-.08-15.65-.73-31.3-.77-47-.12-45.66,0-91.32,0-137q0-22,0-44.09c0-.87-.12-1.74-.18-2.61l-.85.06v3q0,114.94,0,229.87c0,3-.16,5.93-.41,8.89a25.82,25.82,0,0,1-18,22.29A25.75,25.75,0,0,0,439.77,603.3Zm-83.23,6.9c-.5-3.09-2.93-2.52-4.69-3-10.34-2.67-20.85-4.81-31-8C310.26,595.82,304,588,302.71,576.92c-.76-6.61-.59-13.35-.61-20q-.1-38.78-.05-77.56c0-5.95,0-11.89,0-17.84a9.67,9.67,0,0,0-.67-2.42l-.66.22a8.71,8.71,0,0,0-.11,1c0,37.91-.19,75.83.18,113.74.13,12.59,6.94,21.85,18.57,26.6C331.16,605.42,343.71,607.92,356.54,610.2Zm45.15-149.53c-2.86-.26-5.48-.41-8.07-.73-16.82-2.12-33.65-4.2-50.45-6.48-4-.55-8-1.65-11,3.12l67.24,8.36ZM310.24,328.29c3,.48,5.74,1,8.48,1.33,12.41,1.56,24.83,3.06,37.24,4.62,11.19,1.41,22.37,2.88,33.56,4.3,11.43,1.46,22.86,2.85,34.28,4.37,4.84.64,9.54,1.14,13.12-3.57-1.85-.1-4.12-.52-5.39.42a6.82,6.82,0,0,1-5.28,1.23c-3.84-.44-7.66-1-11.5-1.43q-22.55-2.8-45.11-5.59-21.32-2.66-42.64-5.39c-3.29-.42-6.55-1-9.78-1.5l.14-2.57C312.6,323.53,312.6,323.53,310.24,328.29Zm5.48-79.16c1.15-3.25,2.95-5.63,6.76-5.35,9.29.7,18.6,1.24,27.86,2.23,15,1.6,30,3.26,44.91,5.35,19.4,2.71,38.73,5.85,58.09,8.87,5,.77,7.28,3.68,7.29,8.66q0,12.64,0,25.27c0,.8.08,1.6.12,2.4l.74,0c.06-.84.16-1.67.17-2.51,0-8.42-.14-16.85.07-25.27.13-5-2.41-9.12-7.07-9.9-14.29-2.38-28.56-4.86-42.9-6.89-15-2.13-30.05-4-45.12-5.6-14.66-1.6-29.36-2.83-44.06-4.13A6.25,6.25,0,0,0,315.72,249.12Zm73.17,39.54,28.75,3.6v-8.84l-28.75-3.61Zm47,169.94.6.19c1.89-2.86,3.39-5.9,3.4-9.46q0-25.36,0-50.71c0-.67-.11-1.34-.16-2-3.18,1.07-4,3.07-3.92,6.13.18,12.37.08,24.74.08,37.11ZM376.33,605.06c.29-4.42-5.82-9.85-11.31-9.76-4,.07-7.06,2.42-7.72,6.28a7.17,7.17,0,0,0,2,6.58c1.76,1.75,3.5.46,5.27,0C368.42,607.11,372.3,606.11,376.33,605.06ZM447,280.33c3.78-3.77,7.83-7.64,11.61-11.76.63-.69.5-2.79-.09-3.72-.8-1.27-2.36-2.06-3.64-3-.09-.07-.56.27-.79.5-4.14,4.12-8.27,8.26-12.14,12.13Zm-120.82,8.28c-.55,1.84.17,2.38,1.6,2.55,4.66.57,9.31,1.21,14,1.8l33.81,4.26c4.21.53,8.41,1,12.65,1.52.52-3.06-1.78-2.53-3.15-2.71-7.26-1-14.55-1.79-21.82-2.7C350.87,291.78,338.55,290.19,326.13,288.61ZM322,284.79c35.08,4.39,69.59,8.71,104.1,13,.25,0,.57-.44,1.33-1.08-35-4.39-69.56-8.71-104.07-13C323.1,283.67,322.78,284.14,322,284.79Zm1.06,3.95-.48.07v34c2.51-2.2,4.75-4.12,6.94-6.11a2.29,2.29,0,0,0,.78-1.42c.07-3.43,0-6.86,0-10.26-1.19-.22-2.08-.4-3-.55a2,2,0,0,0-.73,0c-2.68.62-3.12.37-3.2-2.4-.1-3.62,0-7.25,0-10.88A19.73,19.73,0,0,0,323,288.74ZM439.86,342l-.82-.54c-1.06,1.36-3,2.7-3,4.1-.28,8.33-.12,16.67-.1,25,0,.1.11.2.25.42l.57-2.17c2.56,1.45,3.13,1.26,3.14-1.07C439.88,359.14,439.86,350.55,439.86,342Zm-14.1,4.6.1-.9L313.73,331.54l-.11.9ZM396.35,451.37c.71.72,1.39,1.48,2.15,2.13a2.58,2.58,0,0,0,1.3.51c9.8,1.22,19.61,2.45,29.42,3.61,3,.35,3.6-.47,2.93-3a76.35,76.35,0,0,0-8.93.56c-7.55,1.34-13.4-1.56-18.43-6.55Zm-2-105.38.21-1a1.84,1.84,0,0,0-.31-.62,1.53,1.53,0,0,0-.83-.45c-4.55-.07-9-2.71-13.63-.32-.82.42-1.59.92-2.39,1.38a17.92,17.92,0,0,0,2,2.29,5.57,5.57,0,0,0,2,.83,32.54,32.54,0,0,0,17.8,0,28.54,28.54,0,0,0,3.73-1.62l-.21-.79a29.18,29.18,0,0,0-4.23.46,30.5,30.5,0,0,1-15.86.26,12.5,12.5,0,0,1-3-1.83l.31-.33Zm69.21-12.06c2.07-.37,2-1.67,2-3q0-17.09,0-34.18c0-.62-.06-1.25-.09-1.87l-.61-.23c-.44.92-1.27,1.85-1.27,2.77C463.57,309.51,463.6,321.64,463.6,333.94Zm-38.31-29.51c.06-2.73.08-2.82-2-3.15-2.84-.46-5.69-.79-8.54-1.15-4.61-.58-9.23-1.14-13.95-1.72v2.92l12.09,1.56ZM437,461.09c1.8-.64,3.81-.71,4.49-1.7,2.87-4.15,3.79-8.94,3.78-14.11h-3.34a74,74,0,0,1-1.54,7.7C439.63,455.45,438.39,457.79,437,461.09ZM344.17,338.22c-4.61,4.22-9.94,4.42-15.29,4.36s-10.7,0-14.62-4.77c-1.15,2.64.45,3.72,2.29,4.39a37.22,37.22,0,0,0,23,.76,8.15,8.15,0,0,0,3.4-1.91C343.65,340.41,343.79,339.19,344.17,338.22ZM316.11,449.29c-2.28-.43-4.21-.73-6.1-1.2a3.1,3.1,0,0,1-1.9-1.19c-1.15-2.27-4.33-2.88-6-1s-1.56,2.89.93,3.63c3.52,1.05,7.08,2,10.54,2.93ZM405,345.59c-1.78,2.82-3.75,4-10.75,4.64-6.54.6-13.27.94-18.55-4.51-1.08,2.53.5,3.51,2.37,4.26,6.65,2.66,13.55,2.41,20.43,1.45a16.62,16.62,0,0,0,5.45-2.16C405.17,348.62,406.28,347.52,405,345.59Zm-30.93-4.34c-4.2,3.93-9.52,4.1-14.6,4s-10.63.08-14.5-4.74c-1.09,2.64.52,3.67,2.34,4.38a33.35,33.35,0,0,0,16.8,1.77,54.53,54.53,0,0,0,8.56-2.17A2.1,2.1,0,0,0,374.1,341.25Zm.19-53.26,12.25,1.57v-4.94c-2.7-.36-5.29-.76-7.89-1a2.4,2.4,0,0,0-1.81.67A41.57,41.57,0,0,0,374.29,288Zm-2.16,53.81L372,341a7.46,7.46,0,0,0-2.53,0,27.27,27.27,0,0,1-13.15,1.39c-1.53-.17-3-.84-3.26-2.84-.05-.39-1-.92-1.6-.93a14,14,0,0,0-3.36.49c-.49.12-1.2.46-1.29.83a1.67,1.67,0,0,0,.62,1.44,13.49,13.49,0,0,0,3.31,1.6,32.29,32.29,0,0,0,14.91.64A64,64,0,0,0,372.13,341.8Zm93.5-75.14-1-.26a12.32,12.32,0,0,0-1,3.31c-.09,7.09,0,14.18,0,21.27v2.78l.78.18c.42-.85,1.18-1.7,1.19-2.56C465.67,283.15,465.63,274.91,465.63,266.67ZM414.45,346.4c-1.94.21-3.55.32-5.15.56-1.3.2-1.47,1-.64,1.9a5.42,5.42,0,0,0,2,1.34,31.29,31.29,0,0,0,20.32.22c.67-.21,1.06-1.3,1.58-2l-.64-.47c-1,.64-2,1.71-3.1,1.84a68.06,68.06,0,0,1-9.79.55C416.78,350.33,414.63,349.53,414.45,346.4Zm-73.22-8.35c-1.17.07-2.34.1-3.5.22-4.07.41-8.14,1.18-12.2,1.15-2.61,0-5.71,0-7.35-3-.13-.24-1.32-.21-1.69.09s-.46,1.42-.21,1.63c1,.83,2.08,1.89,3.25,2a95.75,95.75,0,0,0,13.18,1.14C335.71,341.3,338.86,340.73,341.23,338.06Zm49.94-41.19v12.3c4.72-2.35,5.17-3.61,4.39-11.73Zm29.71,26-2.41-2,2-1.62-3-3.66c-.54.95-1,2.45-1.51,2.48-1.59.1-1.95-1.1-1.65-2.56,0-.15-.75-.46-.79-.48-.65,1.07-1.09,2.52-1.62,2.55-1.45.09-2.18-.88-1.74-2.49,0-.18-.68-.58-1.21-1-.24,3.32-.5,3.53-2.95,2.7.2.47.53,1,.94,1.07,1.78.26,2.27,1.11,1.49,2.81h-2.23v.44Zm-14.21,25.35c-1.25,2.19-.15,3.55,1.48,4a42,42,0,0,0,9.79,2.13,81.81,81.81,0,0,0,12.53-.66c1.94-.2,1.93-.49,1.68-1.56-5.11.25-10.11.85-15.07.62C413.32,352.64,409.27,352.2,406.67,348.24Zm49.65-90.18c3.88,1.49,5.89,4.43,7,8.17,3.24-2.28,3.48-3.12,1.68-6.16a12,12,0,0,0-2.35-2.82C459.85,254.8,458.9,254.94,456.32,258.05ZM342.71,440.74c-2.53,2.58-7.35,1.15-10.27,4.81,2.25.2,4.35,1,5.77.37,2.5-1.16,4.77-.73,7.21-.44a33.25,33.25,0,0,0,3.84,0Zm95.89,21.69-.1-.79c-1.53,0-3.49-.61-4.5.12-2.85,2.06-5.87,1.37-8.79,1.1-2.41-.22-3.8.75-5.59,3C426.45,464.91,433.18,467.43,438.6,462.43Zm22.36-126h.36v-38H461Zm-31.7.92h.46V301h-.46Zm-5.84-23.91-.21-.78c-4-.48-8-.82-11.94-1.49-1.81-.31-2.92,0-3.72,1.85,4.45.59,8.82,1.25,13.22,1.66C421.61,314.74,422.54,313.86,423.43,313.42ZM308.07,444.35V427.91l-3.36,15.72Zm59.57,8.85.17-1c-1.16-.2-2.32-.42-3.49-.59-3.57-.53-7.24-.71-10.68-1.69-2.45-.7-4.58-2.4-6.87.15-.22.25-.9.09-1.36.12v.28Zm37.62-174.46c9.8,1.32,10.28,2.35,12-1l-12-1.58Zm-9.47,178,.37-.39c-.66-.64-1.27-1.76-2-1.83-6.13-.6-12.27-1-18.42-1.46a8.51,8.51,0,0,0-2,.34l.06.57Zm-76.26-121c4.47,2.54,9,2.75,13.83,1.68C331.93,335.57,321.13,334.26,319.54,335.75Zm51.1-48.45c3-.31,4.9-2.4,4.67-5a5.69,5.69,0,0,0-5.55-5.25c-2.72,0-4.34,1.34-4.54,4.16,1-2.34,2.8-3.28,4.66-2.48a7,7,0,0,1,3.43,3.66C374.15,284.67,372.75,286.34,370.64,287.31Zm-39.92,29.95c-2.64,2.31-5.19,4.48-7.65,6.76-.42.39-.43,1.22-.62,1.85.62-.16,1.41-.12,1.85-.5,2.56-2.17,5-4.43,7.65-6.74ZM438.09,468c4-2.43,5.54-6,6.28-10.13a48.32,48.32,0,0,1-4.68,5A4.27,4.27,0,0,0,438.09,468Zm-6.61,2.39c4.87-.12,5.41-.69,4.6-4.6l-4.6.92ZM330.62,445l-10.37-1.93c.74,1.08,1,1.92,1.53,2.15C325,446.67,329.62,446.4,330.62,445Zm91.95-163.24c-2.18,1.07-3,6.11-1.63,9.4C423.78,288.3,421.87,284.91,422.57,281.76ZM309.86,442.62c2.94.17,5.37,1.52,8.11-.18l-4.3-2.64Zm99.88,84.91c1.08-7.92-.69-18.29-3.58-22.92A62.59,62.59,0,0,1,409.75,527.53ZM314,254.21c2-.4,6.55-6,7.6-9.37C318.54,247.37,316.61,250.86,314,254.21Zm110.68,60c-2.43,1.55-2.9,4.17-1.77,7.65C425.8,319.85,423.89,317,424.71,314.18ZM376.61,279l2.58-2.36a3.79,3.79,0,0,0-5.1-.53Zm27.1-2.12-.22-.93-5.2-.67.69,3.35Zm-28,173.37-.79-4-4.07,3.46ZM324.88,278.71v-6.89C322.44,274,322.35,276,324.88,278.71ZM429.69,472.53l0-.39H418.56v.39ZM416,347.77c2.56,2,6.49,2.22,7.9.53Zm-73.45,98.52-.64.57c.49.56.9,1.49,1.49,1.62,1.38.32,3.05.66,3.26-1.7ZM330.19,272.84c1.16,1.83-1.84,4.3.89,5.92C332.43,276.31,332.27,274.93,330.19,272.84Zm19.92,9.39.07-.59L337.35,280l-.07.62ZM440,387.67c.79-3,.62-3.33-2-3.28v3.13Zm-77.25-47-8.33-.65C357,341.83,360.53,342.1,362.72,340.65Zm10,104.36c-1.37,1.32-3.63,1.92-3.86,4.85C370.65,448.17,372.72,447.46,372.75,445Zm3.49,162.52c-3-1.31-5.62.12-8.32,1.1Zm58.09-261.29-.17-.92-6.11.88.1.79ZM364.13,446.9a25.93,25.93,0,0,0-3-1.75c-.36-.15-.94.22-1.42.36.18.46.31,1.31.53,1.33A36.76,36.76,0,0,0,364.13,446.9Z" transform="translate(-85.5 -237.48)"/><path d="M205.61,256.63c.68-2.13.68-2.13,6-1.67,0,1.21,0,1.21-3.26,2.08,5.56,1,10.79,2,16.06,2.72,6,.87,8.72,3.68,8.73,10.17q.13,79.28-.06,158.57a38.64,38.64,0,0,1-2.62,13.44c-2.26,5.88-6.73,9.53-13.56,9.68a311.1,311.1,0,0,1-40-1.89c-12.12-1.3-24.28-2.44-36.34-4.18-17.09-2.47-34.27-4.62-50.85-9.8-3.87-1.21-4.15-1.59-4.14-5.53.07-45.09.07-90.17.26-135.26,0-10.14.64-20.28,1.24-30.4a32.61,32.61,0,0,1,6.29-17.68A6.2,6.2,0,0,1,99,244.1c11.5,1,23,2,34.47,3.21,11.8,1.24,23.58,2.65,35.36,4.09,7.68.94,15.34,2.11,23,3.12a15.34,15.34,0,0,0,5.09.22C200.13,254,202.5,256.37,205.61,256.63Zm19.15,4.86a14.59,14.59,0,0,0-1.82-.56c-14.14-2.22-28.27-4.57-42.44-6.58-12.39-1.75-24.83-3.25-37.27-4.6-14.25-1.55-28.54-2.83-42.81-4.14a2.69,2.69,0,0,0-2.13,1.15c-1.72,3.26-3.71,6.48-4.77,10-3.37,11.08-3.53,22.59-3.75,34-.17,8.8.16,17.61.13,26.41,0,5.09-.41,10.19-.42,15.28,0,33.2,0,66.39-.06,99.59,0,1.91.5,2.81,2.41,3.2,10.72,2.17,21.35,4.8,32.13,6.57,13.81,2.27,27.7,4.1,41.61,5.69,11.38,1.3,22.82,2.11,34.25,2.86,5.4.35,10.84.06,16.43.06,0-.73.11-1.36.11-2,0-18.16,0-36.33,0-54.49.12-35.83.17-71.66.54-107.49C217,277.55,218.06,268.6,224.75,261.49Zm-.47,185.84.8.44c1.37-1.89,3.05-3.62,4-5.69,2.14-4.45,2.18-9.25,2.17-14.16q-.2-77.43-.08-154.85v-3.29c-.61.55-.86.73-1.05,1-3.55,4.09-4.56,9.14-4.86,14.25-.61,10.7-1.21,21.42-1.23,32.13-.07,42.93.08,85.87.15,128.8C224.22,446.37,224.26,446.85,224.28,447.32Zm-6.71,3.08c5.21-.54,5.19-.54,5.22-5.11,0-6,.19-12,.19-18.06,0-32.2-.13-64.4.06-96.6.09-15.66.65-31.33,1.28-47,.21-5.12,1.59-10.1,5.23-14.1,2.32-2.55,2.13-4.52-.55-6.68-1.48-1.19-2.62-1.42-4.12.3-4.79,5.5-6.13,12.19-6.49,19-.53,10.12-.67,20.26-.78,30.39-.12,12.21,0,24.41,0,36.62q0,49,0,98.05ZM97.12,246.13l-.5-.38c-.63.54-1.47,1-1.85,1.63-1.85,3.35-4.2,6.6-5.24,10.21C87,266.44,87,275.68,87,284.81q-.14,72.69-.07,145.37a11.53,11.53,0,0,0,0,2.22,4.71,4.71,0,0,0,.81,1.36,7.41,7.41,0,0,0,.58-3.39q-.2-52.6-.38-105.2c0-8,.29-16,.44-23.94,0-1.82-.07-3.64,0-5.45.48-9.38.72-18.79,1.6-28.13C90.78,260.05,92.56,252.61,97.12,246.13Z" transform="translate(-85.5 -237.48)"/><path class="cls-1" d="M355.16,607.22c-11.19-2.91-21.91-5.41-32.45-8.53-9.49-2.81-15.94-9.1-18.35-18.95a30.81,30.81,0,0,1-.79-7.1q-.28-54.86-.43-109.72a60.07,60.07,0,0,1,.71-6.58l4.94,1.32-2.57,2.09.13.7c4.31.84,8.6,1.72,12.92,2.5,3,.54,6,.94,9,1.37.64.09,1.53.3,1.92,0,3.24-2.61,6.77-1.26,10.17-.78,3.82.54,7.6,1.36,12,2.17-9.37,1.19-17.18,4.47-23.76,10.44a40.86,40.86,0,0,0-13.12,25.12,57.39,57.39,0,0,0,38.21,62.64c15.93,5.39,31.39,4.18,44.85-6.75,12.59-10.22,17.92-24,16.07-40-2.66-23-15.7-38.52-36.62-47.78a2.23,2.23,0,0,1-1.18-1l19.45,2.46c.33,0,.76,0,.95.23,3.67,4,8.72,2.71,13.19,3.26,5.8.71,11.67.78,17.51,1.14a19,19,0,0,1,2,.36c0,.89,0,1.77,0,2.65q0,54.87-.09,109.74c0,7.38-1.92,13.84-8.35,18.28-3.76,2.6-8.05,3.43-12.43,3.5-10.13.17-20.26.05-30.72.05a41.81,41.81,0,0,0,0-4.66c-.88-7-8.29-12.61-15.36-11.67a9.23,9.23,0,0,0-8.1,11.37C355,605.48,355,605.87,355.16,607.22Zm69.59-37.38h0c0-2-.08-4,0-5.94.15-3-.77-5.41-3.67-6.63s-5.41-.39-7.53,2a57.89,57.89,0,0,1-18.36,13.61c-3.1,1.46-4,3-3.59,5.71a6.17,6.17,0,0,0,5.44,5.29c5.89.68,11.79,1.34,17.71,1.74,6.14.42,10-3.37,10-9.53C424.77,574,424.76,571.9,424.76,569.84Z" transform="translate(-85.5 -237.48)"/><path class="cls-1" d="M459.19,392.17v3.32q0,38.65,0,77.3.06,50.91.19,101.81c0,4.81-.43,9.56-2.77,13.91-1.82,3.36-4,6.31-7.55,8.18-5.38,2.81-10.56,6-16.13,8.72.35-.58.67-1.18,1-1.75a22.41,22.41,0,0,0,3.82-12.59q0-59.34.08-118.68c0-1.15.43-2.8,1.25-3.38,5.29-3.73,6.94-9.29,7.07-15.11.36-16.33.3-32.66.3-49a5.35,5.35,0,0,1,2.55-5.11C452.39,397.58,455.49,395,459.19,392.17ZM453.4,518.84c-.23-2.55-.37-5.25-.73-7.92-.25-1.87-1.33-2.39-2.94-1.18a36.65,36.65,0,0,0-4.67,3.65c-1.17,1.23-2.58,2.82-2.7,4.35-.43,5.16-.34,10.36-.41,15.55a2.28,2.28,0,0,0,.49,1.61c.53.44,1.7,1,2,.73,3.17-2.75,8.06-4,8.38-9.32C452.93,523.88,453.18,521.45,453.4,518.84Z" transform="translate(-85.5 -237.48)"/><path class="cls-1" d="M373.94,345.37v9.3q0,41.72.05,83.44c0,2.07-.58,3.2-2.54,3.81a38,38,0,0,1-23.55,0c-2.24-.72-3.34-2-3.33-4.68.12-29.79.07-59.59.07-89.38V345c4.81,2.46,9.79,3.05,14.91,3S369.56,347.55,373.94,345.37Z" transform="translate(-85.5 -237.48)"/><path class="cls-1" d="M314,342.63c9.77,3.67,19.29,4,29.07.38,0,.63.13,1.32.13,2q0,45.33.05,90.67c0,1.87-.57,2.9-2.29,3.49a36.39,36.39,0,0,1-24.44-.18,3.47,3.47,0,0,1-2.65-3.65q.1-45.58.05-91.16C313.93,343.69,314,343.2,314,342.63Z" transform="translate(-85.5 -237.48)"/><path class="cls-1" d="M375.48,350.25c9.52,3.8,17.74,3.93,29.19.5v2.47q0,45,.06,90c0,2.21-.72,3.34-2.72,3.95a37,37,0,0,1-24.2-.5,3.36,3.36,0,0,1-2.47-3.52q.08-46,0-91.93C375.39,350.93,375.44,350.68,375.48,350.25Z" transform="translate(-85.5 -237.48)"/><path class="cls-1" d="M406.11,352.83c8.69,3.88,17.27,3.6,26.32,1.77v10.26q0,2.6,0,5.2c0,3.63.29,3.89,4,3.29,0,6.7.06,13.37-.08,20a3.84,3.84,0,0,1-1.68,2.5c-1.79,1.23-2.26,2.79-2.26,4.86.06,15.6,0,31.2.08,46.8,0,1.92-.55,2.76-2.44,3.12a41.82,41.82,0,0,1-19.57-.59c-3.81-1.09-4.35-2-4.35-6q0-44.2,0-88.41Z" transform="translate(-85.5 -237.48)"/><path class="cls-1" d="M445.31,444.18l-3.52-.26v-3.07c0-37.49.12-75-.12-112.48,0-6.28-1.55-12.55-2.54-18.81-1.16-7.4-2.59-14.75-3.72-22.15-1.19-7.78-7.27-12-15-11-3.83.47-7.85-.43-11.77-.88-5.32-.62-10.61-1.44-15.93-2.08a2.89,2.89,0,0,0-2.26.58c-1.75,2.22-4.73,3.9-3.72,7.51a1.63,1.63,0,0,1-.06.73,3.4,3.4,0,0,1-.34.64l-6.74-.81c.48-1.54,1.27-3,1.35-4.55.18-3.38-3.34-6.1-6.38-4.71-3.79,1.73-8.37,2.43-10.57,6.76a1.36,1.36,0,0,1-1,.47,5.58,5.58,0,0,1-5.47-6.3,4.09,4.09,0,0,0-3.63-5.1c-6-.84-12.09-1.51-18.13-2.38a16,16,0,0,1-4.16-1.37A9.93,9.93,0,0,0,317.5,272c-2.1,11.66-4.28,23.32-6,35-.68,4.53-.2,9.22-.52,13.82-.11,1.7-1,3.35-1.5,5s-1.35,3-1.38,4.56c-.14,8.09,0,16.19-.09,24.28,0,2,.45,3.44,3,3.23,0,6.67,0,13.18,0,19.7a2.45,2.45,0,0,1-.53,1.59c-2.15,2.16-2.05,4.85-2,7.6,0,12.39,0,24.78,0,37.16v2.58l-.71.07a18,18,0,0,1-.2-1.91q0-79.78,0-159.56c0-3.72,2-5.7,5.77-5.37,11.91,1,23.81,2.08,35.7,3.34,11.63,1.23,23.26,2.56,34.85,4.12,14.2,1.9,28.36,4,42.53,6.15,4.23.63,8.43,1.47,12.65,2.22s6.29,3.06,6.29,7.44q0,79.28,0,158.56Z" transform="translate(-85.5 -237.48)"/><path class="cls-1" d="M357.2,470.65c21.29.78,40.74,13.87,48.39,36.29,3.22,9.42,4,19,1.28,28.69-4.44,15.66-15.21,24.43-30.9,27.43-23.86,4.56-47.33-11-55.59-34.18-3.46-9.71-4.53-19.59-1.71-29.6,4.33-15.38,15.12-23.83,30.25-27.33C351.64,471.31,354.44,471.07,357.2,470.65Zm-32.74,42.27c.47,2.91.82,5.85,1.41,8.73,4.61,22.42,26.26,37,46.71,34.08,16.93-2.4,28.6-16.43,28.29-34.16-.21-12.23-5.11-22.58-14-30.89-10.16-9.52-22.23-13.86-36.1-11.13C335,482.67,324.75,496.12,324.47,512.93Z" transform="translate(-85.5 -237.48)"/><path class="cls-1" d="M313.92,257.73c1.19-.62,2.35-1.29,3.58-1.83a17.18,17.18,0,0,1,2.34-.69l-2.31-1.61c1.87-2.54,3.86-5.33,6-8a2.3,2.3,0,0,1,1.76-.54c11.65,1,23.31,2,34.95,3.21s23.41,2.56,35.08,4.16c14.92,2,29.8,4.37,44.69,6.62,4.3.65,8.58,1.48,13.27,2.3-4.42,4.45-8.56,8.66-12.78,12.8a2.47,2.47,0,0,1-1.8.25c-19.61-2.9-39.19-6.1-58.84-8.67-18.12-2.36-36.33-4.05-54.51-6-3.66-.4-7.34-.69-11-1Zm12.53-1.41,3.05-1.26a13.29,13.29,0,0,0-3-.75,11.26,11.26,0,0,0-2.82.64Z" transform="translate(-85.5 -237.48)"/><path class="cls-1" d="M459.19,270.59c0,8.67.06,17.33,0,26-.11,12.93-.46,25.86-.44,38.79,0,17.8.3,35.61.43,53.41a3.35,3.35,0,0,1-.79,2.37c-3.7,3-7.52,5.82-11.82,9.1v-3.2q0-56,0-112a5.76,5.76,0,0,1,1.91-4.54c3.48-3.36,6.82-6.87,10.22-10.32Z" transform="translate(-85.5 -237.48)"/><path class="cls-1" d="M399.17,302.25c8,1,15.73,2.23,23.51,3,2.54.25,3.07,1.18,2.79,3.34a22.48,22.48,0,0,0,0,2.54l-12.56-1.48a30.15,30.15,0,0,1-3.18-.4c-2.09-.48-2.92-.29-3.85,2.3-1.1,3.07-.76,5.94-.89,8.9a2.48,2.48,0,0,0,1.62,1.77c4.63.76,9.29,1.33,13.95,1.94a3.87,3.87,0,0,0,1.23,0c4-.79,4-.8,3.44,3.65-3.71-.43-7.44-.83-11.15-1.29q-17.16-2.14-34.31-4.32l-32.6-4.14c-3.76-.47-7.52-1-11.28-1.35-1.82-.19-2.82-.76-2.66-2.9.21-2.7,0-5.42,0-8.51,3.59.42,7,.79,10.37,1.22q19.24,2.41,38.48,4.84c.65.08,1.3.2,1.95.33,3.84.81,7.51,1,10.3-2.52a1.43,1.43,0,0,1,.8-.56C399.09,308.18,399.35,305.35,399.17,302.25Z" transform="translate(-85.5 -237.48)"/><path class="cls-1" d="M431.18,475.82l5.42-.83v3.24q0,44,0,87.92c0,7.76.18,15.51.17,23.27a23.66,23.66,0,0,1-5.11,15.39,22.3,22.3,0,0,1-15,8.21c-12.57,1.66-25.18.72-37.77,0a7.83,7.83,0,0,1-1.38-.33c-.08-1.69.73-2,2.13-2,9.89.18,19.78.44,29.67.37,8.07-.06,15-2.91,18.9-10.4a27.41,27.41,0,0,0,2.56-10.15c.44-5.25.18-10.56.19-15.84q.1-47.79.2-95.59C431.18,478.06,431.18,477,431.18,475.82Z" transform="translate(-85.5 -237.48)"/><path class="cls-1" d="M324.48,326.87c3.14-2.78,5.81-5.17,8.53-7.5a2.06,2.06,0,0,1,1.41-.26c2.69.28,5.37.61,8.63,1-1.65,1.7-3,3-4.19,4.39a8.18,8.18,0,0,0-.94,2.31c1,0,2.23.28,2.91-.19,2-1.43,3.7-3.29,5.71-4.73a5.17,5.17,0,0,1,3.32-.87c11.2,1.32,22.39,2.76,33.58,4.18l33.21,4.21-5.76,6.18c1.47,1.39,2.68,1.21,3.89.17a59.19,59.19,0,0,0,4.86-4.2c1.74-1.84,3.59-1.59,5.81-.86,0,1.84.08,3.65,0,5.45-.11,2-1.19,3.22-3.34,3-6.13-.73-12.26-1.49-18.39-2.26l-33.58-4.21-33.33-4.23Z" transform="translate(-85.5 -237.48)"/><path class="cls-1" d="M326.12,292.15,388.19,300v9.54c-5.19-.63-10.23-1.21-15.27-1.84q-14.94-1.87-29.87-3.78c-5.14-.65-10.29-1.28-15.41-2a2.13,2.13,0,0,1-1.45-1.41C326,297.82,326.12,295.19,326.12,292.15Z" transform="translate(-85.5 -237.48)"/><path class="cls-1" d="M460.38,590.14c4.11-9.53,3.22-19.5,3-29.46-.3-11.31-.2-22.63-.17-33.94,0-4.52.42-9,.42-13.55q0-87.22.06-174.44a17.28,17.28,0,0,1,.88-3.82l1.11.14v2.77q0,90.07,0,180.14c0,18.39.31,36.78.43,55.17A26.65,26.65,0,0,1,460.38,590.14Z" transform="translate(-85.5 -237.48)"/><path class="cls-1" d="M309.21,459.18,325,461.89l.48-1.15a8.75,8.75,0,0,0-2.11-1.2c-5.67-1.37-11.34-2.76-17.06-3.92-2.67-.54-3.39-1.88-2.66-4.31,41.39,9.59,83.38,14.46,126,15.83v3.15c-8.22,0-16.39,0-24.57,0-.1,0-.2.42-.48,1l13,2.09-.06.49c-4.39-.41-8.78-1-13.18-1.17-3-.09-5-2.2-7.52-2.88A90.45,90.45,0,0,0,384.57,468c-8.08-1-16.18-1.81-24.26-2.88-8.24-1.09-16.44-2.48-24.68-3.49-1.63-.2-3.4.75-5.1,1.19-.45.12-.92.46-1.33.39-6.7-1-13.4-2.13-20.09-3.21Z" transform="translate(-85.5 -237.48)"/><path class="cls-1" d="M317.44,322.35l-5-.68c0-6.51-.31-13,1-19.41,2-9.92,3.6-19.91,5.43-29.87A8.45,8.45,0,0,1,330,266a95.28,95.28,0,0,0,11.94,2.65c3.81.66,7.68.94,11.5,1.56a2.5,2.5,0,0,1,1.67,1.69c.23,6.29,2.17,8.66,8.27,9.86l2.16,5.13-31.76-4-.13-.72a9.23,9.23,0,0,1,2.68-.51c4.42.5,8.81,1.2,13.23,1.64.8.08,1.69-.7,2.54-1.09-.66-.57-1.26-1.54-2-1.66-5.11-.81-10.26-1.43-15.44-2.13v-4.8l14.07,1.75c.41.05.87.3,1.2.18a17.68,17.68,0,0,0,2.15-1.09c-.61-.61-1.16-1.66-1.85-1.77-3.89-.64-7.85-.92-11.74-1.62a12.83,12.83,0,0,1-5.32-2.1c-3.65-2.75-8-3.16-10.86-.57-3.13,2.8-3.51,7.44-.9,11.23.37.54.79,1,1.13,1.49-2.8,2.46-5.19,4.89-5.12,9.11C317.57,300.8,317.44,311.35,317.44,322.35Z" transform="translate(-85.5 -237.48)"/><path class="cls-1" d="M439.93,337.72l-7.06-.84v-2.63q0-16.6,0-33.19c0-4.34-1-5.58-5.15-6.27-2.35-.39-4.72-.65-7.23-1,5.35-4.75,2.46-10.46,2.71-15.89a10,10,0,0,1,10.15,8.21c1.67,8.56,3,17.19,4.5,25.77,1.37,7.63,2.7,15.26,2.2,23.07C440,335.77,440,336.57,439.93,337.72Z" transform="translate(-85.5 -237.48)"/><path class="cls-1" d="M324.39,241.21a4.48,4.48,0,0,1,4.85-2.39c11.89,1.15,23.82,1.94,35.7,3.2,12.94,1.38,25.84,3.07,38.74,4.78,11.91,1.58,23.81,3.3,35.69,5.08,5.84.87,11.63,2,17.64,3.08a4.17,4.17,0,0,1-4.93,2.33c-14-2.34-28.07-4.73-42.16-6.77-12.3-1.78-24.66-3.22-37-4.64-12-1.39-24.08-2.61-36.13-3.82C332.81,241.65,328.79,241.5,324.39,241.21Z" transform="translate(-85.5 -237.48)"/><path class="cls-1" d="M311.55,447.22v-3a21.35,21.35,0,0,1,2.26,0c.73.08,1.45.3,2.39.5-.46,3.21,1.81,3.18,4,3.38a69.17,69.17,0,0,1,8.08,1c2.18.46,3.45.18,3-2.62l5.32.67c-.56,3.25,1.61,3.54,4,3.83q21.32,2.63,42.63,5.35c4.17.52,8.33,1.07,12.5,1.56a24.88,24.88,0,0,0,2.78,0l.28-3,29.51,3.71.14,3a3.42,3.42,0,0,1-1.22.2,8.42,8.42,0,0,0-8.77,2.38,2.67,2.67,0,0,1-1.81.46c-1.64-.06-3.29-.2-4.93-.4-2.64-.33-5.54,0-6.93-3.26a3.7,3.7,0,0,0-2.65-1.51c-9.07-1.09-18.17-1.94-27.24-3.08q-17.51-2.2-35-4.76c-2.69-.39-5-.29-7,1.8a4.12,4.12,0,0,1-2.84.72c-1.55-.06-3.08-.53-4.63-.69-2.69-.27-5.22-.49-6.54-3.58-.41-1-2.12-1.51-3.35-2A26.74,26.74,0,0,0,311.55,447.22Z" transform="translate(-85.5 -237.48)"/><path class="cls-1" d="M323.8,483.56a33.68,33.68,0,0,1,9.72-9.74,41.19,41.19,0,0,1,31.1-6.73c24.56,4.29,40.68,18.65,47.6,42.55a44.12,44.12,0,0,1-16.9,48.58,9.7,9.7,0,0,1-3.33,1.59c.43-.34.84-.71,1.28-1,11.26-8.07,17-19.13,17.91-32.86,1.73-26-17.77-50.49-42-56.15-17.12-4-32.16-.3-44.24,13.08-.22.24-.46.47-.7.69C324.23,483.59,324.15,483.56,323.8,483.56Z" transform="translate(-85.5 -237.48)"/><path class="cls-1" d="M439.77,603.3a25.75,25.75,0,0,1,2.42-1,25.82,25.82,0,0,0,18-22.29c.25-3,.41-5.92.41-8.89q0-114.94,0-229.87v-3l.85-.06c.06.87.18,1.74.18,2.61q0,22,0,44.09c0,45.66-.07,91.32,0,137,0,15.65.69,31.3.77,47A62,62,0,0,1,461,583.94c-2.56,10.27-9.49,16.68-19.59,19.68a8.17,8.17,0,0,1-1.44.17Z" transform="translate(-85.5 -237.48)"/><path class="cls-1" d="M356.54,610.2c-12.83-2.28-25.38-4.79-37.2-9.61-11.63-4.74-18.44-14-18.57-26.6-.38-37.91-.17-75.82-.18-113.74a8.71,8.71,0,0,1,.11-1l.66-.22a9.67,9.67,0,0,1,.67,2.42c.06,5.95,0,11.89,0,17.84q0,38.78.05,77.56c0,6.68-.15,13.42.61,20,1.27,11.08,7.55,18.9,18.12,22.26,10.16,3.23,20.67,5.38,31,8C353.61,607.68,356,607.12,356.54,610.2Z" transform="translate(-85.5 -237.48)"/><path class="cls-1" d="M401.69,460.68l-2.31,4.27-67.24-8.36c3.08-4.77,7-3.67,11-3.12,16.8,2.28,33.63,4.36,50.45,6.48C396.22,460.27,398.83,460.42,401.69,460.68Z" transform="translate(-85.5 -237.48)"/><path class="cls-1" d="M310.24,328.29c2.36-4.76,2.36-4.76,7.13-3.77l-.14,2.57c3.22.5,6.49,1.08,9.78,1.5q21.32,2.73,42.64,5.39,22.55,2.82,45.11,5.59c3.83.48,7.66,1,11.5,1.43a6.82,6.82,0,0,0,5.28-1.23c1.28-.94,3.55-.51,5.39-.42-3.58,4.71-8.28,4.21-13.12,3.57-11.42-1.52-22.86-2.91-34.28-4.37-11.19-1.43-22.37-2.9-33.56-4.3-12.41-1.56-24.83-3.06-37.24-4.62C316,329.27,313.26,328.77,310.24,328.29Z" transform="translate(-85.5 -237.48)"/><path class="cls-1" d="M315.72,249.12a6.25,6.25,0,0,1,6.86-6.89c14.69,1.3,29.39,2.53,44.06,4.13,15.06,1.64,30.12,3.47,45.12,5.6,14.34,2,28.61,4.52,42.9,6.89,4.66.78,7.2,4.9,7.07,9.9-.21,8.42-.06,16.85-.07,25.27,0,.84-.11,1.67-.17,2.51l-.74,0c0-.8-.12-1.6-.12-2.4q0-12.64,0-25.27c0-5-2.33-7.89-7.29-8.66-19.35-3-38.69-6.15-58.09-8.87-14.93-2.09-29.92-3.75-44.91-5.35-9.26-1-18.57-1.52-27.86-2.23C318.67,243.49,316.87,245.87,315.72,249.12Z" transform="translate(-85.5 -237.48)"/><path class="cls-1" d="M388.89,288.67v-8.85l28.75,3.61v8.84Z" transform="translate(-85.5 -237.48)"/><path class="cls-1" d="M435.84,458.6V439.83c0-12.37.11-24.74-.08-37.11,0-3.05.74-5.06,3.92-6.13.06.68.16,1.35.16,2q0,25.36,0,50.71c0,3.56-1.51,6.6-3.4,9.46Z" transform="translate(-85.5 -237.48)"/><path class="cls-1" d="M376.33,605.06c-4,1.05-7.9,2-11.77,3.09-1.76.47-3.51,1.77-5.27,0a7.17,7.17,0,0,1-2-6.58c.66-3.86,3.73-6.21,7.72-6.28C370.51,595.2,376.61,600.64,376.33,605.06Z" transform="translate(-85.5 -237.48)"/><path class="cls-1" d="M447,280.33l-5-5.87c3.87-3.87,8-8,12.14-12.13.22-.22.69-.56.79-.5,1.28.94,2.84,1.73,3.64,3,.59.94.72,3,.09,3.72C454.78,272.69,450.73,276.56,447,280.33Z" transform="translate(-85.5 -237.48)"/><path class="cls-1" d="M326.13,288.61c12.42,1.59,24.74,3.17,37.06,4.72,7.27.92,14.56,1.73,21.82,2.7,1.36.18,3.67-.35,3.15,2.71-4.24-.51-8.45-1-12.65-1.52L341.69,293c-4.66-.59-9.31-1.23-14-1.8C326.3,291,325.58,290.45,326.13,288.61Z" transform="translate(-85.5 -237.48)"/><path class="cls-1" d="M322,284.79c.8-.65,1.11-1.12,1.36-1.09,34.52,4.29,69,8.61,104.07,13-.77.64-1.08,1.11-1.33,1.08C391.57,293.5,357.06,289.18,322,284.79Z" transform="translate(-85.5 -237.48)"/><path class="cls-1" d="M323,288.74a19.73,19.73,0,0,1,.33,2.49c0,3.63-.05,7.26,0,10.88.08,2.77.51,3,3.2,2.4a2,2,0,0,1,.73,0c.89.15,1.78.32,3,.55,0,3.39,0,6.83,0,10.26a2.29,2.29,0,0,1-.78,1.42c-2.19,2-4.43,3.91-6.94,6.11v-34Z" transform="translate(-85.5 -237.48)"/><path class="cls-1" d="M439.86,342c0,8.58,0,17.17,0,25.75,0,2.33-.58,2.52-3.14,1.07l-.57,2.17c-.13-.22-.25-.32-.25-.42,0-8.34-.18-16.68.1-25,0-1.4,2-2.73,3-4.1Z" transform="translate(-85.5 -237.48)"/><path class="cls-1" d="M425.76,346.57,313.61,332.43l.11-.9,112.14,14.13Z" transform="translate(-85.5 -237.48)"/><path class="cls-1" d="M396.35,451.37l8.45-2.76c5,5,10.88,7.89,18.43,6.55a76.35,76.35,0,0,1,8.93-.56c.66,2.54.05,3.37-2.93,3-9.81-1.16-19.61-2.39-29.42-3.61a2.58,2.58,0,0,1-1.3-.51C397.74,452.85,397.06,452.09,396.35,451.37Z" transform="translate(-85.5 -237.48)"/><path class="cls-1" d="M394.39,346l-14.33-1.71-.31.33a12.5,12.5,0,0,0,3,1.83,30.5,30.5,0,0,0,15.86-.26,29.18,29.18,0,0,1,4.23-.46l.21.79a28.54,28.54,0,0,1-3.73,1.62,32.54,32.54,0,0,1-17.8,0,5.57,5.57,0,0,1-2-.83,17.92,17.92,0,0,1-2-2.29c.8-.46,1.57-1,2.39-1.38,4.59-2.39,9.08.25,13.63.32a1.53,1.53,0,0,1,.83.45,1.84,1.84,0,0,1,.31.62Z" transform="translate(-85.5 -237.48)"/><path class="cls-1" d="M463.6,333.94c0-12.3,0-24.43.06-36.56,0-.93.83-1.85,1.27-2.77l.61.23c0,.62.09,1.25.09,1.87q0,17.09,0,34.18C465.64,332.26,465.67,333.57,463.6,333.94Z" transform="translate(-85.5 -237.48)"/><path class="cls-1" d="M425.29,304.42l-12.39-1.54-12.09-1.56V298.4c4.72.58,9.33,1.14,13.95,1.72,2.85.36,5.71.69,8.54,1.15C425.37,301.61,425.35,301.69,425.29,304.42Z" transform="translate(-85.5 -237.48)"/><path class="cls-1" d="M437,461.09c1.41-3.3,2.64-5.63,3.4-8.11a74,74,0,0,0,1.54-7.7h3.34c0,5.16-.91,10-3.78,14.11C440.79,460.37,438.79,460.45,437,461.09Z" transform="translate(-85.5 -237.48)"/><path class="cls-1" d="M344.17,338.22c-.38,1-.51,2.19-1.2,2.85a8.15,8.15,0,0,1-3.4,1.91,37.22,37.22,0,0,1-23-.76c-1.84-.67-3.44-1.76-2.29-4.39,3.92,4.81,9.32,4.71,14.62,4.77S339.55,342.44,344.17,338.22Z" transform="translate(-85.5 -237.48)"/><path class="cls-1" d="M316.11,449.29l-2.51,3.16c-3.46-1-7-1.88-10.54-2.93-2.48-.74-2.67-1.66-.93-3.63s4.83-1.24,6,1a3.1,3.1,0,0,0,1.9,1.19C311.9,448.56,313.83,448.85,316.11,449.29Z" transform="translate(-85.5 -237.48)"/><path class="cls-1" d="M405,345.59c1.25,1.93.14,3-1.05,3.68a16.62,16.62,0,0,1-5.45,2.16c-6.89,1-13.79,1.21-20.43-1.45-1.86-.74-3.45-1.73-2.37-4.26,5.28,5.44,12,5.11,18.55,4.51C401.28,349.59,403.25,348.41,405,345.59Z" transform="translate(-85.5 -237.48)"/><path class="cls-1" d="M374.1,341.25a2.1,2.1,0,0,1-1.41,3.28,54.53,54.53,0,0,1-8.56,2.17,33.35,33.35,0,0,1-16.8-1.77c-1.82-.71-3.43-1.73-2.34-4.38,3.87,4.83,9.37,4.68,14.5,4.74S369.9,345.18,374.1,341.25Z" transform="translate(-85.5 -237.48)"/><path class="cls-1" d="M374.29,288a41.57,41.57,0,0,1,2.56-3.71,2.4,2.4,0,0,1,1.81-.67c2.6.25,5.19.65,7.89,1v4.94Z" transform="translate(-85.5 -237.48)"/><path class="cls-1" d="M372.13,341.8a64,64,0,0,1-6.51,1.84,32.29,32.29,0,0,1-14.91-.64,13.49,13.49,0,0,1-3.31-1.6,1.67,1.67,0,0,1-.62-1.44c.1-.37.8-.71,1.29-.83a14,14,0,0,1,3.36-.49c.56,0,1.55.54,1.6.93.26,2,1.74,2.67,3.26,2.84A27.27,27.27,0,0,0,369.45,341a7.46,7.46,0,0,1,2.53,0Z" transform="translate(-85.5 -237.48)"/><path class="cls-1" d="M465.63,266.67c0,8.24,0,16.48-.05,24.72,0,.86-.78,1.71-1.19,2.56l-.78-.18V291c0-7.09,0-14.18,0-21.27a12.32,12.32,0,0,1,1-3.31Z" transform="translate(-85.5 -237.48)"/><path class="cls-1" d="M414.45,346.4c.18,3.13,2.32,3.92,4.6,4a68.06,68.06,0,0,0,9.79-.55c1.09-.14,2.07-1.2,3.1-1.84l.64.47c-.52.68-.91,1.77-1.58,2a31.29,31.29,0,0,1-20.32-.22,5.42,5.42,0,0,1-2-1.34c-.83-.88-.66-1.7.64-1.9C410.9,346.72,412.52,346.61,414.45,346.4Z" transform="translate(-85.5 -237.48)"/><path class="cls-1" d="M341.23,338.06c-2.37,2.67-5.52,3.25-8.52,3.26a95.75,95.75,0,0,1-13.18-1.14c-1.17-.16-2.27-1.22-3.25-2-.25-.21-.11-1.35.21-1.63s1.56-.33,1.69-.09c1.64,3,4.74,3,7.35,3,4.06,0,8.13-.74,12.2-1.15C338.89,338.16,340.06,338.13,341.23,338.06Z" transform="translate(-85.5 -237.48)"/><path class="cls-1" d="M391.17,296.87l4.39.57c.78,8.13.33,9.38-4.39,11.73Z" transform="translate(-85.5 -237.48)"/><path class="cls-1" d="M420.88,322.88,406.3,321.1v-.44h2.23c.77-1.7.29-2.56-1.49-2.81-.4-.06-.74-.6-.94-1.07,2.45.83,2.7.63,2.95-2.7.53.43,1.26.83,1.21,1-.44,1.61.29,2.57,1.74,2.49.53,0,1-1.48,1.62-2.55,0,0,.82.33.79.48-.3,1.47.06,2.67,1.65,2.56.53,0,1-1.53,1.51-2.48l3,3.66-2,1.62Zm-7.08-3c-1.15-.7-1.74-1.32-2.35-1.35-.42,0-.87.78-1.31,1.22.53.49,1,1.19,1.62,1.39C412.13,321.3,412.75,320.61,413.8,319.93Zm3.7-1.08a17.06,17.06,0,0,0-3,.8,1.78,1.78,0,0,0,.19,1.47c.4.38,1.5.72,1.64.55A12.12,12.12,0,0,0,417.5,318.86Z" transform="translate(-85.5 -237.48)"/><path class="cls-1" d="M406.67,348.24c2.6,4,6.65,4.4,10.41,4.58,5,.23,10-.37,15.07-.62.24,1.07.26,1.36-1.68,1.56a81.81,81.81,0,0,1-12.53.66,42,42,0,0,1-9.79-2.13C406.52,351.79,405.42,350.42,406.67,348.24Z" transform="translate(-85.5 -237.48)"/><path class="cls-1" d="M456.32,258.05c2.59-3.12,3.54-3.25,6.29-.82a12,12,0,0,1,2.35,2.82c1.8,3,1.55,3.88-1.68,6.16C462.21,262.49,460.2,259.54,456.32,258.05Z" transform="translate(-85.5 -237.48)"/><path class="cls-1" d="M342.71,440.74l6.54,4.77a33.25,33.25,0,0,1-3.84,0c-2.43-.29-4.7-.72-7.21.44-1.42.66-3.52-.17-5.77-.37C335.36,441.89,340.19,443.32,342.71,440.74Z" transform="translate(-85.5 -237.48)"/><path class="cls-1" d="M438.6,462.43c-5.42,5-12.15,2.48-19,3.43,1.8-2.25,3.18-3.22,5.59-3,2.92.27,5.94,1,8.79-1.1,1-.72,3-.12,4.5-.12Z" transform="translate(-85.5 -237.48)"/><path class="cls-1" d="M461,336.41v-38h.36v38Z" transform="translate(-85.5 -237.48)"/><path class="cls-1" d="M429.27,337.34V301h.46v36.36Z" transform="translate(-85.5 -237.48)"/><path class="cls-1" d="M423.43,313.42c-.89.44-1.82,1.32-2.65,1.24-4.39-.42-8.76-1.08-13.22-1.66.79-1.82,1.91-2.15,3.72-1.85,4,.67,8,1,11.94,1.49Z" transform="translate(-85.5 -237.48)"/><path class="cls-1" d="M308.07,444.35l-3.36-.72,3.36-15.72Z" transform="translate(-85.5 -237.48)"/><path class="cls-1" d="M367.64,453.2l-22.24-2.75v-.28c.46,0,1.14.13,1.36-.12,2.3-2.55,4.42-.86,6.87-.15,3.44,1,7.11,1.16,10.68,1.69,1.17.17,2.33.39,3.49.59Z" transform="translate(-85.5 -237.48)"/><path class="cls-1" d="M405.26,278.74v-2.56l12,1.58C415.54,281.08,415.06,280.06,405.26,278.74Z" transform="translate(-85.5 -237.48)"/><path class="cls-1" d="M395.79,456.78l-22-2.77-.06-.57a8.51,8.51,0,0,1,2-.34c6.14.43,12.29.86,18.42,1.46.72.07,1.33,1.19,2,1.83Z" transform="translate(-85.5 -237.48)"/><path class="cls-1" d="M319.54,335.75c1.6-1.49,12.4-.18,13.83,1.68C328.58,338.5,324,338.29,319.54,335.75Z" transform="translate(-85.5 -237.48)"/><path class="cls-1" d="M370.64,287.31c2.11-1,3.51-2.64,2.68-4.86a7,7,0,0,0-3.43-3.66c-1.86-.8-3.7.14-4.66,2.48.2-2.82,1.82-4.21,4.54-4.16a5.69,5.69,0,0,1,5.55,5.25C375.54,284.91,373.66,287,370.64,287.31Z" transform="translate(-85.5 -237.48)"/><path class="cls-1" d="M330.72,317.25l1.22,1.38c-2.6,2.31-5.08,4.57-7.65,6.74-.44.37-1.22.34-1.85.5.2-.63.21-1.46.62-1.85C325.53,321.74,328.08,319.56,330.72,317.25Z" transform="translate(-85.5 -237.48)"/><path class="cls-1" d="M438.09,468a4.27,4.27,0,0,1,1.6-5.12,48.32,48.32,0,0,0,4.68-5C443.63,462,442.1,465.62,438.09,468Z" transform="translate(-85.5 -237.48)"/><path class="cls-1" d="M431.48,470.44v-3.68l4.6-.92C436.89,469.75,436.34,470.32,431.48,470.44Z" transform="translate(-85.5 -237.48)"/><path class="cls-1" d="M330.62,445c-1,1.39-5.58,1.66-8.84.22-.53-.23-.79-1.07-1.53-2.15Z" transform="translate(-85.5 -237.48)"/><path class="cls-1" d="M422.57,281.76c-.7,3.14,1.21,6.53-1.63,9.4C419.56,287.87,420.39,282.83,422.57,281.76Z" transform="translate(-85.5 -237.48)"/><path class="cls-1" d="M309.86,442.62l3.81-2.82,4.3,2.64C315.24,444.14,312.81,442.79,309.86,442.62Z" transform="translate(-85.5 -237.48)"/><path class="cls-1" d="M409.75,527.53a62.59,62.59,0,0,0-3.58-22.92C409.05,509.24,410.83,519.61,409.75,527.53Z" transform="translate(-85.5 -237.48)"/><path class="cls-1" d="M314,254.21c2.58-3.35,4.5-6.83,7.6-9.37C320.58,248.23,316,253.81,314,254.21Z" transform="translate(-85.5 -237.48)"/><path class="cls-1" d="M424.71,314.18c-.82,2.79,1.09,5.67-1.77,7.65C421.81,318.36,422.28,315.73,424.71,314.18Z" transform="translate(-85.5 -237.48)"/><path class="cls-1" d="M376.61,279l-2.51-2.89a3.79,3.79,0,0,1,5.1.53Z" transform="translate(-85.5 -237.48)"/><path class="cls-1" d="M403.71,276.9,399,278.65l-.69-3.35,5.2.67Z" transform="translate(-85.5 -237.48)"/><path class="cls-1" d="M375.74,450.27l-4.86-.51L375,446.3Z" transform="translate(-85.5 -237.48)"/><path class="cls-1" d="M324.88,278.71c-2.52-2.71-2.44-4.71,0-6.89Z" transform="translate(-85.5 -237.48)"/><path class="cls-1" d="M429.69,472.53H418.56v-.39h11.16Z" transform="translate(-85.5 -237.48)"/><path class="cls-1" d="M416,347.77l7.9.53C422.52,350,418.58,349.76,416,347.77Z" transform="translate(-85.5 -237.48)"/><path class="cls-1" d="M342.57,446.29l4.11.5c-.2,2.36-1.88,2-3.26,1.7-.59-.14-1-1.06-1.49-1.62Z" transform="translate(-85.5 -237.48)"/><path class="cls-1" d="M330.19,272.84c2.08,2.09,2.25,3.47.89,5.92C328.35,277.14,331.34,274.67,330.19,272.84Z" transform="translate(-85.5 -237.48)"/><path class="cls-1" d="M350.11,282.23l-12.83-1.59.07-.62,12.83,1.62Z" transform="translate(-85.5 -237.48)"/><path class="cls-1" d="M440,387.67l-2-.15v-3.13C440.59,384.34,440.76,384.63,440,387.67Z" transform="translate(-85.5 -237.48)"/><path class="cls-1" d="M362.72,340.65c-2.19,1.44-5.72,1.18-8.33-.65Z" transform="translate(-85.5 -237.48)"/><path class="cls-1" d="M372.75,445c0,2.45-2.1,3.16-3.86,4.85C369.12,446.93,371.39,446.33,372.75,445Z" transform="translate(-85.5 -237.48)"/><path class="cls-1" d="M376.24,607.53l-8.32,1.1C370.62,607.65,373.27,606.22,376.24,607.53Z" transform="translate(-85.5 -237.48)"/><path class="cls-1" d="M434.34,346.24l-6.18.75-.1-.79,6.11-.88Z" transform="translate(-85.5 -237.48)"/><path class="cls-1" d="M364.13,446.9a36.76,36.76,0,0,1-3.92-.06c-.22,0-.36-.87-.53-1.33.48-.13,1.05-.51,1.42-.36A25.93,25.93,0,0,1,364.13,446.9Z" transform="translate(-85.5 -237.48)"/><path class="cls-1" d="M224.75,261.49c-6.69,7.12-7.76,16.06-7.85,25-.38,35.83-.43,71.66-.54,107.49-.06,18.16,0,36.33,0,54.49,0,.64-.07,1.28-.11,2-5.59,0-11,.29-16.43-.06-11.43-.75-22.87-1.56-34.25-2.86-13.91-1.59-27.8-3.42-41.61-5.69-10.78-1.77-21.42-4.4-32.13-6.57-1.91-.39-2.41-1.29-2.41-3.2.06-33.2,0-66.39.06-99.59,0-5.09.41-10.19.42-15.28,0-8.8-.3-17.61-.13-26.41.22-11.45.38-23,3.75-34,1.06-3.49,3-6.71,4.77-10a2.69,2.69,0,0,1,2.13-1.15c14.28,1.31,28.56,2.59,42.81,4.14,12.44,1.35,24.88,2.85,37.27,4.6,14.17,2,28.3,4.36,42.44,6.58A14.59,14.59,0,0,1,224.75,261.49Zm-79.34,6.68c-.41,6.17,1.84,9.7,5.65,11a8.14,8.14,0,0,0,9.58-3.69,21.77,21.77,0,0,0,2.07-5.22c.79-2.59,1.32-5.25,2.09-7.84s.62-3.22-2.13-3.58c-3.75-.5-7.5-1.05-11.26-1.29a3.56,3.56,0,0,0-2.89,1.53C147.09,262.66,146,266.35,145.41,268.17Z" transform="translate(-85.5 -237.48)"/><path class="cls-1" d="M224.28,447.32c0-.48-.06-1-.06-1.43-.07-42.93-.22-85.87-.15-128.8,0-10.71.61-21.43,1.23-32.13.29-5.11,1.31-10.16,4.86-14.25.19-.22.44-.4,1.05-1v3.29q0,77.43.08,154.85c0,4.92,0,9.71-2.17,14.16-1,2.07-2.68,3.8-4,5.69Z" transform="translate(-85.5 -237.48)"/><path class="cls-1" d="M217.57,450.41v-3.12q0-49,0-98.05c0-12.21-.09-24.42,0-36.62.1-10.13.24-20.28.78-30.39.36-6.86,1.7-13.55,6.49-19,1.5-1.72,2.65-1.49,4.12-.3,2.69,2.16,2.87,4.14.55,6.68-3.64,4-5,9-5.23,14.1-.63,15.65-1.18,31.32-1.28,47-.19,32.2,0,64.4-.06,96.6,0,6-.15,12-.19,18.06C222.76,449.87,222.78,449.87,217.57,450.41Z" transform="translate(-85.5 -237.48)"/><path class="cls-1" d="M97.12,246.13c-4.56,6.48-6.34,13.92-7.06,21.52-.89,9.34-1.12,18.75-1.6,28.13-.09,1.81,0,3.63,0,5.45-.14,8-.45,16-.44,23.94q.11,52.6.38,105.2a7.41,7.41,0,0,1-.58,3.39,4.71,4.71,0,0,1-.81-1.36,11.53,11.53,0,0,1,0-2.22q0-72.69.07-145.37c0-9.14,0-18.37,2.53-27.23,1-3.61,3.38-6.85,5.24-10.21.37-.68,1.22-1.09,1.85-1.63Z" transform="translate(-85.5 -237.48)"/><path d="M424.76,569.84c0,2.06,0,4.13,0,6.19,0,6.16-3.86,10-10,9.53-5.92-.4-11.82-1.06-17.71-1.74a6.17,6.17,0,0,1-5.44-5.29c-.4-2.73.49-4.25,3.59-5.71a57.89,57.89,0,0,0,18.36-13.61c2.12-2.34,4.58-3.2,7.53-2s3.83,3.62,3.67,6.63c-.1,2,0,4,0,5.94Zm-4.82.83c0-2.15.14-4.31-.06-6.44-.09-.93-.69-2.27-1.39-2.54s-2,.46-2.62,1.13A61.21,61.21,0,0,1,396.7,577c-.77.36-1.27,1.29-1.89,2,.83.56,1.61,1.49,2.5,1.61,5.55.72,11.12,1.38,16.71,1.8,3.51.26,5.76-2,5.9-5.53C420,574.8,419.93,572.73,419.93,570.67Zm-26,9.89c-1.13-2.68.37-3.81,2.44-4.77a57.25,57.25,0,0,0,17.84-13.08c3.13-3.33,3.44-3.33,7.09-.59l1.67-1.31c-2.36-3.47-5.53-3.95-8.28-1a63.08,63.08,0,0,1-19.61,14.41C392.32,575.47,392,577.64,394,580.56Zm28.79-3.92a14.26,14.26,0,0,0-2.08,2.72c-1.14,2.57-3.08,4.1-5.85,4.09-1.72,0-3.45-.15-5.16-.32-4.8-.48-9.59-1-14.39-1.5l-.09.61c2,.3,4,.7,6,.89,5,.48,10,1.07,15,1.23A6.4,6.4,0,0,0,422.78,576.64Zm.57-1.39V562.78l-.59-.36c-.58.79-1.63,1.55-1.67,2.36-.18,3.75-.08,7.52-.08,11.47Z" transform="translate(-85.5 -237.48)"/><path d="M453.4,518.84c-.22,2.6-.47,5-.62,7.48-.32,5.33-5.21,6.56-8.38,9.32-.27.23-1.43-.29-2-.73a2.28,2.28,0,0,1-.49-1.61c.06-5.19,0-10.39.41-15.55.13-1.53,1.53-3.13,2.7-4.35a36.65,36.65,0,0,1,4.67-3.65c1.61-1.21,2.69-.68,2.94,1.18C453,513.59,453.17,516.29,453.4,518.84Z" transform="translate(-85.5 -237.48)"/><path d="M324.47,512.93c.28-16.81,10.53-30.26,26.34-33.37,13.86-2.73,25.94,1.61,36.1,11.13,8.86,8.31,13.76,18.66,14,30.89.31,17.73-11.36,31.77-28.29,34.16-20.45,2.89-42.11-11.66-46.71-34.08C325.29,518.77,324.93,515.84,324.47,512.93Zm54.68,37.39a14.66,14.66,0,0,0,2.84-.72c4.16-2,7.15-5.27,9.56-9.06,9.54-15,4.4-35-7.89-46-1.69-1.52-4.64-2.23-7-2.26-5.57-.07-8.7,3.87-11.06,8.27a46.19,46.19,0,0,0-5.41,21.09c-.16,7.53.56,15,4.22,21.81,3.06,5.71,9,8.42,14.84,6.8Zm-30.91-30h.09c0-5.52.21-11.05-.07-16.56a42.44,42.44,0,0,0-1.78-10.62c-1.2-3.77-4.34-4.41-7.41-1.85a29.67,29.67,0,0,0-8.87,12c-5.36,13.62-.48,28.78,10.36,39.39,1.48,1.45,3.26,3.41,5.56,2.37s2.07-3.74,2.09-5.92C348.28,532.8,348.23,526.53,348.23,520.26Zm-2.44,28.17c9.9,5.48,19.7,7.81,30.36,3.85-9.24-.8-13.35-6.88-15.42-14.87a51.59,51.59,0,0,1,.38-28.81c2.75-8.75,5.89-17.57,17.6-17.84-9-7.86-25.85-10-35.27-4.26,4.3,1,5.91,4.23,6.6,7.84a63.78,63.78,0,0,1,1.17,11.53q.14,18.31-.17,36.63C351,546.26,349.38,547.89,345.8,548.43Zm9-67.31c13.07.3,24.23,4.9,32.78,15s12,21.65,10,34.78c3.75-13.3.24-25.07-8.29-35.34C380.37,484.87,368.85,479.73,354.78,481.12Zm-9.4,65.73c2,.63,3.14-.12,3.67-1.49a13.68,13.68,0,0,0,1-4.54c.16-10,.28-20.1.25-30.14,0-4.5-.4-9-.61-13.49a3.4,3.4,0,0,0-.51,2.18c.15,12.86.4,25.71.36,38.57C349.52,541.21,349.82,545,345.38,546.85ZM326.8,517.67q0-1.22,0-2.43a31.36,31.36,0,0,1,10.48-24.11c1.84-1.68,3.87-2.89,6.45-2.32a18.12,18.12,0,0,1,3.25,1.5c-2.93-3.46-6.28-3.33-9.95-.11C328.73,497.5,325.74,506.83,326.8,517.67Z" transform="translate(-85.5 -237.48)"/><path d="M413.8,319.93c-1.05.68-1.67,1.37-2,1.26-.62-.19-1.09-.9-1.62-1.39.44-.44.9-1.24,1.31-1.22C412.06,318.61,412.65,319.23,413.8,319.93Z" transform="translate(-85.5 -237.48)"/><path d="M417.5,318.86a12.12,12.12,0,0,1-1.19,2.82c-.14.18-1.24-.17-1.64-.55a1.78,1.78,0,0,1-.19-1.47A17.06,17.06,0,0,1,417.5,318.86Z" transform="translate(-85.5 -237.48)"/><path d="M145.41,268.17c.6-1.82,1.68-5.52,3.12-9.07a3.56,3.56,0,0,1,2.89-1.53c3.77.24,7.52.8,11.26,1.29,2.75.37,2.95.85,2.13,3.58s-1.31,5.25-2.09,7.84a21.77,21.77,0,0,1-2.07,5.22,8.14,8.14,0,0,1-9.58,3.69C147.26,277.88,145,274.35,145.41,268.17Zm3.69-.47c-2,1.32-2.35,2.63-1.63,5.27a6.62,6.62,0,0,0,5.89,4.83,6.44,6.44,0,0,0,5.66-2.92C153.15,274.32,151.94,273.41,149.1,267.7Zm2.16-1.21c2.57-2.88,5.36-3.31,7.21-1.15a5.17,5.17,0,0,1,1.26,3.54c-.16,1.32-1.22,2.54-1.8,3.62,2.07-.17,3.46-1.77,3.62-4.57a5.64,5.64,0,0,0-4.73-5.53C154.41,261.94,152.31,263.32,151.26,266.49ZM162.87,264l-.17-3.13-10.62-1.42c-.14,0-.29.09-.59.19,0,.42-.11.89-.12,1.37s.06,1,.1,1.66C156,259.67,158.64,259.91,162.87,264Z" transform="translate(-85.5 -237.48)"/><path class="cls-1" d="M419.93,570.67c0,2.06.06,4.13,0,6.19-.14,3.51-2.39,5.79-5.9,5.53-5.58-.42-11.15-1.08-16.71-1.8-.89-.11-1.67-1.05-2.5-1.61.62-.67,1.12-1.6,1.89-2a61.21,61.21,0,0,0,19.16-14.2c.62-.67,2-1.38,2.62-1.13s1.3,1.61,1.39,2.54C420.07,566.36,419.93,568.52,419.93,570.67Z" transform="translate(-85.5 -237.48)"/><path class="cls-1" d="M394,580.56c-2-2.92-1.66-5.09,1.15-6.38a63.08,63.08,0,0,0,19.61-14.41c2.74-2.9,5.92-2.43,8.28,1l-1.67,1.31c-3.65-2.74-4-2.74-7.09.59a57.25,57.25,0,0,1-17.84,13.08C394.35,576.75,392.86,577.87,394,580.56Z" transform="translate(-85.5 -237.48)"/><path class="cls-1" d="M422.78,576.64a6.4,6.4,0,0,1-6.63,7.72c-5-.17-10-.75-15-1.23-2-.19-4-.59-6-.89l.09-.61c4.8.5,9.59,1,14.39,1.5,1.72.17,3.44.32,5.16.32,2.77,0,4.71-1.52,5.85-4.09A14.26,14.26,0,0,1,422.78,576.64Z" transform="translate(-85.5 -237.48)"/><path class="cls-1" d="M423.35,575.25l-2.34,1c0-4-.1-7.72.08-11.47,0-.81,1.09-1.58,1.67-2.36l.59.36Z" transform="translate(-85.5 -237.48)"/><path class="cls-1" d="M348.23,520.26c0,6.27,0,12.53,0,18.8,0,2.18.3,4.85-2.09,5.92s-4.09-.92-5.56-2.37c-10.84-10.62-15.72-25.78-10.36-39.39a29.67,29.67,0,0,1,8.87-12c3.07-2.57,6.21-1.93,7.41,1.85a42.44,42.44,0,0,1,1.78,10.62c.28,5.51.07,11,.07,16.56Z" transform="translate(-85.5 -237.48)"/><path class="cls-1" d="M345.8,548.43c3.58-.54,5.19-2.17,5.25-5.94q.29-18.31.17-36.63A63.78,63.78,0,0,0,350,494.34c-.69-3.61-2.3-6.87-6.6-7.84,9.43-5.74,26.3-3.6,35.27,4.26-11.71.27-14.84,9.09-17.6,17.84a51.59,51.59,0,0,0-.38,28.81c2.07,8,6.19,14.06,15.42,14.87C365.49,556.24,355.69,553.91,345.8,548.43Zm17.69-55.38c-.05-2.59-2.14-4.84-4.39-4.75-3,.13-5.58,3.27-5.47,6.55.09,2.6,2.1,4.77,4.4,4.76C360.83,499.6,363.55,496.33,363.48,493.05Z" transform="translate(-85.5 -237.48)"/><path class="cls-1" d="M379.22,550.25c-5.83,1.63-11.78-1.09-14.84-6.8-3.66-6.83-4.37-14.27-4.22-21.81a46.19,46.19,0,0,1,5.41-21.09c2.36-4.4,5.49-8.34,11.06-8.27,2.38,0,5.33.75,7,2.26,12.29,11,17.43,31,7.89,46-2.41,3.79-5.4,7.09-9.56,9.06a14.51,14.51,0,0,1-2.83.71c5.88-2.4,9.78-6.9,12.62-12.33,6.68-12.8,3.58-30-7.32-41.37-5-5.22-11.45-4.85-15.45,1.23a42,42,0,0,0-4.11,8.92,47.24,47.24,0,0,0,.22,33.81C368.09,548.35,371.09,550.25,379.22,550.25Z" transform="translate(-85.5 -237.48)"/><path class="cls-1" d="M354.78,481.12c14.07-1.39,25.59,3.76,34.46,14.44,8.53,10.27,12,22,8.29,35.34,2.06-13.13-1.44-24.71-10-34.78S367.85,481.42,354.78,481.12Z" transform="translate(-85.5 -237.48)"/><path class="cls-1" d="M345.38,546.85c4.44-1.83,4.14-5.64,4.15-8.91,0-12.86-.22-25.71-.36-38.57a3.4,3.4,0,0,1,.51-2.18c.21,4.5.6,9,.61,13.49,0,10-.09,20.1-.25,30.14a13.68,13.68,0,0,1-1,4.54C348.52,546.73,347.4,547.47,345.38,546.85Z" transform="translate(-85.5 -237.48)"/><path class="cls-1" d="M326.8,517.67c-1.06-10.84,1.93-20.17,10.23-27.47,3.67-3.22,7-3.35,9.95.11a18.12,18.12,0,0,0-3.25-1.5c-2.58-.57-4.61.64-6.45,2.32a31.36,31.36,0,0,0-10.48,24.11Q326.8,516.45,326.8,517.67Z" transform="translate(-85.5 -237.48)"/><path class="cls-1" d="M149.1,267.7c2.84,5.71,4,6.62,9.92,7.18a6.44,6.44,0,0,1-5.66,2.92,6.62,6.62,0,0,1-5.89-4.83C146.75,270.33,147.15,269,149.1,267.7Z" transform="translate(-85.5 -237.48)"/><path class="cls-1" d="M151.26,266.49c1-3.16,3.15-4.55,5.56-4.09a5.64,5.64,0,0,1,4.73,5.53c-.15,2.8-1.54,4.4-3.62,4.57.58-1.09,1.64-2.3,1.8-3.62a5.17,5.17,0,0,0-1.26-3.54C156.62,263.18,153.83,263.61,151.26,266.49Z" transform="translate(-85.5 -237.48)"/><path class="cls-1" d="M162.87,264c-4.23-4.06-6.85-4.3-11.4-1.34,0-.63-.1-1.15-.1-1.66s.08-.95.12-1.37c.29-.1.45-.21.59-.19l10.62,1.42Z" transform="translate(-85.5 -237.48)"/><path d="M363.48,493.05c.07,3.27-2.66,6.55-5.46,6.56-2.3,0-4.31-2.16-4.4-4.76-.11-3.28,2.52-6.42,5.47-6.55C361.35,488.21,363.43,490.46,363.48,493.05Zm-8.16,1.64c1.49,1.17,2.33,2.38,3.16,2.38,2,0,2.63-1.7,2.72-3.43.07-1.31-.49-2.86-2-2.37C357.93,491.7,357,493.16,355.32,494.69Z" transform="translate(-85.5 -237.48)"/><path d="M379.22,550.25c-8.14,0-11.13-1.9-14.11-9.67a47.24,47.24,0,0,1-.22-33.81,42,42,0,0,1,4.11-8.92c4-6.08,10.44-6.46,15.45-1.23,10.89,11.36,14,28.57,7.32,41.37-2.84,5.43-6.74,9.93-12.62,12.33Zm-16.13-25.84c.09,1.12.2,3.26.45,5.38a34.18,34.18,0,0,0,4.64,14.45c3.47,5.54,10,6.61,14.92,2.5a29.05,29.05,0,0,0,11-22.07c.4-10.79-3.74-19.92-11-27.72a7.7,7.7,0,0,0-6.6-2.76c-4.09.45-6.37,3.29-8,6.6A51.37,51.37,0,0,0,363.09,524.41Z" transform="translate(-85.5 -237.48)"/><path class="cls-1" d="M355.32,494.69c1.67-1.53,2.61-3,3.9-3.42,1.49-.49,2,1.06,2,2.37-.09,1.73-.73,3.43-2.72,3.43C357.65,497.07,356.81,495.86,355.32,494.69Z" transform="translate(-85.5 -237.48)"/><path class="cls-1" d="M363.09,524.41a51.37,51.37,0,0,1,5.42-23.61c1.66-3.31,3.93-6.16,8-6.6a7.7,7.7,0,0,1,6.6,2.76c7.25,7.8,11.39,16.93,11,27.72a29.05,29.05,0,0,1-11,22.07c-5,4.11-11.45,3-14.92-2.5a34.18,34.18,0,0,1-4.64-14.45C363.29,527.67,363.18,525.53,363.09,524.41Z" transform="translate(-85.5 -237.48)"/></svg>