<svg id="Layer_1" data-name="Layer 1" xmlns="http://www.w3.org/2000/svg" viewBox="0 0 576 1187.98"><defs><style>.cls-1,.cls-6{fill:#fff;}.cls-10,.cls-11,.cls-12,.cls-2,.cls-3,.cls-7,.cls-9{fill:none;}.cls-10,.cls-11,.cls-12,.cls-13,.cls-2,.cls-3,.cls-4,.cls-5,.cls-6,.cls-7,.cls-8,.cls-9{stroke:#000;stroke-miterlimit:10;}.cls-2,.cls-4,.cls-5{stroke-width:2.83px;}.cls-3{stroke-width:5.67px;}.cls-13,.cls-4{fill:#020202;}.cls-10,.cls-6{stroke-width:1.42px;}.cls-7{stroke-width:4.25px;}.cls-8{stroke-width:17.01px;}.cls-9{stroke-width:0.71px;}.cls-11{stroke-width:3.54px;}.cls-12{stroke-width:0.85px;}.cls-13{stroke-width:1.13px;}</style></defs><title>yfm40</title><path class="cls-1" d="M710.83,229.55V2.57h-576v75l105.4-.14h7.65l0,2.14h-113v550H195.6v2H134.83q0,279.5,0,559h576V943.7c-2.76,3.77-10.13,1-8.82-4.48.15-.62.27-1.25.37-1.87a4.41,4.41,0,0,1-2.76-2.25V938q0,109.24,0,218.47c0,1.5.06,3-.06,4.5-.78,9.93-7.75,16.58-17.75,16.58q-112.48.06-225,0c-10,0-16.93-6.69-17.5-16.75-.28-5-.09-10-.09-15q0-43.74,0-87.49a23,23,0,0,1,.13-4c.11-.63.88-1.14,1.35-1.7.62.6,1.6,1.11,1.77,1.82a17.4,17.4,0,0,1,.13,4q.06,49.49.12,99c0,12,5,16.88,17.06,16.88q110,0,220,0c11,0,16.24-5.11,16.25-16.18q.08-118.23.07-236.46.07-211.47.14-422.94c0-35.49-.07-71,0-106.48,0-3.89,1-7.79,1.55-11.68v0l-9.08,15c.43,2.51,1.24,5,1.24,7.53q.1,288.74.08,577.47,0,86,.06,172c0,10.59-3.68,14.24-14.41,14.24h-214c-8.19,0-11.78-3.41-12.08-11.69-.14-3.83,0-7.67,0-11.5q0-42.5,0-85,0-2.69,0-5.37l1.23-.13c.13,1.73.37,3.45.37,5.18q.1,45.75.15,91.49a57.27,57.27,0,0,0,.2,6c.73,6.78,3.15,9,10,9q108,0,216,0c7.71,0,10.79-3.47,10.79-12.18q.07-104.49.09-209,0-75.75,0-151.49c0-2,0-3.92,0-6.13H451.74V887.71a4.38,4.38,0,0,1,1.94-1.64,3.94,3.94,0,0,1,5.67-.51c4,3.06,10.06,2.46,14.84,2.2,5.35-.29,10.66-1.1,16-1.47,4-.28,7.94-.26,11.91-.5a63.06,63.06,0,0,0,7.56-.76c.94-.17,1.88-.48,2.82-.64s1.94-1.37,1,0a5.08,5.08,0,0,1,7.85-1,24.21,24.21,0,0,1,3.78,4.35,5.43,5.43,0,0,1,.54,1.05h.88L533,867.51l1.16.33L528,888l1.9,1.33c1.07-1,2.64-1.79,3.13-3,2.57-6.42,6.74-9.63,13.66-9.66q23-.11,46,0c8.17,0,14,5.59,14.1,13.1s-5.63,13.39-13.74,13.48q-23.5.28-47,0c-6.64-.08-10.78-3.57-12.14-9.34.3-.09.85-.31.88-.25,5.26,9.42,14.51,7.11,22.62,7.35,11.48.33,23-.07,34.48-.19,7.57-.08,12.39-4.19,12.55-10.6S599.6,879.05,591.86,879q-22-.15-44,0c-7.68,0-10.92,2.61-12.66,10h11.52l0,1.6H526c-.29,3.77-5.91,6.21-9,2.8a34.48,34.48,0,0,1-9.22,1.94c-5.33.61-10.69.6-16,.88-10.19.53-24.46,4.6-34.43-.17a5.44,5.44,0,0,1-1.25.14,4.52,4.52,0,0,1-3.9-2,4.89,4.89,0,0,1-1.06-1.9,5,5,0,0,1-.76,1.7h.5v152.77l-.85-.14V894.44a4.61,4.61,0,0,1-3.51,1.44,4.76,4.76,0,0,1-4.82-5.29h-2.77c.47,2.77-1.12,6-4.75,6a4.56,4.56,0,0,1-3.89-1.91c-18.73,2.65-37.59,1-56.44.91a4.67,4.67,0,0,1-3.33-1.27,5.2,5.2,0,0,1-1.67.27c-6.45,0-6.43-10,0-10a4.62,4.62,0,0,1,3.31,1.26,5.24,5.24,0,0,1,1.69-.26c18.5.06,37.29,2.07,55.67-.82a5.15,5.15,0,0,1,4.89,1.83,4.51,4.51,0,0,1,4.18,2.83h.68v-4.61q0-81.75,0-163.49a17,17,0,0,1,.07-3.49,8,8,0,0,1,1.36-2.25c.63.76,1.59,1.43,1.8,2.29a16.81,16.81,0,0,1,.1,4c0,55.22,0,110.43,0,166a4.55,4.55,0,0,1,3.91-1.94,4.66,4.66,0,0,1,3.35,1.27v-171h1.24v66.27h237.2V554.65H451.56v35.89h208c8.87,0,11.29,2.4,11.29,11.19q0,32,0,64c0,6.68-2.84,9.78-9.16,9.79q-51.75.08-103.5,0a22.64,22.64,0,0,1-2.41-.25l-.33-1.51c2-.5,4.09-1.42,6.14-1.43,26.67-.1,53.33-.06,80-.06,6.5,0,13,0,19.5,0,4.53,0,6.65-2,6.63-6.7q-.12-32.5,0-65c0-4.61-2-6.82-6.58-6.77-1,0-2,0-3,0h-475c-1.17,0-2.33,0-3.5,0-4,.12-6.07,2-6,6.23q.18,12.5,0,25c0,1.21-1,2.4-1.55,3.6-.56-1.18-1.57-2.35-1.59-3.54q0-1.27,0-2.55c-.09-6.82,0-13.63,0-20.45,0-9.25,2.29-11.56,11.44-11.56H439.25c0-2.51,0-4.47,0-6.43,0-20.83,0-41.66.07-62.5,0-1.58.94-3.15,1.45-4.73.62,1.63,1.76,3.26,1.77,4.89.11,20.67.06,41.33.05,62,0,2,0,4,0,6.36h7V517.6l1.28-.1c.11,1.44.31,2.89.32,4.33,0,7.83.33,15.68-.09,23.49-.27,5,1.58,6.62,6.23,5.86,1.12-.18,2.26-.23,3.74-.38v-23l-5.14-.53v-9.94h1.18a33.1,33.1,0,0,0,.09,5.71c.17,1,1.33,1.78,2,2.67.71-.87,1.81-1.64,2.05-2.63.41-1.69.29-3.51,1.52-5.24,0,8.72-.17,17.45.11,26.16.07,2.37-2.07,6.8,2.08,6.83,4.81,0,2.21-4.66,2.37-7.11.41-6.27.14-12.58,1.22-18.91v26.35h23.92q87,0,174,.1c4.51,0,5.92-1.11,5.89-5.81-.2-37.16-.11-74.33-.17-111.49,0-2.35-.49-4.7.18-7.57.46,1.32,1.32,2.64,1.33,4,.09,16.17.06,32.33.06,48.5q0,35.73,0,71.5c4.18,1.91,4.62-.3,4.61-3.49-.06-16.17,0-32.33,0-48.5,0-22.33.05-44.67-.1-67,0-3.78,1.65-8.47-3.63-10.66-.21-.09.14-1.52.23-2.32-1.06,1.44-2.25,2.8-3.17,4.32q-16.92,27.92-33.79,55.87A8,8,0,0,1,634.3,482a10.54,10.54,0,0,1,.76-2.72q37.33-61.89,74.74-123.73a5.88,5.88,0,0,1,1-1v-122c-8.45-.17-16.89-.45-25.34-.49-14.78-.07-29.57,0-44.35,0a29.34,29.34,0,0,1-3.11-.32l0-1.6ZM572.28,833.77v7.58h-5.52l-.24-5.19Zm-28,23.62c10.27-11.24,35.41-13.19,48.11-2C576,846.34,559.92,846.8,544.3,857.39Zm109.43,255.68a16.76,16.76,0,1,1-16.78-16.73A16.65,16.65,0,0,1,653.73,1113.08Zm-34.2-229.31c.08-.3,3-.3,3.05,0,.81,2.89,1.31,5.87,2,9.5h-7.17C618.14,889.81,618.68,886.74,619.53,883.76Zm5.37,125.79c6,0,12,.13,18,0,4.48-.13,4.08,2.83,4,5.71s.76,6.23-4.09,6.19c-11.66-.11-23.32-.13-35,0-5.17.06-4.19-3.44-4.33-6.51s.15-5.6,4.39-5.42C613.56,1009.72,619.23,1009.55,624.9,1009.55Zm-28.42-89c15.72-13.95,17.74-31.32,9.11-50.9,10.28,12.3,7.44,35.74-5.34,49.27-14,14.81-38,17.59-53,5.94C564.74,933.7,581.58,933.72,596.48,920.5ZM557.08,1001c8.14-.4,16.33-.32,24.48,0,6,.25,10.35,4.17,11.89,9.76a12.91,12.91,0,0,1-5,13.67,3.53,3.53,0,0,1-2.23.32c5-6,8.44-12.13,1.73-18.68-3.45-3.36-7.8-3.85-12-1.62-6.21,3.27-6.71,8.85-4.7,15.9-4.26-5.89-3.34-10.46,3.17-17.86-6.08,0-11.41-.13-16.73,0a11.41,11.41,0,0,0-.4,22.82c2.93.21,5.88,0,8.8.39-11.33,3.65-21-1.59-21.37-11.18C544.44,1007.29,549.44,1001.4,557.08,1001Zm36.44-116.7c1.86,2.57,4,4.28,3.71,5.44-.36,1.56-2.56,2.69-4,4-1.18-1.34-3.2-2.62-3.29-4S591.75,886.86,593.52,884.32Zm-60.27,133.26-3.84-.35v-5.82l4.16-.25Zm3.91-101c-5.37-6.64-8.53-13.88-9.18-21.78Zm-15.64,95.22c1.85-2.27,4.27-1.83,6.19.66-2,.33-3.77.57-5.51,1a4.56,4.56,0,0,0,.19,2.14,47.17,47.17,0,0,0,5.26.6c-1.89,2.69-4.26,3.21-6.12.74C520.67,1015.81,520.65,1012.88,521.53,1011.8Zm-6.17-3.13c1.81,2.66,3.77,4.3,3.52,5.47-.35,1.63-2.36,2.9-3.66,4.32-1.3-1.46-3.31-2.77-3.64-4.42C511.34,1012.89,513.42,1011.28,515.36,1008.67ZM498,1010.93l1-.77,1.91,4.1,2.6-4.84v8.39l-1.18.86-2.76-5.12-1,4.09-.58,0Zm-.16,85.42a16.65,16.65,0,1,1-16.41,16.49A16.51,16.51,0,0,1,497.89,1096.35ZM439.3,897.17a26.27,26.27,0,0,1,1.51-3.63c.61,1.29,1.27,2.56,1.81,3.87a4.22,4.22,0,0,1,0,1.49q0,70.91,0,141.83c0,2.23-1,4.45-1.53,6.68-.61-2.31-1.74-4.61-1.76-6.92-.13-23.3-.08-46.61-.08-69.92q0-35.21,0-70.41A12.2,12.2,0,0,1,439.3,897.17ZM343.8,1064.22c-8.59-.11-15.72-7.64-15.78-16.66-.07-9.47,6.92-16.84,15.94-16.8s15.61,7.11,15.66,16.47S352.51,1064.33,343.8,1064.22ZM328,710.46c0-9.45,7-16.76,16.06-16.71,8.85.05,15.53,7.17,15.55,16.56s-7.14,17-15.91,16.91C335.15,727.1,328,719.47,328,710.46Zm15.83,194.76c-8.53,0-15.71-7.6-15.79-16.62-.08-9.52,6.83-16.85,15.86-16.84s15.67,7.08,15.71,16.43C359.67,897.71,352.67,905.25,343.83,905.22Zm151-136.46a15.92,15.92,0,0,1-16-16.11c.14-8.87,7.64-16.25,16.28-16a16.28,16.28,0,0,1,15.82,16A16,16,0,0,1,494.78,768.76Zm50-93.28c-29.16.09-58.32.06-87.48.06h-6.12v34H449.8V675.77h-7.68v34.48l-2.5-.1V675.54H182.06c-9.25,0-11.57-2.27-11.59-11.4,0-8.66-.07-17.33.05-26,0-1.25.9-2.49,1.38-3.74.62,1.28,1.75,2.55,1.77,3.84.16,8.83.1,17.66.1,26.49,0,6.25,1.22,7.48,7.62,7.55.83,0,1.67,0,2.5,0H549.69l.43,1.73C548.33,674.52,546.54,675.48,544.74,675.49Zm6.8-7.07H180V636.23l.62,0v31.2H551.66Zm2.9-44.86a26.65,26.65,0,1,1,46,26.72c-7.86,11.65-24.73,15.59-35.11,7.41,18.49,4.55,29.7.72,35.46-11.51a24.9,24.9,0,0,0-39.36-29.06c-10.22,9.61-10.35,21.4-.41,37.07C552.4,650.69,549,634.65,554.45,623.55Zm-374.53-23.7H662.72V668.3H560.91v-.75H661.47V601H180.81v26h-.9ZM681.28,189.76v38.09l-1.27.07c-.08-1.65-.2-3.31-.25-5-.31-12.8-.22-25.63-1.1-38.39-.32-4.61-2.43-9.33-4.63-13.52-2.81-5.36-7.67-7.94-14-7.93q-85.74.15-171.48.14c-14.73,0-22,6.31-23.87,21.09a159.6,159.6,0,0,0-1.25,19.39q-.12,105,0,210c0,2,.21,4,.32,6l1.74,0c.12-1.6.36-3.19.36-4.79q0-106.49,0-213c0-8.4.76-16.62,4.62-24.27,3.74-7.43,9.75-11,18.08-11,56.49,0,113,.13,169.48,0,7.78,0,13.07,3.27,15.51,10.1a72.85,72.85,0,0,1,4.05,18.91c.7,9.62.34,19.32.23,29,0,1.22-1.25,2.43-1.91,3.65-.56-1.18-1.58-2.35-1.61-3.55-.1-5.49,0-11,.16-16.49.17-6.59-1.56-8.56-8-8.56q-94,0-188,0c-6.43,0-8.63,2-8.63,8.16,0,70.32,0,140.65,0,211.49h155l-.14,3.19c-2.35.42-4.7,1.15-7,1.16q-63,.1-126,0a21.88,21.88,0,0,0-7,.76H621.85l0,1.22h-131c-9.4,0-9.4,0-9.69,9.21a2.85,2.85,0,0,1-1.15,2.41l-.39-8.71H469.12l-.46,8.86-.83,0V427c4.4-1.88,11.4,2.69,13.78-5.51-5,0-10.12-.3-15.11.2-1.33.14-3.23,2.63-3.45,4.24-.51,3.72-.16,7.56-.16,11.36l-1.6.05c0-4.27-.05-8.55,0-12.82,0-2.65.41-5.29.41-7.93q0-110.49,0-221c0-2.63,1-6.31-4.6-4.56V437.57H456V189.08l5.79-.77c0-4.9,0-9.85,0-14.8,0-12.17-.1-24.33,0-36.5.06-12.86,7.69-20.37,20.63-20.48,3.33,0,7.64,1.29,9.82-.3,7.5-5.48,15.6-1.59,23.29-2.61,1.66-.22,3.54,1.43,5.37,2.08a11.45,11.45,0,0,0,3.67.8q47,.07,94,0c1.47,0,2.89-1.34,4.4-1.89a13.15,13.15,0,0,1,4.09-1c5.83-.11,11.67-.21,17.49.05,1.62.07,3.16,1.47,4.79,2.12a10.09,10.09,0,0,0,3.25.79c2.83.11,5.66,0,8.5,0,12.29,0,19.32,6.34,19.69,18.81.44,15.15.17,30.32.21,45.49,0,2,0,4,0,6.15l6.81,1.15Zm8.78,32.9q0,2.63,0,5.27h-1.59q0-2.87,0-5.74,0-50-.05-100c0-1.83.06-3.67-.09-5.5-.94-11.22-3.68-13.73-14.83-13.73H463.56c-9.58,0-12.11,2.44-12.14,12.64q-.18,51.23-.13,102.47,0,107.21,0,214.43c0,1.75-.14,3.49-.22,5.24l-1.36,0q0-2.63,0-5.26,0-158.45,0-316.9a26.1,26.1,0,0,1,.75-6.9c1.6-5.78,4.17-7.49,10.67-7.49q57.23,0,114.46,0h100c9.7,0,13,2.86,14.37,12.52a43.7,43.7,0,0,1,.25,6Q690.1,171.18,690.06,222.66Zm-250.81-110c0-1.17,0-2.33,0-3.5.45-10.87,7.32-17.61,18.18-17.63q41-.07,82,0H679.9c13,0,19.7,6.63,19.71,19.68q0,56,0,112a17.07,17.07,0,0,1-.12,3.48c-.14.65-.88,1.17-1.35,1.75-.62-.6-1.64-1.12-1.79-1.82a22.47,22.47,0,0,1-.15-4.48q-.06-55-.12-110c0-12.66-4.85-17.36-17.6-17.35H460c-12.46,0-17.29,4.75-17.29,17.12q0,79.73,0,159.47h-.1q0,80,0,160a13.57,13.57,0,0,1-.07,3.48,18.21,18.21,0,0,1-1.75,3.45,33.89,33.89,0,0,1-1.52-3.68,9.2,9.2,0,0,1,0-2.49Q439.25,272.34,439.25,112.62ZM155.41,34.75c-.1,12.16-.11,24.33-.19,36.49,0,1.73-.22,3.45-.33,5.18l-2,.24a21.44,21.44,0,0,1-.82-4.12c-.06-13.5-.15-27,0-40.49.12-10.57,7.17-17.55,17.65-17.56q110.22-.05,220.45,0c10.89,0,17.62,7.16,17.63,18.57q.05,56.24,0,112.47,0,143.47-.06,286.93c0,1.93-.86,3.85-1.32,5.78-.62-1.94-1.79-3.88-1.79-5.81q-.16-197.2-.15-394.41a72.11,72.11,0,0,0-.15-7.49c-.79-7.54-6-12.38-13.56-12.78-1.16-.06-2.33,0-3.5,0H172.79C160.23,17.73,155.51,22.33,155.41,34.75Zm19.74-8.94c-8.1,0-11.07,2.81-11.18,11-.14,11.49-.08,23-.12,34.49a7.58,7.58,0,0,1-1.31,4.77c-.13-1.5-.37-3-.38-4.49-.07-11.16-.2-22.33-.09-33.49.1-10.2,3.5-14.41,14.29-14.36q103.71.46,207.43,0c11-.05,13.92,5.15,13.92,14.74q0,108.46,0,216.93,0,88.22,0,176.44c0,2-.22,4-.34,6l-1.5-.06q0-3.06,0-6.12,0-193.93,0-387.87c0-2.5,0-5,0-7.5-.25-7.66-3.15-10.5-10.67-10.5ZM359.69,440.16c.08,9.52-7,17.15-15.84,17.09-8.63-.05-15.77-7.56-15.85-16.66-.08-9.61,6.77-16.87,15.92-16.89C352.85,423.69,359.61,430.74,359.69,440.16Zm-107.22-7.85c18.43,3.17,36.76,3.44,55.27-.58C301.87,443,265.68,443.44,252.47,432.31Zm49.47,13.29c-8.06,8.65-35.08,8.22-43.73,0ZM281.66,160.43a25,25,0,1,1,24.82-24.87A25.06,25.06,0,0,1,281.66,160.43Zm13.11,258.65v9.08c-1.79-3.53-3.61-6.11-5.57-.51V420C291.06,423.56,292.65,423.66,294.77,419.08Zm-10.9,5.13a26.85,26.85,0,0,1-2-3c1.28-.53,2.54-1.35,3.84-1.42.43,0,1.33,1.89,1.36,2.95a31.3,31.3,0,0,1-.65,5.26l-4.63-.79.42-1.68,3.27.88.36-.77A9.12,9.12,0,0,1,283.87,424.22Zm-2.77-4.13a52.82,52.82,0,0,1-1.24,7.33c-.14.48-3.18.76-3.31.47a75.23,75.23,0,0,1-2.47-7.57l1.79-.44L277,426.5h1.59l1.21-6.54Zm-7.27,1.27c-1.13,1.23-2.32,2.42-3.38,3.71-.66.8-1.14,1.76-2.52,3.94V419Zm-111.35-339h.93V464.25l-.93-.05Zm142.6,399.14c0,5.18-1.74,7-6.72,7q-21.25,0-42.5,0c-5,0-6.92-1.82-7-6.84-.08-4.14,0-8.29,0-13.07H152q0-194.05,0-386.83h2.93V465.08H404.5c0-6.13-.09-12.07.08-18,0-1.18,1.05-2.32,1.62-3.48.52,1.2,1.46,2.38,1.49,3.59.14,6.82.07,13.65.07,21.2H305.08C305.08,473.21,305.09,477.34,305.08,481.47Zm91.09-17.17V443.93l.81,0v20.37Zm65.4,51.05h-5.69c-30.32,0-60.64,0-91-.06-3.33,0-5.26.61-6.74,4.11-3.3,7.81-10.88,11.26-18.3,9.12-7.92-2.29-12.79-10-11.76-18.55.9-7.54,7.3-13.8,14.5-14.19,8.41-.46,15.21,4.57,16.71,13.21.67,3.89,2.46,4.29,5.69,4.28,30.32-.08,60.64,0,91,0h5.67Zm-22.24-68.28c0-1.16,1.05-2.31,1.62-3.47.56,1.16,1.61,2.31,1.62,3.48q.14,30.47,0,60.95c0,1.16-1.05,2.32-1.62,3.48-.55-1.16-1.58-2.32-1.59-3.48-.13-10.32-.07-20.65-.07-31C439.25,467.05,439.2,457.06,439.33,447.07Zm10.8,63.85V444.12l.74,0v66.82Zm5.93,0V444.2l.77,0v66.64Zm6.35-.4-.65.14V444.56h.65Zm6.15-6.18h-.7v-60h.7Zm-98.93-62.93.06-1.08H536.18v1.08Zm151.41,77c1.44,3.52.08,4.29-2.91,4.33-5,.07-10.37-1.25-14.73,2.65-4.78,2.05-9.52,3.19-14-.74-7-2.67-9.05-12.49-4-19.18a13,13,0,0,1,20.5-.77l-.18-.2H521c1.3,3.55.7,5-2.72,4.86-3.63-.17-7.28,0-11.1,0v9.09ZM486.84,492.1c-3.78,0-6.93-.82-7-5.17-.15-14.13-.06-28.25,1.12-42.45v13.4H601.23q0,.66,0,1.33H481.39c0,9.68-.14,18.77.07,27.86.09,3.83,3.31,3.49,6,3.49h84.78V492h-4.88Q527.08,492.06,486.84,492.1Zm106.28,29.47a12.63,12.63,0,0,1-17,2.78A13,13,0,0,1,572,507.56c2.29-4.16,4.64-5.24,7.91-3.68-7.7,4.13-8.33,9-6.06,13.73,2.65,5.52,7.15,7.39,13.36,5.19,5.33-1.89,7.06-7.39,4.81-16.66C596.69,510.39,596.94,516.7,593.12,521.57Zm1.41-30.8h25.59v.75H594.65Zm57.55,26.49v-6.46l3.4-.59C656.86,513.35,655.3,516.93,652.07,517.26Zm1.22-26.67c3.28.12,5.14-1.25,5.16-4.56.06-8.63,0-17.25,0-26.36l-6.62-.34-.16-.89,6.77-1.12V446.68l1.11,0c.11,1.11.3,2.23.31,3.34,0,11.81-.05,23.63,0,35.44,0,4.6-2,6.78-6.59,6.68-3.59-.08-7.19,0-10.79,0l-.06-1.53C646.1,490.56,649.7,490.46,653.3,490.59Zm-4.87,15.75v14.79H615.1V506.34Zm-6.2-43.47a33,33,0,0,0-5.25-1c-7.15-.1-14.31,0-21.46-.08-2.92-.05-4.28.83-4.14,4,.19,4.12,0,8.25,0,13.22h19.82v1.48H609.48V458h34.7Zm20.92-41.57a38.66,38.66,0,0,0-4.25,0l4.56,6.3c-5.3-.6-2.84,4.08-4.42,7.56-.27-2.33-.48-3.45-.51-4.57-.12-3.56-2-5-5.45-4.91-6.16.1-12.32,0-18.48,0a8.39,8.39,0,0,1-4.83-1H658v-1H631l-.53-1.76c1.76-.77,3.51-2.17,5.29-2.21,10.41-.21,20.83-.11,32.71-.1C667.47,421,665.77,421.64,663.15,421.29Zm6.39-6a7.76,7.76,0,0,1-1,4.21l-4.42-7.77-.47,5.66h-29l-.07-1.13h26.74v-8.07c-1.44,6.32-6.55,4.93-11,5-4.09,0-8.18,0-12.27,0l-.06-1.45c5.15,0,10.3-.23,15.43.08,3.76.22,5.93-1.42,6.16-4.81.61-9.06,1.25-18.16,1-27.22-.1-3.65-.11-6.58,2.17-9.61s3.83-6.44,5.79-9.82c.59.62,1,.84,1,1.06Q669.56,388.29,669.54,415.25Zm8.26-16.62c0,3.58-1.25,7.15-1.93,10.72l-2.1-.23q0-10.87,0-21.74c0-10.64-.15-21.28.17-31.9.09-3,1.6-5.91,2.47-8.86l1.49.34C677.89,364.17,678,381.4,677.8,398.62Zm3.1.82h-.83V341l.83,0Zm8.71-14.61h-.73V326.89h.73Zm9.93-18.58c0,2.09-1.2,4.17-2.2,7.45-2.9-11.62-1.33-59,2.29-63.27C699.62,329.61,699.68,347.93,699.54,366.25Zm-11-130.18c0-.62.27-1.24,1.44-1.82v80.83c-.56-.87-1.4-1.74-1.4-2.62Q688.41,274.28,688.5,236.08ZM482.92,247c.93,3.17,2.67,4.47,6.1,4.47q80.22-.06,160.44.13c3.89,0,5.88-1.43,6.45-5.19.52-3.45,1.08-6.9,1.87-10.29a3.43,3.43,0,0,1,2.6-2.07l-3.91,16.5,8.4-3.61L663.48,234l6-.26V349.35l5.4-8.88a27.77,27.77,0,0,1-1-5.22q0-47.95.24-95.9a8.24,8.24,0,0,1,.13-3,11.21,11.21,0,0,1,2-2.54c.53.84,1.1,1.65,1.57,2.52.14.26,0,.65,0,1q-.08,49.2-.16,98.39l3.11-5.24a12.76,12.76,0,0,1-1.06-3.5q-.09-45.48,0-91a2.9,2.9,0,0,1,.93-2.13,10,10,0,0,1,.82,2.75q0,46.47-.16,92.94l8.74-14.24,0-.07a105.48,105.48,0,0,0,6.5-10.24c.69-1.37-.36-3.54-.37-5.35q0-31.24.06-62.49c0-1.19,1-2.37,1.61-3.55.58,1.3,1.67,2.61,1.68,3.91.11,18.5.08,37,.08,55.49,0,1.76,0,3.53,0,6.85l6.59-9.94,1.56,1L590.18,484.84l-1.63-.89c.9-1.64,1.74-3.31,2.71-4.91q15.66-25.84,31.32-51.68a49.8,49.8,0,0,0,2.29-4.88h-.07l3.11-5c-1.66.09-3.32.26-5,.27q-71.48.05-143,.08h-4.88v-57l5.15-.93,0-1.08-5.34-.45V268.49l5.28.44.3-1L475,266V206.22c1.7-.1,3.16-.25,4.61-.25q92,0,183.93-.09c4.78,0,6.56,1.31,6.24,6.15-.35,5.25-.08,10.55-.08,16h-6.25l2.2-4.6-6.26-4.12-1,.57,2.29,7.62-.85.67c-.64-.84-1.67-1.59-1.87-2.52-.87-4.23-1.41-8.52-2.27-12.75-.59-2.92-2.24-4.32-5.6-4.31-53.81.15-107.63.13-161.44.34-1.8,0-4.78,1.68-5.21,3.16C480,223.65,479.5,235.34,482.92,247Z" transform="translate(-134.83 -2.57)"/><path class="cls-1" d="M709.83,413.55c-.18,0-.35,0-.52,0a4.83,4.83,0,0,1-8.86.25,42.78,42.78,0,0,0-1.13,10.62q.23,244.25.12,488.49a20,20,0,0,0,1,6.15,4.56,4.56,0,0,1,1.74-2.08c-2.37-2.82-1.16-8.39,3.65-8.39,5.19,0,6.19,6.47,3,9a5.41,5.41,0,0,1,.59,7.43,5.07,5.07,0,0,1,1.37.62V413.46A5.56,5.56,0,0,1,709.83,413.55Z" transform="translate(-134.83 -2.57)"/><path d="M700.3,923a5.71,5.71,0,0,1,.15-4,20,20,0,0,1-1-6.15q.16-244.25-.12-488.49a42.78,42.78,0,0,1,1.13-10.62,5.52,5.52,0,0,1,.83-5.72,5.37,5.37,0,0,1-1.22-4.24,5.56,5.56,0,0,1-.44-5.82c0-4.57.06-9.15-.09-13.72,0-1.25-1.1-2.47-1.69-3.7-.54,3.89-1.53,7.78-1.55,11.68-.11,35.49,0,71,0,106.48q-.06,211.47-.14,422.94,0,118.23-.07,236.46c0,11.08-5.22,16.18-16.25,16.18q-110,0-220,0c-12.1,0-17-4.87-17.06-16.88q-.09-49.49-.12-99a17.4,17.4,0,0,0-.13-4c-.17-.71-1.15-1.22-1.77-1.82-.47.56-1.24,1.08-1.35,1.7a23,23,0,0,0-.13,4q0,43.74,0,87.49c0,5-.19,10,.09,15,.57,10.06,7.5,16.74,17.5,16.75q112.48.07,225,0c10,0,17-6.65,17.75-16.58.12-1.49.06-3,.06-4.5q0-109.24,0-218.47V935.1a5.6,5.6,0,0,1,.27-5.56A5.5,5.5,0,0,1,700.3,923Z" transform="translate(-134.83 -2.57)"/><path class="cls-1" d="M697.83,380.55v0c.59,1.23,1.65,2.45,1.69,3.7.15,4.57.11,9.14.09,13.72a4.42,4.42,0,0,1,2.42-2.13,4.65,4.65,0,0,1,4.78-4.3,4.54,4.54,0,0,1,4,2.08V358.55Z" transform="translate(-134.83 -2.57)"/><path d="M442.49,717.84c-.21-.86-1.18-1.53-1.8-2.29a8,8,0,0,0-1.36,2.25,17,17,0,0,0-.07,3.49q0,81.75,0,163.49v4.61h-.68a5.44,5.44,0,0,1,.35,1.2h2.77a5.35,5.35,0,0,1,.91-2.77c0-55.57,0-110.79,0-166A16.81,16.81,0,0,0,442.49,717.84Z" transform="translate(-134.83 -2.57)"/><path d="M690.07,980.53q0-288.74-.08-577.47a36.51,36.51,0,0,0-1.11-6.84c-.15,2.9-.38,5.8-.38,8.7q0,69.9,0,139.8c0,1.95,0,3.9,0,6.12h-8.45V526.62l6.31-.88,0-.85-4.84-.75V410.92l-1.44-.1-.61,11-4.67-3.19c-.12.82-.38,2-.2,2,5.28,2.2,3.6,6.89,3.63,10.66.16,22.33.1,44.66.1,67,0,16.17,0,32.33,0,48.5,0,3.19-.44,5.4-4.61,3.49q0-35.8,0-71.5c0-16.17,0-32.33-.06-48.5,0-1.32-.87-2.64-1.33-4-.66,2.88-.18,5.22-.18,7.57.06,37.16,0,74.33.17,111.49,0,4.69-1.38,5.82-5.89,5.81q-87-.21-174-.1H468.61V524.81c-1.08,6.33-.81,12.64-1.22,18.91-.16,2.45,2.44,7.15-2.37,7.11-4.14,0-2-4.47-2.08-6.83-.27-8.71-.11-17.44-.11-26.16-1.23,1.73-1.1,3.55-1.52,5.24-.24,1-1.34,1.76-2.05,2.63-.71-.88-1.86-1.69-2-2.67a33.1,33.1,0,0,1-.09-5.71H456v9.94l5.14.53v23c-1.48.15-2.62.2-3.74.38-4.65.75-6.5-.85-6.23-5.86.42-7.81.13-15.66.09-23.49,0-1.44-.21-2.89-.32-4.33l-1.28.1v72.54h-7c0-2.38,0-4.37,0-6.36,0-20.67.06-41.33-.05-62,0-1.63-1.15-3.26-1.77-4.89-.5,1.58-1.44,3.15-1.45,4.73-.1,20.83-.07,41.66-.07,62.5,0,2,0,3.92,0,6.43H181.9c-9.15,0-11.43,2.31-11.44,11.56,0,7.67-.07,15.33.08,23a4,4,0,0,0,.6,1.78c.33.59.72,1.18,1,1.77.29-.64.71-1.29,1-1.93a3.87,3.87,0,0,0,.51-1.67q.2-12.5,0-25c-.06-4.23,2-6.11,6-6.23,1.17,0,2.33,0,3.5,0h475c1,0,2,0,3,0,4.57,0,6.6,2.16,6.58,6.77q-.13,32.5,0,65c0,4.68-2.11,6.72-6.63,6.7-6.5,0-13,0-19.5,0-26.67,0-53.33,0-80,.06-2,0-4.09.93-6.14,1.43l.33,1.51a22.64,22.64,0,0,0,2.41.25q51.75,0,103.5,0c6.32,0,9.15-3.11,9.16-9.79q.05-32,0-64c0-8.79-2.43-11.19-11.29-11.19h-208V554.65H688.29V782.37H451.09V716.09h-1.24v171a4.75,4.75,0,0,1,1.21,2.09,5.13,5.13,0,0,1,.68-1.54V785.94H688.51c0,2.21,0,4.17,0,6.13q0,75.75,0,151.49,0,104.49-.09,209c0,8.72-3.08,12.18-10.79,12.18q-108,0-216,0c-6.81,0-9.24-2.2-10-9a57.27,57.27,0,0,1-.2-6q-.08-45.75-.15-91.49c0-1.73-.24-3.45-.37-5.18l-1.23.13q0,2.69,0,5.37,0,42.5,0,85c0,3.83-.12,7.67,0,11.5.31,8.28,3.9,11.69,12.08,11.69h214c10.73,0,14.41-3.65,14.41-14.24Q690.1,1066.52,690.07,980.53Z" transform="translate(-134.83 -2.57)"/><path d="M546.7,890.59l0-1.6H535.2c1.74-7.4,5-10,12.66-10q22-.13,44,0c7.74.05,12.74,4.63,12.57,11.17s-5,10.52-12.55,10.6c-11.49.13-23,.53-34.48.19-8.1-.23-17.36,2.07-22.62-7.35,0-.06-.58.16-.88.25,1.36,5.77,5.49,9.26,12.14,9.34q23.5.28,47,0c8.11-.1,13.85-6,13.74-13.48s-5.93-13.05-14.1-13.1q-23-.13-46,0c-6.92,0-11.09,3.24-13.66,9.66-.49,1.22-2.06,2-3.13,3L528,888l6.22-20.16-1.16-.33-6.46,21.24h-.88a4.2,4.2,0,0,1,.29,1.85Z" transform="translate(-134.83 -2.57)"/><path d="M627.93,417.46c-1.66.09-3.32.26-5,.26q-71.48.05-143,.08h-4.88v-57l5.15-.93,0-1.08-5.34-.45V268.49l5.28.44.3-1L475,266V206.22c1.7-.1,3.16-.25,4.61-.25q92,0,183.93-.09c4.78,0,6.56,1.31,6.24,6.15-.35,5.25-.08,10.55-.08,16h-6.25l2.2-4.6-6.26-4.12-1,.57,2.29,7.62-.85.67c-.64-.84-1.67-1.59-1.87-2.52-.87-4.23-1.41-8.52-2.27-12.75-.59-2.92-2.24-4.32-5.6-4.31-53.81.15-107.63.13-161.44.34-1.8,0-4.78,1.68-5.21,3.16-3.37,11.54-3.84,23.23-.42,34.92.93,3.17,2.67,4.47,6.1,4.47q80.22-.06,160.44.13c3.89,0,5.88-1.43,6.45-5.19.52-3.45,1.08-6.9,1.87-10.29a3.43,3.43,0,0,1,2.6-2.07l-3.91,16.5,8.4-3.61L663.48,234l6-.26c0,38.75,0,77.16,0,115.57l-5.6,8.65a6.22,6.22,0,0,1-1.87-.59c-.81-.59-1.74-2.1-2.15-2-1.05.39-2.47,1.37-2.63,2.3-.88,5-4.2,5.43-8.44,5.41q-80.18-.29-160.36-.36H477.08v3.81l6.53,4.16c2.94-1.21,5.55-3.22,8.17-3.23q80.43-.22,160.86,0a25.64,25.64,0,0,1,5.19,1.08l.1-.17c-2.78.26-5.57.76-8.35.76q-77.83-.13-155.65-.28c-2.06,0-4.12,1.11-6.19,1.7l.14-.15c-4.94,11.16-4,22.68-2.07,34.25,1.08,6.47,1.8,7,8.39,7q65.46,0,130.92-.06a35.29,35.29,0,0,1,5.68.91l.1-.18a53.76,53.76,0,0,1-5.9.65c-43.12.1-86.25.08-129.37.33-5.29,0-9.53-.4-11.16-6.26,0-.16-.58-.19-.05,0l-7.54,5.21c-1.15,4.31,2.64,3.43,5.48,3.43q69.68,0,139.36.08c2,0,4,1.17,6,1.8ZM488.78,306.58a36.1,36.1,0,0,0,5.27.76q78.44,0,156.89-.2c2,0,3.93-.37,5.89-.57,1-1.62,2.64-3.17,2.8-4.87.73-7.73,1.29-15.51,1.38-23.27,0-3.45-1.18-6.92-1.83-10.38l-1.39.31,1,4-4.22-7.81h-4.81l-134.36-.13c-7.16,0-14.32-.15-21.47.05-1.44,0-3.71,1-4.14,2.13a48.9,48.9,0,0,0-2.37,26.41l-1.72-21.12a62.71,62.71,0,0,0,1.52,32.86C487.45,305.48,488.25,306,488.78,306.58Zm80.71,12v.09c-26.82,0-53.65,0-80.47,0-3,0-5.25.4-6.07,3.7-2.75,11.16-3.27,22.32-.41,33.57,1.08,4.25,3.39,5.59,7.82,5.58q78.72-.18,157.44.13c5.29,0,7.51-2.27,8.49-6.75a69.84,69.84,0,0,0-.39-31.17c-.9-3.85-2.81-5.23-6.95-5.19C622.48,318.68,596,318.58,569.5,318.58ZM477.25,259.8V263l7.32,5.45c1.23-8.23,7.83-5.77,13.14-5.77q75.21,0,150.43.25c4.93,0,10.67-1.93,13.41,5.16a96.77,96.77,0,0,0,.42-11.48c-.06-4.6-1.37-5.5-5.75-4.47a36.55,36.55,0,0,1-8.23,1.23q-55.22,0-110.45-.15c-18.28,0-36.56,0-55.06,0l-.34,6.08ZM483,318.4a21.46,21.46,0,0,1,4.75-.94q81.47-.13,162.94-.08a15.25,15.25,0,0,1,4.57,1.27c1.94.65,3.84,1.41,6.16,2.27V304.37c-1.69,4.78-5.47,4.17-9,4.17q-44.73,0-89.47.05c-23.49,0-47,.07-70.47-.07-2,0-4-1.39-6-2.25-1.38-.6-2.66-1.41-4-2.12-.59,3-5.63,4.54-2.89,8.7C480.75,314.67,481.84,316.57,483,318.4Zm182.85,7.7-7.63-4-1,1.08c.83,3.84,1.17,7.87,2.61,11.46,1.74,4.33,1.91,8.19-.09,12.42-.81,1.71-.63,3.88-1,6.72l7.52-4.6C663,344.35,662.66,330.27,665.82,326.11Zm1.28-116.57-.16-1.27H655.57a12.46,12.46,0,0,0,.73,2.68c1.19,2.1,2.5,4.14,3.76,6.19l2.7-6.68ZM480.64,277.9c-.67,1.19-1.53,2-1.58,2.94-.19,3.29-.2,6.59-.11,9.89.1,3.82.18,3.83,3.43,2.64Zm-3.21,19.66h-.3v29h.3Zm185.64-11.21h.87v-15.4l-1.62.05Zm3.35-11.71h-.18v26.77h.18ZM477.58,375.15l-.43-.19v27h.43Zm1-154.55-.53-.17v25h.53Z" transform="translate(-134.83 -2.57)"/><path d="M624.88,422.47c-2.41.41-4.81,1.18-7.22,1.19q-63,.1-126,0a21.88,21.88,0,0,0-7,.76H621.85l0,1.22h-131c-9.4,0-9.4,0-9.69,9.21a2.85,2.85,0,0,1-1.15,2.41l-.39-8.71H469.12l-.46,8.86-.83,0V427c4.4-1.88,11.4,2.69,13.78-5.51-5,0-10.12-.3-15.11.2-1.33.14-3.23,2.63-3.45,4.24-.51,3.72-.16,7.56-.16,11.36l-1.6.05c0-4.27-.05-8.55,0-12.82,0-2.65.41-5.29.41-7.93q0-110.49,0-221c0-2.63,1-6.31-4.6-4.56V437.57H456V189.08l5.79-.77c0-4.9,0-9.85,0-14.8,0-12.17-.1-24.33,0-36.5.06-12.86,7.69-20.37,20.63-20.48,3.33,0,7.64,1.29,9.82-.31,7.5-5.48,15.6-1.59,23.29-2.61,1.66-.22,3.54,1.43,5.37,2.08a11.45,11.45,0,0,0,3.67.8q47,.07,94,0c1.47,0,2.89-1.34,4.4-1.89a13.15,13.15,0,0,1,4.09-1c5.83-.11,11.67-.21,17.49.05,1.62.07,3.16,1.47,4.79,2.12a10.09,10.09,0,0,0,3.25.79c2.83.11,5.66,0,8.5,0,12.29,0,19.32,6.34,19.69,18.81.44,15.15.17,30.32.21,45.49,0,2,0,4,0,6.15l6.81,1.15-6.53,1.64v38.09l-1.27.07c-.08-1.65-.2-3.31-.25-5-.31-12.8-.22-25.63-1.1-38.39-.32-4.61-2.43-9.33-4.63-13.52-2.81-5.36-7.67-7.94-14-7.93q-85.74.15-171.48.14c-14.73,0-22,6.31-23.87,21.09a159.6,159.6,0,0,0-1.25,19.39q-.12,105,0,210c0,2,.21,4,.32,6l1.74,0c.12-1.6.36-3.19.36-4.79q0-106.49,0-213c0-8.4.76-16.62,4.62-24.27,3.74-7.43,9.75-11,18.08-11,56.49,0,113,.13,169.48,0,7.78,0,13.07,3.27,15.51,10.11a72.85,72.85,0,0,1,4.05,18.91c.7,9.62.34,19.32.23,29,0,1.22-1.25,2.43-1.91,3.65-.56-1.18-1.58-2.35-1.61-3.55-.1-5.49,0-11,.16-16.49.17-6.59-1.56-8.56-8-8.56q-94,0-188,0c-6.43,0-8.63,2-8.63,8.16,0,70.32,0,140.65,0,211.49h155c-.07,1.47-.11,2.42-.15,3.36Zm-2.54-303.88H520.87c.34,4-1.44,5.21-5.06,5a144,144,0,0,0-15.48,0c-3.9.2-6.91-.29-6.81-4.93H480.38l2.51,42.66H661.42V118.58a7.52,7.52,0,0,0-2.5-.28c-3.67.94-9.52-3.14-10.42,4.44,0,.33-1.43.72-2.2.72-7.62.05-15.24,0-23,0Zm53.58,80.52c.06-7.28-.66-15.34-4.4-22.83-2.59-5.19-6.53-8.06-12.73-7.79-7.32.32-14.66.08-22,.08q-74.21,0-148.43-.08c-5.49,0-10.12,1.57-13.74,5.81-5.16,6.05-8.18,19.51-6.11,27.7,2.64-4.06,6.54-4.67,10.92-4.66q92.21.09,184.41.11C667.82,197.45,671.78,198.51,675.93,199.11ZM478.52,118.94c-8.74.89-14.36,6.26-14.89,15.08-.6,9.95-.36,19.95-.45,29.93,0,4.73,0,9.47,0,14.21,3.73-7.44,8.12-13.53,16.44-15.76a2.81,2.81,0,0,0,1.34-2.28C480.21,146.39,479.35,132.67,478.52,118.94Zm185.55-.4c-.38,13.75-.82,27.32-1,40.9,0,1,1.58,2.08,2.59,2.91,3.14,2.59,6.64,4.8,9.45,7.69,1.82,1.88,2.68,4.7,4.45,8,0-14.53.19-27.94-.13-41.35a27.26,27.26,0,0,0-2.72-10.49C674.39,121.22,670.38,118.21,664.08,118.54Zm-38.89.24c4.3,3.7,19.88,3,21.39,0Zm-129,.17c3.59,3,18.34,3.12,22.69,0Z" transform="translate(-134.83 -2.57)"/><path d="M442.63,271.33q0,80,0,160a13.57,13.57,0,0,1-.07,3.48,18.21,18.21,0,0,1-1.75,3.45,33.88,33.88,0,0,1-1.52-3.68,9.2,9.2,0,0,1,0-2.49q0-159.72,0-319.43c0-1.17,0-2.33,0-3.5.45-10.87,7.32-17.61,18.18-17.63q41-.07,82,0H679.9c13,0,19.7,6.63,19.71,19.68q0,56,0,112a17.07,17.07,0,0,1-.12,3.48c-.14.65-.88,1.17-1.35,1.75-.62-.6-1.64-1.12-1.79-1.82a22.47,22.47,0,0,1-.15-4.48q-.06-55-.12-110c0-12.66-4.85-17.36-17.6-17.36H460c-12.46,0-17.29,4.75-17.29,17.12q0,79.73,0,159.47Z" transform="translate(-134.83 -2.57)"/><path d="M154.91,465.08H404.5c0-6.13-.09-12.07.08-18,0-1.18,1.05-2.32,1.62-3.48.52,1.2,1.46,2.38,1.49,3.59.14,6.82.07,13.65.07,21.2H305.08c0,4.83,0,9,0,13.08,0,5.18-1.74,7-6.72,7q-21.25,0-42.5,0c-5,0-6.92-1.82-7-6.84-.08-4.14,0-8.29,0-13.07H152q0-194.05,0-386.83h2.93Zm97.38,3.6v5.79h49.28v-5.79Zm50,13.77L301.1,481H252.35l-.79,1.4c1.4.94,2.78,2.67,4.19,2.69q21.21.31,42.42,0C299.55,485.12,300.91,483.4,302.28,482.46Zm-.2-5.33H251.32C255.36,480.25,299.22,480.06,302.08,477.13Z" transform="translate(-134.83 -2.57)"/><path d="M152.84,76.65a21.44,21.44,0,0,1-.82-4.12c-.06-13.5-.15-27,0-40.49.12-10.57,7.17-17.55,17.65-17.56q110.22-.06,220.45,0c10.89,0,17.62,7.16,17.63,18.57q.05,56.24,0,112.47,0,143.47-.06,286.93c0,1.93-.86,3.85-1.32,5.78-.62-1.94-1.79-3.88-1.79-5.81q-.16-197.2-.15-394.41a72.12,72.12,0,0,0-.15-7.49c-.79-7.54-6-12.38-13.56-12.78-1.16-.06-2.33,0-3.5,0H172.79c-12.56,0-17.28,4.6-17.38,17-.1,12.16-.11,24.33-.19,36.49,0,1.73-.22,3.45-.33,5.18Z" transform="translate(-134.83 -2.57)"/><path d="M281.5,110.46a25,25,0,0,1,25,25.1,25,25,0,0,1-50-.08A24.82,24.82,0,0,1,281.5,110.46ZM274,132.24l2.25-5.09c-5.22-1.92-4.79,4.18-7.63,5.1-2.49-1.75-2.28-7-7-5.28l6.76,16.77a20.78,20.78,0,0,0,2.27-3.26c1.27-2.75,2.32-5.61,3.47-8.42-.58,2.46-.55,4.13,2.77,2.6a14.6,14.6,0,0,1,3.69-.67l.21,1.61c-1.53.34-3.28.31-4.52,1.11s-2.19,2.48-3.26,3.76c1.41,1.11,2.69,2.89,4.25,3.17,2.27.41,4.74-.26,7.34-.48,0-2.26,0-4.23,0-6.19-.13-4.94-2-6.54-6.86-5.75A32.52,32.52,0,0,0,274,132.24Zm29.12,5.92c-1.69-2.73-2.57-5.82-4-6.09-2.89-.56-6.08.4-9.12.73-.2-6-.2-6-4-5.8v17.58l4.92-3.26c4.59,3.91,8.15,3.58,10.23-1.3l-7,.39v-1.7Z" transform="translate(-134.83 -2.57)"/><path d="M439.63,710.16V675.54H182.06c-9.25,0-11.57-2.27-11.59-11.4,0-8.66-.07-17.33.05-26q0-.1,0-.21a6.45,6.45,0,0,1,.74-2.16l.29-.6c.12-.26.24-.52.34-.77.62,1.28,1.75,2.55,1.77,3.84q0,.9,0,1.8c.13,8.23.07,16.46.07,24.69,0,6.25,1.22,7.48,7.62,7.55.83,0,1.67,0,2.5,0H549.69l.43,1.73c-1.79.51-3.58,1.47-5.37,1.47-29.16.09-58.32.06-87.48.06h-6.12v34H449.8V675.77h-7.68v34.48Z" transform="translate(-134.83 -2.57)"/><path d="M395.81,437.79q0-3.06,0-6.12,0-193.93,0-387.87c0-2.5,0-5,0-7.5-.25-7.66-3.15-10.5-10.67-10.5H175.14c-8.1,0-11.07,2.81-11.18,11-.14,11.49-.08,23-.12,34.49a7.58,7.58,0,0,1-1.31,4.77c-.13-1.5-.37-3-.38-4.49-.07-11.16-.2-22.33-.09-33.49.1-10.2,3.5-14.41,14.29-14.36q103.71.46,207.43,0c11-.05,13.92,5.15,13.92,14.74q0,108.46,0,216.93,0,88.22,0,176.44c0,2-.22,4-.34,6Z" transform="translate(-134.83 -2.57)"/><path d="M449.68,437.73q0-2.63,0-5.26,0-158.45,0-316.9a26.1,26.1,0,0,1,.75-6.9c1.6-5.78,4.17-7.49,10.67-7.49q57.23,0,114.46,0h100c9.7,0,13,2.86,14.37,12.52a43.7,43.7,0,0,1,.25,6q0,51.48,0,103,0,2.63,0,5.27h-1.59q0-2.87,0-5.74,0-50-.05-100c0-1.83.06-3.67-.09-5.5-.94-11.22-3.68-13.73-14.83-13.73H463.56c-9.58,0-12.11,2.44-12.14,12.63q-.18,51.23-.13,102.47,0,107.21,0,214.43c0,1.75-.14,3.49-.22,5.24Z" transform="translate(-134.83 -2.57)"/><path d="M162.48,464.2V82.32h.93V464.25Z" transform="translate(-134.83 -2.57)"/><path d="M662.72,599.85V668.3H560.91v-.75H661.47V601H180.81v26h-.9V599.85Z" transform="translate(-134.83 -2.57)"/><path d="M638,411.66c5.15,0,10.3-.23,15.43.08,3.76.22,5.93-1.42,6.16-4.81.61-9.06,1.25-18.16,1-27.22-.1-3.65-.11-6.58,2.17-9.61s3.83-6.44,5.79-9.82c.59.62,1,.84,1,1.06q0,27,0,53.92c0,4.17-1.73,6.66-6.39,6a38.66,38.66,0,0,0-4.25,0l4.56,6.3c-5.3-.6-2.84,4.08-4.42,7.56-.27-2.33-.48-3.45-.51-4.57-.12-3.56-2-5-5.45-4.91-6.16.1-12.32,0-18.48,0a8.39,8.39,0,0,1-4.83-1H658v-1H631l-.53-1.76c1.76-.77,3.51-2.17,5.29-2.21,10.47-.21,21-.1,32.91-.1l-4.51-7.94-.47,5.66h-29l-.07-1.13h26.74v-8.07c-1.44,6.32-6.55,4.93-11,5-4.09,0-8.18,0-12.27,0Zm25.95-37.56h-1.74l.87,14.26.87,0Zm2.5,2.56h-.18v26.81h.18Z" transform="translate(-134.83 -2.57)"/><path d="M439.25,970.57q0-35.21,0-70.41a12.2,12.2,0,0,1,.05-3,26.28,26.28,0,0,1,1.51-3.63c.61,1.29,1.27,2.56,1.81,3.87a4.22,4.22,0,0,1,0,1.49q0,70.91,0,141.83c0,2.23-1,4.45-1.53,6.68-.61-2.31-1.74-4.61-1.76-6.92C439.2,1017.18,439.25,993.87,439.25,970.57Z" transform="translate(-134.83 -2.57)"/><path d="M624.9,1009.55c6,0,12,.13,18,0,4.48-.13,4.08,2.83,4,5.71s.76,6.23-4.09,6.19c-11.66-.11-23.32-.13-35,0-5.17.06-4.19-3.44-4.33-6.51s.15-5.6,4.39-5.42C613.56,1009.72,619.23,1009.55,624.9,1009.55Z" transform="translate(-134.83 -2.57)"/><path d="M572.22,492h-4.88q-40.25,0-80.5.06c-3.78,0-6.93-.82-7-5.17-.15-14.13-.06-28.25,1.12-42.45v13.4H601.23v1.33H481.39c0,9.68-.14,18.77.07,27.86.09,3.83,3.31,3.49,6,3.49h84.78Z" transform="translate(-134.83 -2.57)"/><path d="M677.75,335.74l-2.88,4.73a27.77,27.77,0,0,1-1-5.22q0-47.95.24-95.9a8.24,8.24,0,0,1,.13-3,11.21,11.21,0,0,1,2-2.54c.53.84,1.1,1.65,1.57,2.52.14.26,0,.65,0,1Q677.83,286.54,677.75,335.74Z" transform="translate(-134.83 -2.57)"/><path d="M551.55,668.41H180V636.23l.62,0v31.2H551.66Z" transform="translate(-134.83 -2.57)"/><path d="M494.78,768.76a15.92,15.92,0,0,1-16-16.11c.14-8.87,7.64-16.25,16.28-16a16.28,16.28,0,0,1,15.82,16A16,16,0,0,1,494.78,768.76Zm-.23-26.23a10.28,10.28,0,1,0,10.5,10.14C505,746.64,500.67,742.45,494.55,742.54Zm6,22.3a12.76,12.76,0,0,0,8.21-13A11.55,11.55,0,0,0,500.54,741C509.7,749.71,509.7,754.81,500.53,764.84Zm-13.94-22.59c-7.08,5.72-7.8,14.41-1.28,19.31C480.79,754.41,481.55,748.21,486.59,742.25Z" transform="translate(-134.83 -2.57)"/><path d="M648.43,506.34v14.79H615.1V506.34Zm-6.55,12.1a28.38,28.38,0,0,1,0-4c.79-4.86-1.22-6.56-6-6.07a109.69,109.69,0,0,1-11,.07c-7.6,0-7.61,0-7.24,7.75a12.82,12.82,0,0,0,.52,2.26Zm2,1.72v-.21H619v.21Z" transform="translate(-134.83 -2.57)"/><path d="M439.25,477c0-10-.05-20,.07-30,0-1.16,1.05-2.31,1.62-3.47.56,1.16,1.61,2.31,1.62,3.48q.14,30.47,0,60.95c0,1.16-1.05,2.32-1.62,3.48-.55-1.16-1.58-2.32-1.59-3.48C439.2,497.69,439.25,487.37,439.25,477Z" transform="translate(-134.83 -2.57)"/><path d="M565.32,657.69c18.49,4.55,29.7.72,35.46-11.51a24.9,24.9,0,0,0-39.36-29.06c-10.22,9.61-10.35,21.4-.41,37.07-8.61-3.5-12-19.54-6.56-30.64a26.65,26.65,0,1,1,46,26.72C592.58,661.93,575.71,665.87,565.32,657.69Z" transform="translate(-134.83 -2.57)"/><path d="M673.76,409.12q0-10.87,0-21.74c0-10.64-.15-21.28.17-31.9.09-3,1.6-5.91,2.47-8.86l1.49.34c0,17.23.11,34.46-.09,51.68,0,3.58-1.25,7.15-1.93,10.72Z" transform="translate(-134.83 -2.57)"/><path d="M699.62,310.44c0,19.17.06,37.49-.08,55.81,0,2.09-1.2,4.17-2.2,7.45C694.43,362.09,696,314.67,699.62,310.44Z" transform="translate(-134.83 -2.57)"/><path d="M505.75,504.43H521c1.3,3.55.7,5-2.72,4.86-3.63-.17-7.28,0-11.1,0v9.09H521c1.44,3.52.08,4.29-2.91,4.33-5,.07-10.37-1.25-14.73,2.65,1.16-3.12,3.48-4.05,6.67-3.84s6.43,0,9.65,0l0-1.66a32.53,32.53,0,0,1-3.77-.34c-6.06-1.24-11.29,1.73-16.82,3.21,1.56-1.8,3.41-3.43,4.61-5.44,2.25-3.78,1.86-7.6-2.17-9.77-2.47-1.33-6.38-2.7-8.31-1.64-2.58,1.42-4.66,5-5.51,8-1.28,4.58,3,6.6,5.93,9-5.24.21-7.33-3-8-7.57a10.29,10.29,0,0,1,5.14-11c4.11-2.54,8.62-2.54,12,.65,5.41,5,11.23,2,16.89,1.92-3.49-.85-7.06-.72-10.61-.92C507.94,505.95,506.86,505,505.75,504.43Z" transform="translate(-134.83 -2.57)"/><path d="M609.48,458h34.7l-2,4.89a33,33,0,0,0-5.25-1c-7.15-.1-14.31,0-21.46-.08-2.92-.05-4.28.83-4.14,4,.19,4.12,0,8.25,0,13.22h19.82v1.48H609.48Z" transform="translate(-134.83 -2.57)"/><path d="M574.4,1002.56c-6.08,0-11.41-.13-16.73,0a11.41,11.41,0,0,0-.4,22.82c2.93.21,5.88,0,8.8.39-11.33,3.65-21-1.59-21.37-11.18-.28-7.32,4.72-13.22,12.36-13.59,8.14-.4,16.33-.32,24.48,0,6,.25,10.35,4.17,11.89,9.76a12.91,12.91,0,0,1-5,13.67,3.53,3.53,0,0,1-2.23.32c5-6,8.44-12.13,1.73-18.68-3.45-3.36-7.8-3.85-12-1.62-6.21,3.27-6.71,8.85-4.7,15.9C567,1014.52,567.89,1009.95,574.4,1002.56Z" transform="translate(-134.83 -2.57)"/><path d="M636.79,1129.65a16.65,16.65,0,1,1,.15-33.3,16.65,16.65,0,1,1-.15,33.3Zm.33-31.18a14.31,14.31,0,0,0-14.57,14.44,14.49,14.49,0,0,0,14,14.55,14.87,14.87,0,0,0,15-14.26A14.67,14.67,0,0,0,637.12,1098.47Z" transform="translate(-134.83 -2.57)"/><path d="M514.83,1112.88a16.67,16.67,0,1,1-33.35,0,16.67,16.67,0,0,1,33.35,0Zm-31.13,0a14.55,14.55,0,0,0,14.51,14.6,14.78,14.78,0,0,0,14.5-14.73,14.58,14.58,0,0,0-14.39-14.25A14.37,14.37,0,0,0,483.7,1112.87Z" transform="translate(-134.83 -2.57)"/><path d="M252.47,432.31c18.43,3.17,36.76,3.44,55.27-.58C301.87,443,265.68,443.44,252.47,432.31ZM297.86,436h-35C274.83,439.8,285.62,439.67,297.86,436Z" transform="translate(-134.83 -2.57)"/><path d="M681.36,329.61l-.5.89a12.76,12.76,0,0,1-1.06-3.5q-.09-45.48,0-91a2.9,2.9,0,0,1,.93-2.13,10,10,0,0,1,.82,2.75Q681.49,283.14,681.36,329.61Z" transform="translate(-134.83 -2.57)"/><path d="M450,894.44v152.2l.85.14V894h-.5A4.54,4.54,0,0,1,450,894.44Z" transform="translate(-134.83 -2.57)"/><path class="cls-1" d="M505.75,504.43c1.1.55,2.19,1.51,3.32,1.58,3.55.21,7.12.08,10.61.92-5.66.06-11.48,3.12-16.89-1.92-3.43-3.19-7.93-3.19-12-.65a10.29,10.29,0,0,0-5.14,11c.69,4.52,2.78,7.77,8,7.57l5.44-.19c5.53-1.48,10.76-4.45,16.82-3.21a32.53,32.53,0,0,0,3.77.34l0,1.66c-3.22,0-6.45.16-9.65,0s-5.51.72-6.67,3.84c-4.78,2.05-9.52,3.19-14-.74a42.43,42.43,0,0,1-3-3.26,12.49,12.49,0,0,1,14.76-19.07c1.64.69,3.19,1.58,4.79,2.37Z" transform="translate(-134.83 -2.57)"/><path d="M258.21,445.61h43.73C293.89,454.26,266.87,453.83,258.21,445.61Zm33.89,3.56,0-.9H271.95l0,.9Z" transform="translate(-134.83 -2.57)"/><path d="M592,506.15c4.68,4.24,4.92,10.55,1.1,15.42a12.63,12.63,0,0,1-17,2.78A13,13,0,0,1,572,507.56c2.29-4.16,4.64-5.24,7.91-3.68-7.7,4.13-8.33,9-6.06,13.73,2.65,5.52,7.15,7.39,13.36,5.19C592.54,520.92,594.27,515.42,592,506.15Z" transform="translate(-134.83 -2.57)"/><path d="M547.29,924.82c17.45,8.88,34.3,8.9,49.19-4.32,15.72-13.95,17.74-31.32,9.11-50.9,10.28,12.3,7.44,35.74-5.34,49.27C586.25,933.69,562.28,936.47,547.29,924.82Z" transform="translate(-134.83 -2.57)"/><path d="M680.9,341v58.45h-.83V341Z" transform="translate(-134.83 -2.57)"/><path d="M658.48,459.67l-6.62-.34-.16-.89,6.77-1.12V446.68l1.11,0c.11,1.11.3,2.23.31,3.34,0,11.81-.05,23.63,0,35.44,0,4.6-2,6.78-6.59,6.68-3.59-.08-7.19,0-10.79,0l-.06-1.53c3.6,0,7.2-.1,10.79,0,3.28.12,5.14-1.25,5.16-4.56C658.52,477.4,658.48,468.78,658.48,459.67Z" transform="translate(-134.83 -2.57)"/><path d="M690.11,315.37c-.55-1-1.57-1.93-1.57-2.89q-.12-38.2,0-76.4c0-.62.27-1.24,1.44-1.82q0,40.62,0,81.23Z" transform="translate(-134.83 -2.57)"/><path d="M592.41,855.39c-16.44-9.06-32.48-8.59-48.11,2C554.57,846.15,579.71,844.21,592.41,855.39Z" transform="translate(-134.83 -2.57)"/><path d="M450.87,444.09v66.82h-.74V444.12Z" transform="translate(-134.83 -2.57)"/><path d="M461.75,510.61V444.56h.65v65.92Z" transform="translate(-134.83 -2.57)"/><path d="M456.83,444.24v66.64h-.77V444.2Z" transform="translate(-134.83 -2.57)"/><path d="M468.55,444.34v60h-.7v-60Z" transform="translate(-134.83 -2.57)"/><path d="M688.88,384.84V326.9h.73v57.94Z" transform="translate(-134.83 -2.57)"/><path d="M505.93,504.63c-1.59-.8-3.15-1.68-4.79-2.37a12.49,12.49,0,0,0-14.76,19.07,42.43,42.43,0,0,0,3,3.26c-7-2.67-9.05-12.49-4-19.18A13,13,0,0,1,505.93,504.63Z" transform="translate(-134.83 -2.57)"/><path d="M594.53,490.77h25.59v.75H594.65Z" transform="translate(-134.83 -2.57)"/><path d="M593.52,884.32c1.86,2.57,4,4.28,3.71,5.44-.36,1.56-2.56,2.69-4,4-1.18-1.34-3.2-2.62-3.29-4S591.75,886.86,593.52,884.32Z" transform="translate(-134.83 -2.57)"/><path d="M396.17,464.3V443.93l.81,0v20.37Z" transform="translate(-134.83 -2.57)"/><path d="M282.25,425.5l3.27.88.36-.77a9.12,9.12,0,0,1-2-1.39,26.83,26.83,0,0,1-2-3c1.28-.53,2.54-1.35,3.84-1.42.43,0,1.33,1.89,1.36,2.95a31.3,31.3,0,0,1-.65,5.26l-4.63-.79Z" transform="translate(-134.83 -2.57)"/><path d="M267.93,429V419l5.9,2.34c-1.13,1.23-2.32,2.42-3.38,3.71C269.79,425.87,269.31,426.83,267.93,429Z" transform="translate(-134.83 -2.57)"/><path d="M275.87,419.87,277,426.5h1.59l1.21-6.54,1.31.12a52.82,52.82,0,0,1-1.24,7.33c-.14.48-3.18.76-3.31.47a75.24,75.24,0,0,1-2.47-7.57Z" transform="translate(-134.83 -2.57)"/><path d="M537.16,916.58c-5.37-6.64-8.53-13.88-9.18-21.78Z" transform="translate(-134.83 -2.57)"/><path d="M289.2,420c1.86,3.58,3.45,3.68,5.57-.9v9.08c-1.79-3.53-3.61-6.11-5.57-.51Z" transform="translate(-134.83 -2.57)"/><path d="M652.07,517.26v-6.46l3.4-.59C656.86,513.35,655.3,516.93,652.07,517.26Z" transform="translate(-134.83 -2.57)"/><path class="cls-1" d="M688.92,395.45c-.15,3.15-.42,6.3-.42,9.46q0,69.9,0,139.8c0,1.95,0,3.9,0,6.12h-8.45V526.62l6.31-.88,0-.85-4.84-.75V410.92l-1.44-.1-.61,11-4.77-3.26Z" transform="translate(-134.83 -2.57)"/><path class="cls-1" d="M569.5,318.58c26.49,0,53,.1,79.47-.11,4.14,0,6.05,1.34,6.95,5.19a69.84,69.84,0,0,1,.39,31.17c-1,4.49-3.2,6.78-8.49,6.75q-78.72-.36-157.44-.13c-4.43,0-6.74-1.33-7.82-5.58-2.86-11.25-2.35-22.41.41-33.57.81-3.3,3.1-3.7,6.07-3.7,26.82.08,53.65,0,80.47,0Z" transform="translate(-134.83 -2.57)"/><path class="cls-1" d="M656.84,306.57c-2,.2-3.93.57-5.89.57q-78.44.15-156.89.2a36.1,36.1,0,0,1-5.27-.76l-1.34-13.52a48.9,48.9,0,0,1,2.37-26.41c.42-1.11,2.69-2.09,4.14-2.13,7.15-.2,14.32-.06,21.47-.05l134.36.13h4.81l4.22,7.81c.34,3.73,1.2,7.51.9,11.18C659.08,291.27,657.83,298.91,656.84,306.57Z" transform="translate(-134.83 -2.57)"/><path class="cls-1" d="M657.93,368.47l-27.12,44.17a35.29,35.29,0,0,0-5.68-.91q-65.46,0-130.92.06c-6.59,0-7.3-.55-8.39-7-1.94-11.57-2.88-23.09,2.07-34.25l-2.61,24,.78.07,3-24.31-1.26.35c2.06-.59,4.12-1.7,6.19-1.7q77.83.05,155.65.28C652.36,369.23,655.14,368.73,657.93,368.47Z" transform="translate(-134.83 -2.57)"/><path class="cls-1" d="M477.25,259.8l4.89-.54.34-6.08c18.5,0,36.78,0,55.06,0q55.22.08,110.45.15a36.55,36.55,0,0,0,8.23-1.23c4.38-1,5.69-.13,5.75,4.47a96.77,96.77,0,0,1-.42,11.48c-2.74-7.09-8.49-5.15-13.41-5.16q-75.21-.21-150.43-.25c-5.31,0-11.91-2.46-13.14,5.77L477.25,263Z" transform="translate(-134.83 -2.57)"/><path class="cls-1" d="M483,318.4c-1.12-1.83-2.22-3.73-3.43-5.56-2.74-4.16,2.3-5.68,2.89-8.7,1.33.71,2.61,1.52,4,2.12,2,.86,4,2.24,6,2.25,23.49.15,47,.09,70.47.07q44.73,0,89.47-.05c3.54,0,7.32.61,9-4.17v16.56c-2.32-.86-4.22-1.62-6.16-2.27a15.25,15.25,0,0,0-4.57-1.27q-81.47-.05-162.94.08A21.46,21.46,0,0,0,483,318.4Z" transform="translate(-134.83 -2.57)"/><path class="cls-1" d="M663.88,358l-6.05,10.65a25.64,25.64,0,0,0-5.19-1.08q-80.43-.14-160.86,0c-2.61,0-5.22,2-8.17,3.23l-6.53-4.16V362.8h11.36q80.18.15,160.36.36c4.24,0,7.55-.38,8.44-5.41.16-.94,1.58-1.91,2.63-2.3.41-.15,1.33,1.37,2.15,2A6.22,6.22,0,0,0,663.88,358Z" transform="translate(-134.83 -2.57)"/><path class="cls-1" d="M630.91,412.46l-3.13,5.19c-2-.63-4-1.79-6-1.8q-69.68-.15-139.36-.08c-2.84,0-6.63.89-5.48-3.43l7.54-5.21c-.52-.15,0-.13.05,0,1.63,5.87,5.87,6.3,11.16,6.26,43.12-.25,86.25-.23,129.37-.33A53.76,53.76,0,0,0,630.91,412.46Z" transform="translate(-134.83 -2.57)"/><path class="cls-1" d="M665.82,326.11c-3.16,4.17-2.86,18.25.36,23.08l-7.52,4.6c.39-2.84.21-5,1-6.72,2-4.23,1.83-8.09.09-12.42-1.44-3.59-1.78-7.63-2.61-11.46l1-1.08Z" transform="translate(-134.83 -2.57)"/><path class="cls-1" d="M656.84,306.57c1-7.66,2.24-15.29,2.88-23,.3-3.68-.56-7.45-.9-11.18l-1-4,1.39-.31c.65,3.46,1.87,6.93,1.83,10.38-.09,7.76-.65,15.54-1.38,23.27C659.48,303.4,657.81,304.95,656.84,306.57Z" transform="translate(-134.83 -2.57)"/><path class="cls-1" d="M667.09,209.54l-4.34.92-2.7,6.68c-1.26-2.06-2.57-4.09-3.76-6.19a12.46,12.46,0,0,1-.73-2.68h11.36Z" transform="translate(-134.83 -2.57)"/><path class="cls-1" d="M487.44,293.05l1.34,13.52c-.53-.59-1.33-1.09-1.54-1.78a62.71,62.71,0,0,1-1.52-32.86Z" transform="translate(-134.83 -2.57)"/><path class="cls-1" d="M480.64,277.9l1.74,15.47c-3.25,1.18-3.33,1.18-3.43-2.64-.09-3.29-.08-6.6.11-9.89C479.11,279.94,480,279.09,480.64,277.9Z" transform="translate(-134.83 -2.57)"/><path class="cls-1" d="M477.43,297.56v29h-.3v-29Z" transform="translate(-134.83 -2.57)"/><path class="cls-1" d="M663.07,286.35,662.32,271l1.62-.05v15.4Z" transform="translate(-134.83 -2.57)"/><path class="cls-1" d="M666.42,274.64v26.77h-.18V274.64Z" transform="translate(-134.83 -2.57)"/><path class="cls-1" d="M477.58,375.15V402h-.43V375Z" transform="translate(-134.83 -2.57)"/><path class="cls-1" d="M478.54,220.6v24.83H478v-25Z" transform="translate(-134.83 -2.57)"/><path class="cls-1" d="M622.34,118.59l.94,4.91c7.78,0,15.4,0,23,0,.76,0,2.16-.39,2.2-.72.9-7.59,6.76-3.5,10.42-4.44a7.52,7.52,0,0,1,2.5.28v42.73H482.9l-2.51-42.66h13.14c-.1,4.65,2.92,5.13,6.81,4.93a144,144,0,0,1,15.48,0c3.62.21,5.4-1,5.06-5Z" transform="translate(-134.83 -2.57)"/><path class="cls-1" d="M675.93,199.11c-4.15-.6-8.1-1.66-12.06-1.66q-92.21-.16-184.41-.11c-4.38,0-8.29.6-10.92,4.66-2.07-8.19,1-21.65,6.11-27.7,3.61-4.23,8.24-5.81,13.74-5.81q74.21.11,148.43.08c7.33,0,14.67.24,22-.08,6.2-.27,10.14,2.6,12.73,7.79C675.27,183.77,676,191.83,675.93,199.11Z" transform="translate(-134.83 -2.57)"/><path class="cls-1" d="M478.52,118.94c.83,13.73,1.69,27.45,2.43,41.17a2.81,2.81,0,0,1-1.34,2.28c-8.32,2.23-12.71,8.32-16.44,15.76,0-4.74,0-9.47,0-14.21.09-10-.15-20,.45-29.93C464.16,125.2,469.78,119.84,478.52,118.94Z" transform="translate(-134.83 -2.57)"/><path class="cls-1" d="M664.08,118.54c6.31-.33,10.32,2.68,12.62,7.64a27.26,27.26,0,0,1,2.72,10.49c.31,13.41.13,26.83.13,41.35-1.77-3.28-2.63-6.1-4.45-8-2.81-2.89-6.31-5.11-9.45-7.69-1-.84-2.61-1.95-2.59-2.91C663.26,145.86,663.69,132.29,664.08,118.54Z" transform="translate(-134.83 -2.57)"/><path class="cls-1" d="M625.19,118.79h21.39C645.07,121.83,629.48,122.49,625.19,118.79Z" transform="translate(-134.83 -2.57)"/><path class="cls-1" d="M496.2,119h22.69C514.54,122.08,499.79,122,496.2,119Z" transform="translate(-134.83 -2.57)"/><path class="cls-1" d="M252.28,468.69h49.28v5.79H252.28Z" transform="translate(-134.83 -2.57)"/><path class="cls-1" d="M302.28,482.46c-1.37.93-2.73,2.66-4.11,2.68q-21.21.29-42.42,0c-1.41,0-2.79-1.75-4.19-2.69l.79-1.4H301.1Z" transform="translate(-134.83 -2.57)"/><path class="cls-1" d="M302.08,477.13c-2.86,2.93-46.72,3.12-50.76,0Z" transform="translate(-134.83 -2.57)"/><path class="cls-1" d="M303.1,138.16l-8.93.54v1.7l7-.39c-2.08,4.88-5.64,5.22-10.23,1.3L286,144.57V127c3.81-.24,3.81-.24,4,5.8,3-.33,6.23-1.29,9.12-.73C300.53,132.34,301.41,135.42,303.1,138.16Z" transform="translate(-134.83 -2.57)"/><path class="cls-1" d="M274,132.22a35.93,35.93,0,0,1,3.76-1c4.83-.79,6.73.82,6.86,5.75.05,2,0,3.93,0,6.19-2.6.23-5.07.89-7.34.48-1.56-.28-2.84-2.06-4.25-3.17,1.07-1.29,1.92-2.9,3.26-3.76s3-.77,4.52-1.11l-.21-1.61a14.6,14.6,0,0,0-3.69.67c-3.31,1.53-3.34-.14-2.77-2.6Z" transform="translate(-134.83 -2.57)"/><path class="cls-1" d="M274.14,132.05c-1.14,2.81-2.19,5.67-3.47,8.42a20.78,20.78,0,0,1-2.27,3.26L261.64,127c4.68-1.73,4.46,3.53,7,5.28,2.85-.93,2.42-7,7.63-5.1L274,132.23Z" transform="translate(-134.83 -2.57)"/><path class="cls-1" d="M352.42,1036.28c-.79,2.53-1.17,4.19-1.82,5.75-2.1,5-4.17,10-6.53,14.91-.66,1.35-2.28,2.24-3.46,3.34l-2.1-1.58,7.22-17.94a41.72,41.72,0,0,1-6.71-.11c-1.12-.18-2.06-1.47-3.08-2.26.92-.7,1.81-2,2.76-2C342.94,1036.16,347.21,1036.28,352.42,1036.28Z" transform="translate(-134.83 -2.57)"/><path class="cls-1" d="M663.92,374.1v14.28l-.87,0-.87-14.26Z" transform="translate(-134.83 -2.57)"/><path class="cls-1" d="M666.42,376.66v26.81h-.18V376.66Z" transform="translate(-134.83 -2.57)"/><path class="cls-1" d="M494.55,742.54c6.12-.09,10.46,4.1,10.5,10.14a10.3,10.3,0,1,1-10.5-10.14Z" transform="translate(-134.83 -2.57)"/><path class="cls-1" d="M500.53,764.84c9.17-10,9.17-15.13,0-23.87a11.55,11.55,0,0,1,8.21,10.83A12.76,12.76,0,0,1,500.53,764.84Z" transform="translate(-134.83 -2.57)"/><path class="cls-1" d="M486.59,742.25c-5,6-5.8,12.16-1.28,19.31C478.8,756.66,479.51,748,486.59,742.25Z" transform="translate(-134.83 -2.57)"/><path class="cls-1" d="M641.88,518.44H618.19a12.82,12.82,0,0,1-.52-2.26c-.37-7.74-.36-7.75,7.24-7.75a109.69,109.69,0,0,0,11-.07c4.81-.49,6.82,1.21,6,6.07A28.38,28.38,0,0,0,641.88,518.44Z" transform="translate(-134.83 -2.57)"/><path class="cls-1" d="M643.89,520.16H619v-.21h24.85Z" transform="translate(-134.83 -2.57)"/><path class="cls-1" d="M499.08,522.74l-5.44.19c-2.93-2.43-7.21-4.45-5.93-9,.85-3,2.94-6.58,5.51-8,1.93-1.06,5.84.31,8.31,1.64,4,2.16,4.41,6,2.17,9.77C502.49,519.31,500.63,520.94,499.08,522.74Zm-1.31-15.19c-4.71,2.8-2.12,6.81-2.81,9.67-.13.56,1.35,1.5,2.81,3Z" transform="translate(-134.83 -2.57)"/><path class="cls-1" d="M637.12,1098.47a14.67,14.67,0,0,1,14.42,14.73,14.87,14.87,0,0,1-15,14.26,14.49,14.49,0,0,1-14-14.55A14.31,14.31,0,0,1,637.12,1098.47Zm-11.68,14a11.71,11.71,0,0,0,11.68,11.76,11.74,11.74,0,0,0,.09-23.47A11.76,11.76,0,0,0,625.44,1112.47Z" transform="translate(-134.83 -2.57)"/><path class="cls-1" d="M483.7,1112.87a14.37,14.37,0,0,1,14.63-14.38,14.58,14.58,0,0,1,14.39,14.25,14.78,14.78,0,0,1-14.5,14.73A14.55,14.55,0,0,1,483.7,1112.87Zm2.81-.11a11.61,11.61,0,0,0,11.94,11.45,11.72,11.72,0,0,0-.49-23.44A11.72,11.72,0,0,0,486.51,1112.76Z" transform="translate(-134.83 -2.57)"/><path class="cls-1" d="M297.86,436c-12.24,3.67-23,3.8-35,0Z" transform="translate(-134.83 -2.57)"/><path class="cls-1" d="M292.1,449.17H272l0-.9h20.13Z" transform="translate(-134.83 -2.57)"/><path d="M487.74,370.65l1.26-.35-3,24.31-.78-.07,2.61-24Z" transform="translate(-134.83 -2.57)"/><path d="M497.77,507.55v12.69c-1.46-1.51-2.94-2.46-2.81-3C495.64,514.36,493.06,510.35,497.77,507.55Z" transform="translate(-134.83 -2.57)"/><path d="M625.44,1112.47a11.76,11.76,0,0,1,11.77-11.71,11.74,11.74,0,0,1-.09,23.47A11.71,11.71,0,0,1,625.44,1112.47Zm11.66,9.34a9.36,9.36,0,0,0,.13-18.73,9.36,9.36,0,1,0-.13,18.73Z" transform="translate(-134.83 -2.57)"/><path d="M486.51,1112.76a11.72,11.72,0,0,1,11.46-12,11.72,11.72,0,0,1,.49,23.44A11.61,11.61,0,0,1,486.51,1112.76Zm11.58-9.66a9.36,9.36,0,0,0-.28,18.71,9.36,9.36,0,1,0,.28-18.71Z" transform="translate(-134.83 -2.57)"/><path class="cls-1" d="M637.1,1121.81a9.36,9.36,0,1,1,.13-18.73,9.36,9.36,0,0,1-.13,18.73Zm-5.84-9.3,3.75,6.88,4.79-3.66,4.54,1L642.8,1112l-3.89-4.94c-2.19,1-4.7,2-7.07,3.3C631.39,1110.59,631.44,1111.77,631.25,1112.51Z" transform="translate(-134.83 -2.57)"/><path class="cls-1" d="M498.1,1103.1a9.36,9.36,0,1,1-.28,18.71,9.36,9.36,0,0,1,.28-18.71Zm-5.29,7.74,3.71,7.21,7.73-3.61-4.26-7.81Z" transform="translate(-134.83 -2.57)"/><path class="cls-1" d="M631.25,1112.51c.18-.75.13-1.93.59-2.17,2.37-1.27,4.88-2.3,7.07-3.3l3.89,4.94c.37,4.73-3.34,1.81-4.88,2.41l-2.07,3.91-1-.24.27-5.16Z" transform="translate(-134.83 -2.57)"/><path d="M631.25,1112.51l3.9.39-.27,5.16,1,.24,2.07-3.91c1.55-.59,5.26,2.32,4.88-2.41l1.54,4.78-4.54-1-4.79,3.66Z" transform="translate(-134.83 -2.57)"/><path class="cls-1" d="M492.81,1110.84l7.17-4.21,4.26,7.81-7.73,3.61Z" transform="translate(-134.83 -2.57)"/><circle class="cls-2" cx="434.67" cy="886.98" r="42"/><line x1="562.17" y1="215.98" x2="562.17" y2="312.98"/><line class="cls-3" x1="561.95" y1="223.56" x2="560.18" y2="380.99"/><path d="M152,76.65c1,10.9-1,9.56-1,9.56l3.07-4.45" transform="translate(-134.83 -2.57)"/><line class="cls-4" x1="18.17" y1="68.25" x2="18.17" y2="83.71"/><line class="cls-5" x1="27.83" y1="67.65" x2="27.83" y2="84.98"/><line class="cls-2" x1="270.5" y1="430.31" x2="270.5" y2="448.98"/><line class="cls-6" x1="260.92" y1="434.73" x2="260.92" y2="444.48"/><line class="cls-7" x1="305.67" y1="428.98" x2="305.17" y2="524.98"/><path class="cls-8" d="M172.5,623.55" transform="translate(-134.83 -2.57)"/><line class="cls-2" x1="37.33" y1="622.6" x2="37.25" y2="635.15"/><line class="cls-9" x1="45.73" y1="624.04" x2="45.6" y2="634.42"/><circle class="cls-2" cx="444.17" cy="632.98" r="25"/><line class="cls-2" x1="306.29" y1="705.23" x2="306.29" y2="716.48"/><line class="cls-10" x1="315.92" y1="705.98" x2="315.92" y2="716.48"/><line class="cls-11" x1="305.83" y1="885.31" x2="305.83" y2="894.98"/><line class="cls-9" x1="315.63" y1="882.62" x2="315.63" y2="893"/><line class="cls-11" x1="306" y1="1038.81" x2="306" y2="1054.48"/><line class="cls-12" x1="315.5" y1="1042.48" x2="315.5" y2="1052.15"/><circle class="cls-12" cx="445.92" cy="1011.73" r="11.75"/><line class="cls-12" x1="424.83" y1="1023.65" x2="445.92" y2="1023.48"/><line class="cls-13" x1="413.66" y1="664.98" x2="425.67" y2="664.98"/><line class="cls-2" x1="409.17" y1="670.98" x2="431.92" y2="670.98"/><line class="cls-3" x1="531.83" y1="224.31" x2="531.83" y2="234.31"/><line class="cls-3" x1="541.5" y1="223.97" x2="541.5" y2="235.32"/><line class="cls-3" x1="530.83" y1="349.31" x2="530.5" y2="375.98"/><line class="cls-3" x1="541.17" y1="333.31" x2="540.83" y2="350.98"/><line class="cls-3" x1="484.14" y1="419.98" x2="501.53" y2="419.98"/></svg>